<svg xmlns="http://www.w3.org/2000/svg" viewBox="0 0 631.64 580.13"><defs><style>.cls-1{fill:none;stroke:#000;stroke-linecap:round;stroke-linejoin:round;stroke-width:1.09px;}</style></defs><g id="Layer_2" data-name="Layer 2"><g id="Gráficos"><path class="cls-1" d="M293.3,474.11,409.84,541.3M12.23,311.9,269.62,460.27m22-124.08,118.24,68.27M12.23,175.06,271.15,324.51M562.67,248.4l17.38,10.15M203,40.83,547.3,239.63m-255.7,93.8,118.24,68.26M12.23,172.14,271.31,321.59m0-2.93L12.23,169.06M409.84,398.62,291.6,330.35M28.07,141.85,402,357.87M225.34,393.7l-.16.15H225m.15.15.16-.15m1.07-.31h-.15m-1.08-2.15.16-.15m-.16-6.77h.16m-.16-2.46.16-.15m-.31-5.38h.31v.15m0,.15h-.16l-.15.16m4.76,2.46h-.15l-.15.15m17.83,29.22h-.15m-15.38-28,.16-.15m16.76,26.6-.16.15h-.15m0-.46h0l-.16.15m.31.47.16-.16m0-2.77-.16.16h-.15m0-.46v.15h-.16M247,397.23h0l-.15.16m1.85.46h-.16l-.15.15m-6.31-11.53h0l-.15.15m6.3,11.08.16-.16m-6.77-11.22.16-.16h.15M248.55,398h.16m-4.77-10.45.15-.16h.16m0,.31v.15h-.16m4.62,7.39h-.16l-.15.15m-.16-.31.16-.15m.31-4.62h0l-.16.16m-.15-.31V390m40-81.49,1.69-1.39.92-1.53.31-1.23m-19.84,0v.46l.62,1.69,1.38,1.38,2,1.08,2.46.77,2.77.46,2.76-.16,2.62-.61,2.31-.92m9.68,156.37-.31,2.15-.76,1.69-1.39,1.08-1.23.3M546.07,348.8l2.31,1.38M212.88,15.46h0m1.69-.92h0m-4.76,2.61h0M164.14,43.6h0M76.5,94.18h0m1.69-.92h0m-4.76,2.61h0M27.76,122.32h0M66.81,343.88l-41,23.68M3.31,328.81l18.76-10.76M21,317.43,3,327.74M67.89,344.5l-41.36,24M386.32,576.21l23.52-13.54M484,409.38l2.31,1.38m11.53-29.52-2.31-1.38m-393.76-53.2-1.23.77m62.88,34.9-1.38.77M224.87,398l-1.23.62M12.69,312.67h0l-.15-.16-.16-.15v-.31l-.15-.15m88.26,15.53,25.06,14.45m-25.06-38.13v23.68m25.06-9.23-25.06-14.45m25.06,38.13V318.2M162,363.1l25.06,14.45M162,339.27V363.1m25.06-9.23L162,339.27m25.06,38.28V353.87m36.59,44.75,25.07,14.45m-25.07-37.52v23.07M248.71,390l-25.07-14.46m25.07,37.52V390M12.23,311.9V175.06m0,0,.15-.31v-.31l.16-.31.15-.3.16-.31.15-.31h.15M412.92,454.74v-2.15m0,52.89v-2.15M203,40.83l2.77-1.23,2.61-.77,2.46-.15,2.15.61,1.08.46M12.69,172.9h0l-.15-.15-.16-.15v-.16l-.15-.3m15.84-30.29,175-101M12.23,172.14v-3.08m0,0,.31-3.69.92-3.84,1.54-4,1.84-3.84L19.3,150l2.62-3.23L25,144l3.08-2.15m79.34,184.5v-1.07m-2.31-1.23V325m13.22-5.38-2.3,2.77m-1.7.3,3.85-4.61M114.79,323l3.38-4m-6.46-2.61,2-1.23,3.23-1.85m-11.53,6.77.15-.16m-.15,4v-3.84m-.31,0h.31m-.77,4.77v-4.77m0,4.61v-4.61m5.84-1.85.62-.3.61-.47m0,0v-4m-1.38,4.92h.15v-.16m0,0v-4m7.07,9.07L119.4,321m-.77-.77-2.77,3.39m3.23-2.93-2.77,3.23m-6-9.53v4m-1.23.61.61-.31.62-.3m10.61,3.53-1.85,2.16m-1.69.46,2.61-3.08m-2,3.39,2.46-3.08m-4-3.38,1.69-.93m-6.46-1.84,1.23-.62,3.38-2m-12,6.91.15.16h.62m16.45,2.15-2.61,3.23m1.69-.46,2-2.31m-.46-.15-2.62,3.23M109.1,319v-4.15m-4,5.23V315.9m0,4.15,2.15-.62,1.85-.46m-4.77-3.07h.15l.16.15.15-.15h.31m0,0,2.15-.62,1.85-.46m0,0,.61-.15.62-.31m0,0,.15-.15m0,0,.62-.47.61-.3m0,0-.31-.16h-.15m0,0-.62.46-.46.31m0,0H110v.16m0,0-.62.3-.61.16m0,0-2.15.61-1.85.46m0,0h-.15m18.76,8.77-1.23,1.38m-1.7.46,2.93-3.53m-2.31,3.84,2.31-2.92m-18-8.77,2.46-1.38m4.46,8.92v.92m11.07,2.15-1.23,1.54m1.07-.31-.61.62M105.41,315h-.77m.77,0v-2.15m-.77,2.92V315m0,.77h-.31v.16M122.78,339h0m0,0v-.15m-13.84-25.22.77.46m0,0-.46-.15-.31-.31m.46-.61h.31m0,0,.62-.31.46-.31m-1.08,1.69V313m4.31-1.39-4.31,2.46M102,310.21l1.08,1.23,1.23.92M102,310.21V307m8.77,5.23v.15m0-.61v.61m1.54,11.07,7.68,4.46,3.23,1.85m-15.83-3.39,2.76-1.53,2.16-1.39M105.1,325l1.38.77.93.61m-2.31-1.53h-.31M117.4,319l-1.85-1.07m-10.14,6,5.69-3.38,4.45-2.61m-10.45,6.15.15-.16h.16m2,1.39-1.24-.77-1.07-.46m2.31,1.23,2.76-1.54,2.16-1.23m10.91,6.3-4.76-2.92-6.15-3.38m8.76,10.76,2.31-1.38m-2.31-5.23-.31-.31h-.31m1.7-.46-.62.46-.46.31M118,324.82l-.3-.16-.31-.15m1.69-.46-.61.46-.47.31M114.79,323l-.31-.15-.16-.16m1.7-.3-.62.3-.61.31m8.45,4.15-.15.16-.46.15m-.46-.31.3.31h.16m-2-2.46-.62.46-.46.31m-.61-.31.3.15.31.16m-2-2.46-.61.31-.62.3m-.46-.3.31.15.15.15m7.08,10.61-1.23-.61-1.08-.62m0,0v.92m0,0,1.38.77.93.62m0,0-10.46-6-8.3-4.76m0,0v-.16m-.31.31.15-.15.16-.16M103,306.52h0m-.31.15v-.31m2,8.61v-2.46m0,2.46h0m0,0v-2.46m4,.93.3.15m0,0v-.31m-.77.46.77-.46.46-.3m1.39-.77-.77.46-.62.31m1.39-.77v-.46m-.16,0h0l.77.3M109.25,311h.31l.15.15M103,306.52,102,307m0,0,1.08,1.38,1.23.93m3.84,1.23.93-.47m-4.77-.76v3.07m0,0,2,.92,1.84.46m0,0v-3.22m-3.84-1.23,2,.92,1.84.31m3.23,1.53,1.69-.92m-1.69.92-.46-.15-.31-.15m.77.3v-2m-1.23.62.16-.15h.15m12.76,20.14v.15l.16.16m0-4.62-.16.16m0,0v.3h.16V327m-14.15-16,.77.3.61.47m0,0v-2.16m7.08,5.38v.77m0,0,.77.46m.46-.46v.16m-8.46-5.38v-.93M109.25,311v-.77m8.92,9.22.92,1.39,1.38.92m-2.3-2.31v-3.07m7.07,6.3-.15-.15m.15-.15v.15m-.92.46.46-.31.46-.3m0,0h0m-4.77-3.85v3.23m0,0,2,.77,1.85.46m0,0v-3.08m-5.23-4.15-.92.62m0,0,.92,1.38,1.38.77m0,0,2,.92,1.85.46m0,0,.92-.61m-7.69-5.69V315m0,0,4.31,2.46,3.38,2m0,0V323m0,0-.46-.31m-1.38.16V327m0,4v-4m0,4V336m0,0-10.77-6.3-8.3-4.77m0,0v-5.08m0,0v-4m0,0v-3.54m-1.85-5.53v-.62m0,0,4.31,2.46,3.38,2m0,0v-1.23m-8.76-5.23v22.3m0,0,2.15,1.23,1.69,1.07m0,0v.46m17.22,9.38v.46m0-.46,2.16,1.39.92.46m43.51,21.37V361m-2.31-1.39v1.08m9.08-2.46,4-4.61m0,1.53-2.15,2.77m-1.23.77,3.38-4m-6.61-2.76,2.15-1.08,3.23-1.85m-11.53,6.62.16-.16m-.16,4v-3.84m-.31,0h.31m-.77,4.76v-4.76m-.15,4.76v-4.76m6-1.7.61-.46.46-.3m0,0V349M171.83,354l.15-.16h.16m0,0v-4.15m8.15,6-2.77,3.38m1.69-.3,1.84-2.31m-.3-.31L178,359.41m-6.15-9.53V354m-1.08.46.62-.15.46-.31m10.76,3.53-1.84,2.16m-1.69.31,2.61-3.08m-2.15,3.38,2.61-3.07m-4-3.23,1.69-.92m-6.61-1.85,1.39-.77,3.38-2m-12.15,7.08h.77m15.68,5.07,2-2.46m-1.07-.31L180.59,361m3.23-2.92-2.61,3.23m-10.46-6.77v-4m-4.15,5.08v-4m0,4,2.31-.62,1.84-.46m-4.92-3.08.31.16h.46m0,0,2.31-.62,1.84-.46m0,0,.62-.31.46-.3m0,0H172l.16-.16m0,0,.61-.3.46-.47m0,0h-.15l-.16-.15m0,0-.61.46-.46.31m0,0-.16.15m0,0-.61.31-.62.15m0,0-2.15.62-1.84.46m0,0h-.31M185.05,360l-1.23,1.53m-1.69.31,2.92-3.54m-2.3,3.85,2.3-2.77m-18-8.76,2.31-1.39M174,358v1.07m11.07,2-1.38,1.69m1.23-.46-.62.77m-17.22-12.45h-.77m.77,0v-2.16m-.92,2.77v-.61m0,.61-.15.15h-.16m18.61,23.07h0m0,0h0M170.6,349.26l.77.46m0,0-.46-.3-.31-.16m.46-.77h.31m0,0,.61-.3.46-.31m-1.07,1.84v-1.23m4.3-1.23-4.3,2.46m-7.69-4,1.08,1.38L166,348m-2.31-2.3v-3.08m8.76,5.23h0m0-.46v.46M174,359.1l7.69,4.46,3.23,1.85m-15.84-3.54,2.77-1.54L174,359.1m-7.23,1.54,1.39.77.92.46m-2.31-1.38h-.3m12.61-6-1.85-.92m-10.15,5.84,5.69-3.23,4.46-2.61m-10.46,6,.16-.15h.15m2,1.54-1.23-.77-1.08-.62m2.31,1.39,2.77-1.69L174,358m10.92,6.3-4.77-2.77L174,358m8.77,10.76,2.3-1.23m-2.3-5.38-.31-.16-.31-.15m1.69-.31-.61.31-.46.31m-3.23-1.85-.31-.15-.15-.15m1.69-.31-.62.31-.61.3m-3.08-1.69-.31-.31-.3-.15m1.84-.31-.77.46-.46.31m8.46,4.15h-.16l-.46.31m-.61-.31.31.16.3.15m-2-2.46-.61.31-.46.31m-.62-.31.31.15.31.16m-2-2.46-.62.3-.61.31m-.46-.31.31.16.15.15m7.07,10.76-1.23-.77-1.07-.61m0,0v1.08m0,0,1.38.76.92.47m0,.15-10.45-6-8.31-4.92m0,0h-.15m-.31.16.31-.16M164.6,342v.15m-.31,0v-.31m1.85,8.77V348m.15,2.62h-.15m.15,0V348m4,1.08.31.15m0,0V349m-.77.31.77-.31.46-.46m1.38-.61-.77.31-.61.3m1.38-.61v-.62m-.15,0h0l.77.46m-2.15-1.23.3.16h.16M166,344.8V348m0,0,2,.77,1.85.46m0,0v-3.07M164.6,342l-.92.61m0,0,1.08,1.38,1.23.77m0,0,2,.93,1.85.46m0,0,.92-.46m2.31,2,1.69-1.07m-1.69,1.07-.46-.3-.31-.16m.77.46v-2m-1.23.46H172l.16-.16m12.91,15.84-.15.15m0,0v.31l.15.16m-.15,3.84h0l.15.15v.16m-14.14-20.15.76.47.62.3m0,0v-2m7.07,5.39v.61m0,0,.77.46m.46-.31h0M172.14,346v-.92m-1.23,1.38v-.76m8.91,9.37.93,1.23,1.23.93m-2.16-2.16v-3.22m7.08,6.45-.16-.15m.16-.15h0m-.93.61.47-.31.46-.3m0,0h0M182,354.18v3.08m0,0,2.15.92,1.84.46m0,0v-3.23m-5.22-4-.93.47m0,0,.93,1.38,1.23.92m0,0,2.15.92,1.84.31m0,0,.93-.46m-7.69-5.69v1.23m0,0,4.3,2.62L186.9,355m0,0v3.69m0,0-.46-.31m-1.39,0v4.16m0,4.15v-4.15m0,4.15v4.92m0,0-10.76-6.15-8.46-4.92m0,0v-4.92m0,0v-4.16m0,0V348M164,342.5v-.77m0,0,4.46,2.61,3.38,1.85m0,0V345m-8.92-5.08V362m0,0,2.31,1.39,1.69.92m0,0v.46m17.22,9.53v.47m0-.47,2.15,1.23.77.47m39.52,20.45h.15v.15m-1.85,1.54h0l.16.15m.15-4.77h0m-.15-.15v.15l-.16.16.16.15m-.31-.61-.15-.31m.46-2.15-.31-.16m0,.46-.15-.3m.61.15H225v-.15m-.31,2.46v-2.16m.15,2.16h-.15m.46-2.31h0m-.46.15.15-.15h.31m-.31.31-.15-.16m1.85,5.39v-2.93m-.31,3.08.31-.15m-1.23-5.39h0l-.16-.15m-.31.31.16-.16.15-.15m2,2.46h0m5.84,6.92-3.53-2-2.77-1.69m0,0-.15.15-.16.16m6.77,3.69v2m-.16-2.31h0l.16.15v.16m-.46-.16.15-.15H233m.16.31H233l-.15.15m-5.69-7.38V389.7m-.31,3.84.16-.15h.15m0-3.69H227v-.15l-.16-.16m.31.31-.15.15h-.16M225.18,384h0m-.15,0v.15l-.16.16H225v.15m0,6.46v-.15l-.16-.16m.47-6.3h-.16l-.15.15m9.84,1.23-2.62,1.85-2.46,1.84m0-3.69,2.31-1.54m-4.92,1.54h0m-2.46-2-.15-.15v-.15m.46-2-.31-.16m0,.46-.15-.3v-.16m.61.31-.15-.15m2.15,4.3-.15-.15-.16-.16v-.15m.31.46H227l-.16.16m-1.69-4.31h0m-.46.15.15-.15h.31m-.31.15h-.15m0,2v-2m.15,2.16h-.15v-.16m.62-2h0l-.16-.15m-.31.15H225l.15-.15m4.31,4,.15.15h.15m-2.61,0,.31.16H229l.46-.31m-2.31.15-.15.16h-.16m2.92,3.53-.46.16-.46.15h-1.38l-.62-.31m2.92-3.69v3.69m-2.92-3.53.46.15.62.15h.61l.77-.15.46-.31m-2.61-.61v-3.85m0,3.85-.15.15h-.16m14.46,19.84h-.16M225,376.48l.15-.16M225,381.4h0l-.16-.16m.16-4.76h0l-.16.15.16.15v.16m.31-.31h0m.15.46h0m1.38,3.85v.15m21.37,30.6v.15m0-.15-.15.15h-.15m-18.3-32.9v.15l.15.15m-.46-.15h.16l.15-.15m-.31-.16h0v.31m12,26,3.38,2,2.61,1.54m-6.3-3.38.15-.15h.16M232,380.32h0v.15m-.31,0,.15-.15H232m-5.08,9.07h0m0,0v-3.53m0,0h0m0-.62h-.15l-.15.15v.16l.15.15.15.16m0-4.77v4.15m-1.84-8.3h.31l.15.15m-.46-.15v4.46m.15.15v-.15H225m.15.15h.16v.31m0,0h0V382h-.16m0,0-.15-.15-.16-.16m0,2.16V381.7m.31,2.31H225l-.16-.15m.31.15.16.15v.31m0,0h0v.16l-.16-.16m0,0H225m0,0v6.46m.15,0H225m.15,0h.16v.31m0,0v.15h-.16m0,0-.15-.15h-.16m0,2v-2m.31,2.3-.15-.15-.16-.15m.31.3h.16v.31m0,0V394h-.16m0,0v-.15H225m0,0v4.46m.31.15h-.16l-.15-.15m.61.77v-.31l-.15-.15-.15-.16m.3.62h0m7.23,1.69v2.46m0-2.46v-.15l-.15-.16m-6.31-3.53,3.54,2,2.77,1.53m-6.31-3.53v-.16l-.15-.15m0-3.08v3.08m0-3.08h.15m.31,0h-.31m.31,0v.16l.15-.16m0-3.69v3.69m0-4.15h-.3v.31h.15v.15h.15m21.84,17.22h0v.16m0,.31h-.16m.16,4.45h0l-.16-.15m0-7.38h.16v.15m-1.7-3.22h0l-.15.15m-.15-.62-.31-.3-.15-.31v-.15m.61-4-.15.15v.31l.15.31.15.3m-.15-1.53-.31.15-.3.46v.31l.15.46.31.31m.3-.16h-.15l-.15.16m-4.77-11.23h0l.15.16m6.62,11.22v.16M232,380.47v-.15m9.84,5.69h0l-.16.15m6.92,18.3h.16m0-6.3h0l-.16-.16m-4.3-10.61v.16h.15m4.15,7.38.16.15v.16m0-5.08h0l-.16-.15m-.31.3.16-.15.15-.15m-.15.15.15-.31m-1.69,2.62h0l-.15.15m.15,4.77h-.15m0,0v3.53m0,0h.15m0,0h0l.15.16v.46h-.15m0,0v3.54m.15.3-.15-.15v-.15m.15.3h.16m.15.31h0v-.15l-.15-.16m.15.31v3.08m-.15,0,.15.15v-.15m-.15,0-3.54-2L241,405.23m-.16.15v-.15H241m-.16.15v2.46m7.08,4.15h0v-.15m0,0h0l.15-.15h.15m0,0,.16.15h.15m0-4.3v4.3m-.15-4.46h.15v.16m-.15-.16h0v-.15l-.16-.16m0,0v-.15h.16m0,0,.31.15m-.31-2.3.31.15m-.31-.15h0v-.16h-.16v-.15m0,0h0l.16-.15m0,0,.15.15m0-6.46v6.46M248.4,398h.15m-.15,0v-.15l-.16-.15m0,0v-.16h.16m0,0,.31.16m-.31-2.31.31.15m-.31-.15h0v-.15l-.16-.16m0,0v-.15h.16m0,0h.15v.15m0-4.61-.15-.16h-.16m0,0-.76,1.23-.62,1.08m0,0v4.15m0,0v.16l.15.15v.31h-.15M232,380.63h0v-.16m0,.16v.15h-.16m0,0h-.15v-.31m0,0V380m-1.85-.61v-.31m0,.31h0l-.15.15h-.15m0,0v-.15l-.16-.16v-.15m0,0h0m-4-2.31,2.3,1.23,1.69,1.08m-2.3,2.15-.93-2.61-.76-1.85m21.37,15.84-11.07-6.46L227,381.24M248.24,390l-.76,1.38-.77,1.23m-2.46-4.92h0m0,0v.15h-.16m0,0h0l-.15-.15v-.15m0,0v-.31m-1.85-.77v-.31m0,.31v.15h-.15m0,0-.15-.15-.16-.15m0,0v-.16M232,380.47l5.53,3.23,4.15,2.46m6.92,4.31v4.61m0,0h.16m0-4.61h-.16m-4.3-2.77.15-.31m-.15.31,2.3,1.23,1.69,1.08m0,0,.31-.16m-21.22,6.77h-.15m.15,0,2.31,1.23,1.85,1.08m-4.16-4v1.69m-.15-2.15h0v.3l.15.16m4.16,2.3-2.31-1.38-1.85-.92m4.16,4,.15.3h.15m0-2.15h-.15l-.15.15m0,1.7v-1.7m11.22,8.46h.15v-.15m0-1.69v1.69m0,0,2.31,1.38L247,408m-4.3-4.62v.16l.15.15v.16m4.15,2.46-2.3-1.39-1.85-1.07M247,408l.16.15.15.15m-.31-2,.16-.16.15-.15m-.31,2v-1.69m-18.6-16v3.39m-.77-3.39h.77m7.23-4.15-7.23,4.15m10.15-2.46h-.16l-10,5.85m14.45-3.39h-.15l-10,5.85m-4.31-2.46,2.46,1.38,1.85,1.08m-5.08-2,.46-.31.31-.15m4.31,2.46v4m-.77-3.54.46-.31.31-.15M227,389.39h-.16m19.68,4.46L242.71,396l-9.53,5.54m-2.46-18.14-2.31,1.23m0,0h-.77m.77-2.62v2.62m4.77,18,4.61,2.61,3.07,1.69m5.39-7.38-3.85,2.15m0,0,2.31,1.39,1.84,1.07m-4.15-1.53v-.93m4.15-.92v.46M227,396.77l2.61,1.54,2.15,1.23M227,394.31v2.46m4.76.31L229,395.54l-2-1.23m4.76,5.23v-2.46m15.53,11.53V406m-4.76-.16,2.61,1.54,2.15,1.23m-4.76-5.38v2.61m4.76.16-2.61-1.54-2.15-1.23M232,396.62l-2.46-1.38-1.85-1.08m0,0v-3.85m-.46-.3h0l.46.3m0-5.68-.46-.31m.46.31v-3.08m18.91,10.92v3.23m.31,0h-.31m0,5.53.31.16m-.31-.16v3.85m0,0-2.3-1.39-1.85-1.07m0,0v3.07m-10.45-6v-3.07m56.43,75.49-.47.16m-18.6,2.15.46,1.69,1.08,1.69,1.84,1.39,2.46,1.23,2.77.61,3.07.31,3.08-.16,2.92-.61,2.46-1.08,2-1.38,1.38-1.54.47-1.69v-.46m-1.85-5.23v.46l-.15.46-.31,1.08-.46.77-.31.46-.46.31-.31.15H289l-.61-.15-.62-.46-.15-.46v-.47m0,0v-.46l.15-.46.46-.92.77-.77.31-.31.46-.3.31-.16H291l.31.46.15.31v.15m-3.07-160.36-.16-1.69-.46-1.7-.61-1.69-.77-1.69-1.08-1.69-1.23-1.38-1.23-1.23-1.38-.93m0,0h0m18.29,145.61.16-.15m0-.16h.15m0-.15.15-.15m0-.16h.16m0-.15.15-.16m0-.15h.16m0-.15h.15m0-.16.15-.15m0,0,.16-.15m0,0,.3-.16m0,0,.16-.15m10-5.54h.16v-.15m-.16.15-10,5.54m10.15-5.69h0M301.6,440l5.69-3.08,4.46-2.61m.15,0h.15m-.15,0L301.75,440m10.3-5.69h0m-10.14,5.53,5.53-3.07,4.61-2.46m0-.15h.16m-.16,0-10,5.68m10.15-5.68h0m-10.15,5.68,5.69-3.22,4.46-2.46m.15,0h0V434m0,.16-10.15,5.53M312.36,434h.15m-10.14,5.69,5.53-3.07,4.46-2.62m.15,0h.16m-.16,0-10,5.69M312.67,434h0m-10.15,5.69,5.69-3.23,4.46-2.46m.15,0h0v-.15H313m-.16.15-10,5.54M313,433.83V434m-10.15,5.54,5.69-3.08,4.46-2.61m0,0h.15m-.15,0-10,5.69m10.15-5.69h0m-10,5.69,5.53-3.23,4.46-2.46m.15,0h.16m-.16,0-10,5.69m10.15-5.69h0m-10.15,5.69,10.15-5.69m.15,0h.15m-.15,0-10,5.69m10.14-5.69h0m-10.14,5.69,10.14-5.69m.16,0h0m0,0-10.15,5.69m10.15-5.69h.15m-10.15,5.69,10-5.69m.15,0h.16m-.16,0-10,5.69m10.15-5.69h0m-10,5.69,10-5.69m.15,0h.15m-.15,0-10,5.69m10.14-5.69V434m-10,5.54,10-5.69m11.23,18.29,1.23-.92.77-1.69.3-2.15m0,0-.3-2.62-.77-2.61-1.39-2.61-1.69-2.31-1.84-1.84L319.89,434l-2-.61h-1.7l-1.07.46m-.46,0h.15m-.15,0-10,5.69m10.15-5.69V434m-10.15,5.54,10.15-5.69m.15,0h0l.16.15m-.16-.15-10,5.84M315.13,434h0M305,439.67,315.13,434m.15,0h.16m-.16,0-10,5.69M315.44,434v.16m-10.15,5.53L315.44,434m.15,0h0m0,0-10,5.84m10-5.84.15.16m-10.14,5.68,10-5.84m.31.16h0m0,0-10,5.68m10-5.68.15.15m-10.15,5.53,10-5.68m.3,0v.15m0-.15-10,5.84m10-5.69.16.15M306.21,440l10-5.69m.31,0h0m0,0-10,5.84m10-5.84.16.31m-10.15,5.53,10-5.84m.31.15-10,5.85m10-5.85h0m0,0,.15.31m-10.14,5.54,10-5.85m.31.16L307,440.44m10.15-5.84h0m0,0,.15.3m-10.15,5.54,10-5.84m.3.15-10.14,5.84m10.14-5.84h0m0,0,.16.31m-10.15,5.53,10-5.84m.31.15h0m0,0-10.15,5.85m10.15-5.85.16.31m-10.15,5.54,10-5.85m.31.16h0v.15m0-.15L307.9,440.9m10.15-5.69.15.16m-10.14,5.53,10-5.69m.31.16h0m0,0-10.15,5.68m10.15-5.68.15.3m-10.15,5.54,10-5.84m.3.15-10.14,5.84m10.14-5.84h0m0,0,.16.31m-10.15,5.53,10-5.84m.31.15-10.15,5.85M319,435.67h0v.16m0,0v.3m-10,5.54,10-5.84m.31.15h0m0,0-10.15,5.84M319.28,436v.31m-10,5.53,10-5.84m.31.31h0m0,0L309.44,442m10.15-5.69v.31m-10,5.53,10-5.84m.3.15-10.14,5.84m10.14-5.84h0m0,0v.46m-10,5.54,10-6m-4.3,16,5.84-3.38m-1.54-12.15.31-.15m-10.3,5.84,10-5.69m.31-.15-10.15,5.84m10.15-5.84h0m0,0v.31m-10,5.53,10-5.84m-4.76,15.37,6-3.38m-1.23-11.68h.31m-10.3,5.84,10-5.84m.31,0h0m0,0-5.69,3.23-4.46,2.61m10.15-5.84v.3m-10,5.54,10-5.84m-5.23,14.6,6-3.38m-.77-10.92h.15m-10.14,5.85,10-5.85m.15,0h0m0,0-5.53,3.23-4.46,2.62m10-5.85.16.31m-10.15,5.54,10-5.85m-5.38,14,6-3.54m-.46-10.15H321m-10.15,5.84,10-5.84m-5.69,13.22,6-3.38M311,443.82l9.68-5.69M315,450.59l6.15-3.54m-9.84-2.92,9.23-5.38m-5.69,11.38,6.15-3.39m-9.38-2.3,8.77-5.08m-5.69,10.46,6.15-3.54m-8.92-1.54,8.3-4.92m-5.69,9.54,6.31-3.54m-8.77-.77,8.15-4.76m-5.84,8.76,6.3-3.69m-8.3,0,7.84-4.46m-6,7.69,6.45-3.69m-8.15.77,7.69-4.31m-6.15,6.92,6.46-3.69m-7.69,1.54,7.38-4.31M313.9,448l6.61-3.84M313,446.44l7.22-4.16m-6.46,5.23,6.62-3.84m-7.08,3.07,6.92-4m-6.76,4.45,6.92-4m.61-5.69h0v.15m0,0-5.53,3.23L311,443.36m0,.15,10-5.84m0,0-.15.16-.16.3v.16h.16m0,0-5.38,3.07-4.31,2.31m.15.15,9.54-5.53m0,0-.31.15v.46m0,0-5.07,2.92-4,2.31m.15,0,8.92-5.23m0,0-.15.16v.3h.15m0,0-4.92,2.77-3.84,2.31m.15,0,8.61-5.08m0,0-.31.46.16.16m0,0-4.62,2.61-3.69,2.15m0,0,8.31-4.76m0,0-.16.31.16.15m0,0-4.62,2.61-3.53,2m.15.16,8-4.77m0,0-.16.31.16.15m0,0-4.46,2.61-3.39,1.85m.16.15,7.69-4.61m0,0-.16.46.16.16m0,0-4.31,2.3-3.23,2m0,0,7.54-4.3m0,0-.16.3.16.16m0,0-4.16,2.3L313,446.13m.15.15,7.23-4.3m0,0-.16.3.16.16m0,0-4,2.3-3.08,1.7m0,.15,7.08-4.15m0,0-.16.31.16.15m0,0-3.85,2.15-3.07,1.85m.15,0,6.77-4m0,0v.31l.15.15m0,0-3.84,2.15-3.08,1.69m.15.16,6.77-4m0,0-.15.31.15.15m0,0L316.82,446l-2.92,1.7m0,0,6.61-3.85m0,0v.31l.15.15m0,0L314.05,448m.16.16,6.45-3.85m0,0-.15.31.15.15m0,0-6.45,3.69m.15,0,6.3-3.69m0,0v.31l.16.16m0,0-6.31,3.53m0,.16,6.31-3.69m0,0-.16.3.16.16m0,0-6.15,3.53m0,0,6.15-3.53m0,0v.3l.15.16m0,0-6.15,3.38m0,.15,6.15-3.53m0,0-.15.31.15.15m0,0L315,450m0,.16,6-3.54m0,0v.15l.15.16m0,0-3.38,2-2.61,1.38m0,.15,6-3.53m0,0v.46m0,0-3.22,1.84-2.62,1.54m0,.15,5.84-3.53m0,0v.31l.16.15m0,0-3.38,1.84-2.62,1.39m.16.15,5.84-3.38m0,0v.46m0,0-3.23,1.85-2.61,1.38m0,.15,5.84-3.38m0,0v.15l.15.16m0,0-3.23,1.84-2.61,1.39m0,.15,5.84-3.38m0,0v.46m0,0-3.23,1.84-2.61,1.39m.15.15,5.69-3.38m0,0v.31l.16.15m0,0-3.23,1.69-2.62,1.54m0,0,5.85-3.23m0,0-.16.15.16.16m0,0-3.23,1.84-2.62,1.39m.16.15,3.23-1.84,2.46-1.54m0,0v.46m0,0L318.36,452l-2.46,1.54m0,0,3.23-1.85,2.46-1.38m0,0v.15l.15.16m0,0-3.23,1.84-2.61,1.39m0,.15,3.23-1.85,2.61-1.53m0,0-.15.3.15.16m0,0-3.23,1.69-2.61,1.38m0,.16,3.38-1.85,2.46-1.38m0,0v.31m0,0-3.23,1.84-2.46,1.38m0,.16,3.23-1.85,2.46-1.53m0,0v.3h.15m0,0-3.38,1.85-2.46,1.38m0,.16,3.23-1.85,2.61-1.54m0,0-.15.31.15.15m0,0-3.38,1.7-2.46,1.38m0,.15,3.23-1.84,2.61-1.39m0,0-.15.16.15.15m0,0-5.84,3.23m0,.15,3.23-2,2.61-1.39m0,0-.15.16.15.15m0,0L316.05,456m0,.15,3.23-1.84,2.61-1.54m0,0v.31m0,0-6,3.23m0,.15,3.38-1.85,2.61-1.53m0,0v.3m0,0-6,3.23m0,.16,3.38-1.85,2.61-1.54m0,0v.31m0,0-6,3.23m0,.15,3.38-1.84,2.61-1.54m0,0V454m0,0-6,3.23m-.16.15,3.54-1.84,2.61-1.54m0,0v.15m0,0-6.15,3.39m0,.15,3.39-2,2.76-1.54m0,0v.31m0,0-6.15,3.38m-.15.16,3.54-2,2.76-1.54m0,0v.31m0,0-6.3,3.38m0,.15,6.3-3.53m0,0-.15.15h.15m0,0-6.45,3.54m0,.15,6.45-3.69m0,0-.15.16h.15m0,0-6.45,3.69m-.16,0,6.61-3.69m0,0-.15.15.15.15m0,0-6.61,3.54m0,.15,6.61-3.69m0,0h-.15l.15.16m0,0-6.76,3.69m0,0,6.76-3.69m0,0h-.15l.15.15m0,0L315,459.35m6.92-3.69h0m0,0-7.07,4m0,0,4-2.15,3.07-1.85m0,0-.15.15h.15m0,0-7.22,4m0,.16,4-2.31,3.23-1.85m0,0-.15.16h.15m0,0-7.38,4m0,.15,4.15-2.31,3.23-1.84m0,0h0m0,0-7.53,4.3m-.15,0,4.3-2.46,3.38-1.84m0,0v.15l.16-.15m0,0-7.84,4.46m-.16,0,4.46-2.46,3.54-2m0,0-.16.15.16-.15m0,0-8.15,4.61m0,0,4.61-2.61,3.54-2m0,0v.15l.15-.15m0,0-8.46,4.76m-.15,0,4.77-2.61L322.2,456m0,0h0m0,0-8.61,4.92m-.15,0,.3-.16M321,437.52l1.85,2.46,1.69,2.77,1.07,2.76.62,2.77-.15,2.61-.47,2.16-1.23,1.53-.3.31m-15.53-13.53v.16m0,0-.16-.31m-.15-.16h.15v.16m-.15-.16v.16m0,0-.15-.31m-.16,0h.16m-.16,0v.15m0,0-.15-.3m-.16,0h.16m-.16,0v.15m0,0-.15-.31m-.15,0h.15m-.15,0v.16m0,0-.16-.31m-.15,0h.15m-.15,0v.15m0,0-.15-.3m0,0h0m0,0-.16.15m0,0-.15-.31m0,0h0m0,0-.16.16m0,0-.15-.31m0,0h0m0,0-.15.15m0,0-.16-.31m0,0h0m0,0-.15.31m0,0-.15-.31m0,0h0m0,0-.16.16m0,0-.15-.31m0,0h0m0,0-.16.31m0,0-.15-.31m0,0h0m0,0v.15m0,0-.31-.3m0,0h0m0,0v.3m0,0-.15-.3m-.15,0h.15m-.15,0v.3m0,0-.16-.3m-.15,0h.15m-.15,0v.3m0,0-.16-.3m-.15,0h.15m-.15,0v.3m0,0-.15-.3m0,0h0m0,0v.3m0,0-.31-.3m0,0h0m0,0v.3m0,0-.15-.3m-.16,0h.16m-.16,0v.3m0,0-.15-.3m0,0h0m0,0v.3m0,0-.31-.15m0,0h0m0,0V440m0,0-.15-.31m-.16,0h.16m-.16,0,.16.31m0,0-.31-.16m0,0h0m0,0v.31m0,0-.15-.31m-.16.16h.16v-.16m-.16.16.16.31m0,0-.31-.31m0,0h0m0,0v.31m0,0-.16-.16m-.15,0h.15m-.15,0,.15.31m0,0-.3-.15m0,0h0m0,0,.15.3m0,0-.31-.15m0,0h0m0,0v.31m0,0-.15-.16m0,0h0m0,0v.31m0,0-.15-.15m-.16,0h.16m-.16,0,.16.3m0,0-.16-.15m-.15.15h0l.15-.15m-.15.15.15.31m0,0-.15-.15m-.16,0h.16m-.16,0,.16.31m0,0-.16-.16m-.15,0h.15m-.15,0,.15.46m0,0-.15-.15m-.15,0h.15m-.15,0,.15.31m0,0-.15-.16m0,.16v-.16m0,.16h0m-.16.15h0m12,19.22h0m.15,0h-.15m.15,0h0m0-.15.15.15m0,0h0m0,0v-.15m.16,0v.15m.15-.15h0v.15h-.15m.15-.15V461m0,0,.15.16m.16,0h-.16m.16,0-.16-.31m0,0,.31.31m0,0h0m0,0v-.31m0,0,.16.15m.15,0H313m.15,0-.15-.31m0,0,.3.31m0-.15h0V461m0-.15v-.16m0,0,.16.16m.15,0h-.15m.15,0-.15-.31m0,0,.15.15m.15,0h-.15m.15,0v-.3m0,0,.16.15m0,0h0m0,0v-.31m0,0,.15.16m.16,0h-.16m.16,0-.16-.31m0,0,.16.15m.15,0h-.15m.15,0-.15-.3m0,0,.3.15m0-.15h0v.15m0-.15-.15-.16m0,0,.31.16m0-.16h0V460m0-.16-.16-.31m0,0,.31.16m0,0h0m0,0-.15-.31m0,0,.3.15m0-.15h0v.15m0-.15-.15-.15m0,0h.31m0,0h0m0,0-.16-.31m0,0,.31.15m0-.15h0V459m0-.15-.15-.15m0,0h.15m.16,0h-.16m.16,0-.16-.31m0,0,.16.15m0-.15h0v.15m0-.15-.16-.31m0,0,.31.15m0-.15h0v.15m0-.15-.15-.15m0,0h.15m.15-.16h-.15V458m.15-.16-.15-.15m0,0h.15m0-.15h0v.15m0-.15-.15-.16m0,0h.15m.16-.15h-.16v.15m.16-.15-.16-.16m0,0h.16m0-.15h0V457m0-.15-.16-.15m0,0h.16m0-.16h0v.16m0-.16-.16-.15m0,0h.16m0-.15h0v.15m0-.15-.16-.16m0,0h.31m0-.15h0v.15m0-.15-.15-.16m0,0h.15m0-.15h0v.15m0-.15-.15-.31m0,0h.15m0-.15v.15m0-.15-.15-.15m0,0h.15m0-.16h0v.16m0-.16-.15-.15m0,0h.15m0-.16h0v.16m0-.16-.31-.3m0,0h.16m0-.16h0v.16m0-.16-.16-.15m0,0h.16m0-.15h0V454m0-.15-.16-.16m0,0,.16-.15m0,0h0m0,0-.16-.31m0,0h.16m-.16-.15h0v.15h.16m-.16-.15-.15-.16m0,0,.15-.15m0,0h0m0,0-.15-.31m0,0h.15m-.15-.15h0v.15h.15m-.15-.15-.15-.16m0,0,.15-.15m0-.15V452m0-.15-.31-.16m0,0h.16m0-.15h0v.15m0-.15-.16-.15m0,0,.16-.16m-.16-.15h0v.15h.16m-.16-.15-.15-.16m0,0h.15m0-.15h0v.15m0-.15-.31-.15m0,0,.16-.16m0-.15h0v.15m0-.15-.31-.15m0,0H315m0-.16h0v.16m0-.16-.3-.15m0,0,.15-.16m0-.15h0v.15m0-.15-.31-.15m0,0,.16-.16m0,0h0m0,0-.31-.15m0,0,.15-.15m0-.16h0v.16m0-.16-.3-.15m0,0,.15-.16m-.15,0h.15m-.15,0-.16-.15m0,0,.16-.15m-.16-.16h0v.16h.16m-.16-.16h-.15m0,0v-.3m0,0h0m0,0-.16-.16m0,0v-.15m-.15-.16h.15v.16m-.15-.16h-.15m0,0,.15-.3m-.15,0h.15m-.15,0-.16-.16m0,0v-.15m0-.15h0v.15m0-.15H313m0,0,.15-.16m-.15-.15h0l.15.15m-.15-.15h-.16m0,0v-.31m0,0h0m0,0-.31-.15m0,0,.16-.16m-.16-.15h0v.15h.16m-.16-.15h-.15m0,0v-.15m-.15-.16h.15v.16m-.15-.16h-.16m0,0v-.31m0,0h0m0,0h-.15m0,0v-.3m-.15,0h.15m-.15,0h-.16m0,0v-.31m-.15,0h.15m-.15,0h-.16m0,0v-.31m-.15-.15.15.15m-.15-.15-.15.15m0,0v-.31m0-.15v.15m0-.15-.16.15m0,0-.15-.3m0,0h0m0,0h-.15m0,0v-.31m-.16,0h.16m-.16,0h-.15m0,0v-.31m-.16,0h.16m-.16,0h-.15m0,0v-.15m-.15-.16h.15v.16m-.15-.16-.16.16m0,0v-.31m-.15-.15h0v.15h.15m-.15-.15-.15.15m0,0v-.31m-.16,0h.16m-.16,0L309,442m0,0v-.31m-.16-.15H309v.15m-.16-.15-.15.15m0,0v-.31m-.15,0h.15m4.77,19.07h.15l.77-.77.77-1.08.46-1.23.15-1.38v-1.69m0,0-.15-1.69-.46-1.85-.77-1.84-.92-1.7-1.08-1.69-1.23-1.38-1.23-1.38-1.38-1.08-1.39-.77-1.38-.46-1.38-.15h-1.23l-.93.46m-9.07,12.76.92,1.07,1.7,2.46,1.23,2.62.76,2.61.31,2.62m-4.15,5.38.92.15,1.69-.46,1.23-1.23.77-1.69.31-2.15m0,0-.15-2.62-.77-2.61-1.23-2.77L295,454.43l-1.85-2M288.68,469l-.3.61-.47.93-.15.92.15.77.47.46m2.61-4.61-.62-.16m1.23,1.54-.15.77-.46.92-.46.77-.77.46-.62.31-.61-.16-.31-.46-.15-.61.15-.92.31-.77.61-.77.62-.62.77-.15H291l.46.46.15.77m1.54-14.76,1.54.92m0,14.15-1.38.92m1.38-15.07v14.15m0-14.15-1.54.92M188.43,305.75l.62.31,1.38,1.38,1.08,1.69.61,2,.16,1.23m-1.08,2.46.46-.46.62-1.38-.16-1.85-.61-1.84-1.08-1.85-1.53-1.38-1.39-.77h-1.38l-.46.15m-.77.46.31-.15h1.38l1.54.77m0,0,1.38,1.38,1.08,1.85.77,1.84v1.85l-.47,1.38-.61.46M188,306.52l-1.38-.77h-1.38l-.93.77-.61,1.38.15,1.69.62,2,1.07,1.69,1.54,1.39,1.38.77h1.39l.92-.62.62-1.38-.16-1.85-.61-1.84-1.08-1.85L188,306.52m28.29,15.22.62.46,1.38,1.39,1.08,1.84.61,2v.92m-1.07,2.46.46-.31.61-1.38v-1.69l-.61-2-1.08-1.84-1.38-1.39-1.54-.92-1.38-.16-.62.31m-.77.46.62-.15,1.38.15,1.39.77,1.53,1.54.93,1.85.61,1.84v1.85l-.46,1.23m0,0-.61.3m.46-.3.61-1.23v-1.85l-.61-1.84-1.08-1.85L216,322.66l-1.54-.77-1.23-.15-1.08.62-.61,1.23v1.69l.61,2,1.08,1.84,1.38,1.38,1.39.93,1.38.15,1.08-.61m-85.49-57.36.61.47,1.39,1.38,1.07,1.69.62,2,.15,1.08m-1.07,2.61.61-.62.46-1.38-.15-1.69-.62-2-1.07-1.69-1.54-1.54-1.38-.77h-1.39l-.46.16m-.77.61.31-.15h1.38l1.54.77m0,0,1.38,1.38,1.08,1.69.77,2v1.85l-.46,1.23-.62.61m-2.15-8.76-1.54-.77H129.7l-.92.61-.46,1.39v1.84l.61,1.85,1.23,1.84,1.38,1.39,1.39.76h1.38l1.08-.76.46-1.23-.15-1.85-.62-1.84L134,275.92l-1.38-1.38m28.14,15.22.46.31,1.38,1.38,1.08,1.69.77,2v1.08m-1.08,2.61.62-.61.46-1.23v-1.85l-.77-2-1.08-1.69-1.38-1.38-1.54-.77-1.38-.16-.31.31m-.92.46.46-.15h1.38l1.39.77m0,0,1.53,1.38,1.08,1.85.62,1.84.15,1.85-.62,1.38-.46.46m-2.3-8.76-1.54-.77h-1.23l-1.08.77-.46,1.23v1.84l.77,1.85,1.08,1.84,1.38,1.39,1.54.77h1.38l.92-.62.47-1.38V295.6l-.77-1.84-1.08-1.85-1.38-1.38m81,55.66L240.25,345m0,0-.92-1.23m0,0-2,1.23m2-2.46v1.23m0-1.54v.31m2,3.84-2,1.08m0-5.23v.31m0,0v.61l.15.31.15.31.16.3.15.47.16.3.15.16m0,0,.31.3.3.31.16.16.31.15m-2-3.69,2,2.46m0,2.61v-2.61m0,2.61-2,.16m0,0-2-2.46m0-2.62V345m2-2.77-2,.15m9.53,4.92H247l.93-1.07.15-1.69m0,0-.15-1.85-.93-2-1.23-1.84-1.53-1.39-1.54-.61h-1.38l-.47.15m-1.07,12.46.31.15,1.53.46,1.23-.46.93-1.08.15-1.53m0,0-.15-2-.93-2-1.23-1.69-1.53-1.39-1.54-.77h-1.39l-1.07.77-.46,1.39-.16.77M243,347l-.16-1.85-.92-1.84-1.23-1.7-1.38-1.07-1.54-.62-1.23.31-.77.92-.31,1.54.31,1.85.77,1.84,1.23,1.69,1.54,1.08,1.38.46,1.23-.15.92-.93L243,347M102.64,266.08,101.56,265m0,0-.92-1.23m0,0-2,1.08m2-2.46v1.38m0-1.69v.31m2,3.84-2,1.08m0-5.23v.31m0,0V263l.15.3.16.46.15.31.15.31.16.31.15.3m0,0,.31.16.31.31.15.15.31.15m-2-3.69,2,2.46m0,2.62v-2.62m0,2.62-2,.15m0,0-2-2.46m0-2.61v2.61m2-2.77-2,.16m9.53,5.07.16-.15.92-1.08.15-1.54m0,0-.15-2-.92-2-1.23-1.85-1.54-1.23L104,256.7h-1.38l-.46.16m-1.08,12.45.31.31,1.54.3,1.23-.3.92-1.08.15-1.69m0,0L105.1,265l-.92-2L103,261.16l-1.54-1.38L99.87,259H98.49l-1.08.77L97,261.16l-.15.92m7.53,4.77-.15-1.85-.93-1.84L102,261.47l-1.38-1.08-1.54-.46-1.23.15-.77.93-.3,1.53.3,1.85.77,1.84,1.23,1.7,1.54,1.23,1.38.46,1.23-.31.93-.92.15-1.54M412.92,454.74v-2.15m0,52.89v-2.15M622.49,383.7v.77m0-51.51v.77M416,452.89v-.77m0,51.51v-.77M200,39.14,203,37.6,206,37l2.77.15,2.31.77M9.62,310.82h0l-.16-.15-.15-.15v-.16l-.15-.31M25,140.15l175-101m0,0L203,40.83M9.16,310.05V167.37m0,142.68,3.07,1.85M25,140.15l3.08,1.7M9.16,167.37l.3-3.69.93-4,1.53-4,1.85-3.84,2.46-3.69,2.61-3.23,3.08-2.61L25,140.15M9.16,167.37l3.07,1.69m.46,143.61h0l-.15-.16-.16-.15v-.31l-.15-.15M203,40.83l3.08-1.38,2.92-.62h2.76l2.31.92m-186,102.1,175-101M12.23,169.06l.31-3.69.92-3.84,1.54-4,1.84-3.84L19.3,150l2.62-3.23L25,144l3.08-2.15m-15.84,170V169.06M558.06,365.71h0l-.31-.3-.3-.31m47-123.62-1.7-2.77m0,0-.15-.46-.31-.31-.3-.3-.31-.31-.31-.31-.31-.15-.3-.16-.47-.15m4.31,1.08-1.85,1.07m1.08,6,.31-.16.31-.3.3-.46v-.47l.16-.46-.16-.46-.15-.46-.15-.46m0,0,1.69-1.08m-14.46-7.22-.46-.16H591l-.47-.15h-.3l-.31.15h-.46l-.31.16-.31.15m11.53,3.23-8.61-3.38m1.7-1.08-1.7,1.08m8.61,3.38,1.85-1.08M557.45,365.1l-11.38-16.3m11.38,16.3,2.46,1.38m28.9-133.15-31.21,18m31.21-18,1.85-1.08m-52.12,14.61.15-.61.15-.47.16-.46.3-.46.31-.46.46-.46.31-.31.46-.31m0,0,1.69-.92m-10,30.91L533,273l.31-.31.46-.46.31-.31.15-.46.31-.61.15-.46.15-.62m0,0,3.7-22.91m1.69-.92-1.69.92m-3.7,22.91,1.7-1.08M410.76,451.36h0l-.46-.31-.15-.46-.31-.62v-.61M468.12,320.2l-1.7-2.77m0,0-.15-.46-.31-.3-.31-.31-.3-.31-.31-.31-.31-.15-.31-.15-.3-.16m4.15,1.08-1.85,1.07m1.08,6,.46-.15.16-.31.3-.46v-.46l.16-.46-.16-.47-.15-.46-.15-.46m0,0,1.69-1.07m-14.46-7.23-.46-.15h-.31l-.46-.16h-.3l-.31.16h-.46l-.31.15-.31.15m11.69,3.23-8.77-3.38m8.77,3.38,1.69-1.07M457,310.82l-1.69,1.08m-2.92.15-31.21,18m31.21-18,1.85-1.07m-52.13,14.6.16-.46.15-.61.16-.46.3-.46.31-.47.46-.46.31-.3.46-.31m0,0,1.69-.93m3.69,50.74v77.5m0,0,2.46,1.38m71.34-40.28-.46.77-.3.76-.47.77-.46.62-.61.61-.62.62-.46.46-.61.46M495,380.94l-11.38,29.52m16.76-36.14-.77.47-.76.76-.77.62-.77.92-.77.92-.46.93-.62.92-.46,1.08m48-31.22-42.59,24.6m48-24.14-.47-.46-.46-.46-.61-.31-.77-.15h-.62l-.76.15-.77.31-.93.46m16.92,16.76-11.53-16.3m15.52,16.61-.61.31-.62.31H561l-.46-.31-.31-.31-.3-.31m4,.31L628,329.74m0,0,.62-.31.61-.62.46-.61.46-.77.46-.77.31-.77.16-.77v-.61m0,0V247M412.3,373.4v77.34m0,0v.62l.31.61.15.46.46.31.47.15h1.07l.62-.3m0,0,64.27-37.06M631.1,247,412.3,373.4M630,243.48l.31.46.15.46.15.46.16.46.15.46.16.47V247M409.84,371.86h0v-.46l-.15-.15v-.15l-.16-.16v-.15m2.77,2.61-2.46-1.54m2.46,1.54v-.92l-.15-.46-.16-.46-.15-.46-.15-.47-.16-.3-.3-.46m-11.84-16.61-.31-.62-.15-.46-.31-.61-.16-.62v-.61l-.15-.62v-.61l.15-.62m0,0,3.69-22.91m-3.69,22.91,1.7-.92m3.69-22.91-1.7.92m-2.76,27.68,10.14,17.53m-8.45-18.45-1.69.92m10.14,17.53,1.7-.92m148.83-99.79,45.67-26.29m-45.67,26.29-.46.15-.31.16-.46-.16h-.46l-.46-.31-.31-.3-.46-.31-.31-.46m-1.54-2.77,1.54,2.77m-1.54-2.77-.15-.31-.15-.46-.16-.31-.15-.46v-1.69m1.54-9.22-1.54,9.22m1.54-9.22v-.31l.15-.46.15-.31.16-.31.15-.3.31-.16.31-.31.3-.15m32.91-19.07-32.91,19.07m32.91-19.07.31-.15h.3l.31-.15h1.08l.3.15h.47m8.76,3.38-8.76-3.38m8.76,3.38.31.16.3.15.47.31.3.15.31.31.31.31.15.46.31.31m1.54,2.76-1.54-2.76m1.54,2.76.3.46v.47l.16.46v.61l-.16.31-.15.46-.31.31-.3.31m-182,105,45.67-26.29M423.68,348.8l-.31.15-.46.16-.46-.16H422l-.46-.3-.31-.31-.46-.31-.31-.46m-1.54-2.77,1.54,2.77m-1.54-2.77-.15-.3-.15-.47-.16-.3-.15-.46v-1.7m1.54-9.22-1.54,9.22m1.54-9.22V332l.15-.46.15-.31.16-.3.3-.31.16-.16.31-.3.3-.16M454.28,311,421.37,330M454.28,311l.3-.16h.31l.31-.15h1.08l.46.15h.3m8.77,3.39L457,310.82m8.77,3.39.31.15.46.15.31.31.3.31.31.15.31.31.15.46.31.31m1.54,2.77-1.54-2.77m1.54,2.77.3.46.16.46v1.07l-.16.31-.15.46-.31.31-.3.31m121-107.78L542.53,242.4m0,0-.3.16-.47.46-.3.3-.46.47-.16.46-.31.46-.15.61-.15.62m-3.69,22.75,3.69-22.75m-3.69,22.75-.16.62-.15.61-.16.47-.3.46-.31.46-.31.31-.46.46-.46.3m-50.12,28.91,50.12-28.91m-50.12,28.91-.47.15-.46.16-.46.15H481l-.61-.15-.47-.16m-21.68-8.14L480,301.44m-21.68-8.14-.61-.31h-.46l-.62-.16H456l-.46.16h-.46l-.62.31-.46.15m0,0-47.82,27.67m0,0-.31.16-.46.46-.3.31-.31.46-.31.46-.31.46-.15.62-.15.61m0,0-3.69,22.91m0,0v1.69l.15.62.15.61.16.62.15.61.31.62m0,0,10.15,17.53M630,243.48,411.23,369.87M630,243.48,620,226m0,0-.47-.46-.3-.62-.46-.46-.47-.46-.46-.31-.46-.3-.61-.31-.46-.31m0,0-21.68-8.15m0,0-.62-.31h-.61l-.47-.15h-.61l-.46.15h-.62l-.46.31-.46.16M231.49.7l.15-.15M227.8,2.7l3.69-2m1.84,2.92L231.49.7m-6,3.38.46-.31.31-.15.46-.15.31-.31.3-.15h.16l.15-.16.16-.15m0,0,1.69,3.07m-82,43.36.46-.31.46-.3.61-.31.46-.31.62-.31.46-.3.62-.31.61-.31m25.83-14.91L225.49,4.08m1.69,3.08-1.69-3.08m-52,30,.46-.3.62-.31.61-.31.46-.31.62-.3.46-.31.46-.31.46-.15m0,0,1.85,2.92m-6-.62L151.84,46.67m0,0,1.69,3.08m21.68-12.61-1.69-3.08M1.47,215h0l-.31-.3-.31-.47L.7,213.8.55,213m147-163.9L97.41,78m52-26-1.84-2.92M95.1,79.42l.16-.15.15-.16h.31l.15-.15.46-.31.31-.15.46-.31.31-.15m0,0L99.26,81M95.1,79.42l-3.69,2m5.54.92L95.1,79.42m-6,3.38.46-.15.46-.31.31-.15.31-.31.3-.15h.16l.15-.16.15-.15m0,0,1.7,3.08M.55,213V135.7M.55,213,3,214.57M221.8,10.85V44.21M3,214.57V137.08m0,77.49.15.62.15.46.31.46.31.31.46.31H5l.47-.16.61-.31m3.08-1.69-3.08,1.69M3,137.08,221.8,10.85m0,0v-.16l.15-.15v-.31h.16v-.15h.15M3.31,136.31v.15l-.15.16v.15l-.15.16v.15m-1.39-3.69-.15.15-.31.16L1,134l-.16.31-.15.31v.31l-.15.3v.47m0,0L3,137.08m-1.39-3.69,10.15-5.84m-8.46,8.76-1.69-2.92m10.15-5.84.31-.31.46-.15.31-.31.46-.16.46-.3.61-.31.46-.31.62-.31m-2,5.08-1.69-2.92m29.52-17.07L89.11,82.8m1.69,3.08L89.11,82.8m-52,30,.46-.31.62-.31.61-.31.46-.3.62-.31.46-.31.46-.31.46-.15m0,0,1.85,2.92m-27.68,12,21.68-12.6m-21.68,12.6,1.69,3.08m21.68-12.61-1.69-3.07M77.27,93.72l1.54-.92m0,0h0l-.16.15H78.5l-.15.16-.16.15m0,0-1.69.92m0,0-.31.16-.3.15-.31.15-.46.31-.46.31-.47.15-.46.31-.3.15m0,0L27.76,122.32m0,0-.31.15-.31.16-.15.15h0l.31-.15m0,0,1.54-.93m0,0,.3-.15.16-.15.3-.16.31-.15.31-.31.31-.15.46-.16.31-.3m0,0,8.76-4.92m0,0,.31-.31.46-.15.31-.31.3-.16.47-.15.3-.31.31-.15.31-.15m0,0,32.9-18.92m0,0,.31-.3.31-.16h.15l.31-.15.15-.16h.16l.15-.15M213.65,15l1.54-.92m0,0h0l-.16.15h-.15l-.15.15-.16.16m0,0-1.69.92m0,0-.31.15-.3.16-.31.15-.46.31-.46.31-.47.15-.46.31-.3.15m0,0L164.14,43.6m0,0-.31.15-.3.15-.16.16h-.15l.15-.16h.31m0,0,1.54-.92m0,0,.15-.15.31-.16.31-.15.3-.15.31-.31.31-.15.46-.16.31-.31m0,0,8.76-4.92m0,0,.31-.3.46-.16.31-.3.31-.16.46-.15.3-.31.31-.15.31-.16m0,0,32.9-18.91m0,0,.31-.31.31-.15h.15l.31-.15.15-.16.16-.15h.15M97,82.34,93.11,84.5m0,0v.15H93l-.31.15-.3.16-.31.15-.31.31-.46.15-.46.31M43.14,113.4,90.8,85.88M43.14,113.4l-.47.31-.61.31-.46.3-.62.31-.46.31-.61.31-.46.3-.62.31m0,0L17.15,128.47m0,0-.46.31-.62.3-.46.16-.46.31-.46.3-.46.31-.46.15-.31.16M3.31,136.31l10.15-5.84M222.26,10.08,3.31,136.31M232.25,4.24l-10,5.84m10-5.84.31-.16.31-.15.15-.16.16-.15h.15m0,0-3.84,2.15m0,0v.16h-.31l-.15.15-.31.15-.31.16-.31.31-.46.15-.46.31M179.52,34.68,227.18,7.16M179.52,34.68l-.62.31-.46.3-.46.31-.62.31-.46.31-.61.3-.46.31-.62.31m0,0L153.53,49.75m0,0-.61.3-.46.31-.62.31-.46.31-.62.3-.46.31-.46.31-.46.15m0,0L99.26,81m0,0-.47.31-.46.3-.3.16-.31.15-.31.16-.15.15-.31.15M3,327.74v.3l.15.16v.31l.15.15v.15M.55,326.35v.46l.15.31v.46l.15.46.16.47.15.46.31.46.15.46m24.14,37.67v.15l.15.16.16.15v.15h.15l.16.16.15.15m-2.46.16.15.46.31.3.31.47.31.3.3.31.46.31.31.31.31.15m-.77-3.69-1.69,1.08M1.62,329.89l1.69-1.08m20.76,39.83L1.62,329.89m24.14,37.67L3.31,328.81m5.85-62.88-5.54,3.23M.55,326.35V274.54M3,327.74.55,326.35m0-51.81.15-.77L.85,273l.31-.77.31-.77.46-.77.61-.61.47-.46.61-.46M3,275.92.55,274.54m3.07-5.38,2.46,1.38m3.08-1.85-3.08,1.85m0,0-.61.46-.47.46-.61.62-.46.77-.31.76-.31.77-.15.77-.15.77m0,51.82V275.92M625.56,382.63l.62-.31.61-.15.46.15.46.15M26.53,371.25,386.32,579M26.53,368.48v2.77m0-2.77L386.32,576.21m0,0h.3v.15h.47v-.15m-.77,0V579m0,0,.46.31h.31l.3.15h.31l.31.16.31-.16h.3l.31-.15M607.72,452.89,388.93,579.28M607.72,452.89,630,440M387.09,576.21l1.84,3.07m22.3-12.92-22.3,12.92m20.6-16-22.44,12.92M630,440,411.23,566.36M631.1,437.67v.77l-.16.31v.46l-.15.15-.31.31-.15.15L630,440M409.53,563.29h.16v-.15l.15-.16v-.31m1.39,3.69-1.7-3.07m1.7,3.07.3-.15.16-.15.15-.31.15-.31.16-.31.15-.3v-.77m.62-58.58L625.56,382.63M628,384l-2.46-1.38M409.84,510.71v52m0,0,2.46,1.39M631.1,437.67V385.86m0,0v-.62l-.16-.61-.31-.47-.46-.3-.46-.16h-.46l-.61.16L628,384M415.38,506.86,628,384M412.3,512.09v52M631.1,437.67,412.3,564.06m-2.46-53.35.16-.77.15-.77.31-.77.3-.77.47-.61.61-.62.46-.61.62-.31m-.62,6.61-2.46-1.38m5.54-3.85-.62.31-.46.61-.61.62-.47.77-.3.77-.31.77-.15.76-.16.62m.62-6.61,2.46,1.38m210.18-175,.62-.31h1.07l.46.15m-88.25,78.42-.16.31-.15.3-.15.47-.16.3-.15.31m22.75-42.9,64.12-37.05m2.46,1.38-2.46-1.38M557.29,370h1.23l.93-.15.92-.47,1.07-.46m0,0,2.46,1.39m-25.21,41.51-15.07-1.23m15.07,1.23,2.46,1.54m-17.84,2.46.16.77.77,1.38,1.07.92m-1.69-8.3-.15.77m.15-.77,2.46,1.38m10-11.68h0l-1.69-.46-2,.31M525.62,408l1.69,1.07m4.15,11.53-1.54.93-2.3.77-2.15.15-.47-.15m7.38-2.31,2.31,1.54M521.62,410.3h-1.38m1.38,0,2.46,1.54m14.76-13.38.31.31.92,1.85.46,2.46v1.84m.16,1.08,2.3,1.38m-25.52,5.08-.61.61m3.22-2.46,1.7.92m-1.39-7.38v2.62m.16.46,2.3,1.38m-18.6,14L503,424.29m24-38,1.69.92m-20.14,46.59-.3.31-2.46,1.07-.77.31m11.84-22.45.76,2.31v2.76m-.76-5.07,2.46,1.38M515.63,416l1.69,1.08m23.21-65.19.47-.31.46-.16h1.07l.31.16M503,424.29l-1.54-.15m1.54.15,2.46,1.39m16.91-23.22-2,1.54m8.15-19.84.46,1.23.16,2.62v.61m-8.61,15.53,2.3,1.39m-9.68,8-.62-.31-1.54-.15-1.53.31m-6.92,8.3,1.53.92m16.46-21.06,2.3,1.23m-6.61,8.92,2,1.23m-6.46-13.38.16.62.92,1.69,1.07.77M516.55,388l1.69.92m-.15,16.45-2.31.77-2.15-.15m4.46-.62,2.46,1.39m-43.36,10.91.92-.77,1.08-.76.92-.93.15-.15m60.27-63.19-42.59,24.6M543,353.26l-2.46-1.38m-42.89,24.75.3-.15m0,0,2.46,1.38M410.76,502.09h0l-.46-.3-.15-.46-.31-.62v-.61m3.08-45.36,64.27-37.06m2.46,1.39-2.46-1.39M409.84,460V500.1m0,0,2.46,1.38M409.84,460v-.62l.31-.77.15-.77.46-.77.47-.76.46-.62.61-.61.62-.31m0,0,2.46,1.38m-3.08,5.38L409.84,460m108.4-71V386m2.31,18.14-2,.46-1.85-.3-1.38-1.08-.92-1.69-.31-2.15.31-2.62.76-2.77,1.39-2.61,1.69-2.46m2.31-4.77v20m2.3-21.37-.31.15-.3.16-.16.15-.3.16-.31.15-.31.15-.31.16-.3.3m2.3,18.61v-20m5.84,4.46.47,1.69.15,1.85-.31,2.15-.61,2.31-1.08,2.15-1.23,2.15-1.54,1.69-1.69,1.54m2.31-10.92,3.53-4.61m-3.53,1.38v3.23m4.3-8.76-4.3,5.53m-2.31,16.92,2.31-2,2.15-2.46,1.69-2.77,1.39-2.92.92-3.08.31-2.92-.16-2.61-.77-2-1.23-1.69m-6.61,25.52v-3.07m2.31,3.23-2.31-.16M543,407.38v-2.92l-.46-2.46-.92-1.84-1.54-1.23-2-.62-2.15.15-2.31.93-2.46,1.69-2.3,2.15-2,2.61-1.69,2.93m15.53-1.7,2.3.31m-15.68,1.69,1.54-2.61,1.84-2.15,2-1.69,2.15-1.08,2-.31,1.7.46,1.23,1.23.76,1.85.16,2.3m1.54,3.23-14.92-1.23m13.84,4.31.15-.46.16-.31.15-.46.15-.31.16-.31.15-.46v-.31l.16-.46M526.08,412l15.07,1.39m-8.77,6.92-1.69.46H529l-1.23-.46-1.07-.93-.77-1.38-.31-1.84v-2l.46-2.16m6,3.54.3,4.77m2.16-4.46-2.46-.31m2.61,6-.15-5.69m-10.46-4-.61,2.92-.16,2.77.46,2.46.93,1.84,1.38,1.39,1.85.61,2.15-.15,2.3-.77,2.31-1.38m-12.91-10,2.3.31m-4.76,2.61,2.46-2.92m-17.84,25.22,2,.31,2.31-.46,2.46-1.08,2.3-1.85,2.15-2.3,2-2.77,1.54-3.08.92-3.07.62-2.92-.16-2.77-.76-2.31M506.09,434l-2.15,2.77m13.38-19.68.46,2v2.61l-.77,2.61-1.08,2.77-1.69,2.46-2,2-2,1.54-2.15.92h-2m-3.69,1.69,14.92-18.6M501.17,434l.16.31.15.31.15.15v.15l.16.31.15.16.31.15.15.15m13.84-20.29L501.17,434m2.92-11.38,1.23-2.15,1.54-2,1.54-1.54,1.69-1.38,1.69-.77,1.69-.31,1.54.16,1.23.77m-8.46,7.38-3.69-.16m1.39,3.08,2.3-2.92M501,425.52l4.46.16m12.76-12.76-1.69-1.08-1.85-.31-2.3.31-2.31,1.08-2.31,1.69-2.15,2.3-2,2.62-1.54,2.92L501,425.52M520.55,410l-2.31,2.92m2.31-6.15V410m-2.31-24-2.15,2.61-1.69,2.77L513,394.47l-.92,3.07-.31,2.92.31,2.62.92,2.15,1.23,1.38,1.85.93h2.15l2.31-.77M628,380.47,415.38,503.33M628,380.47l.62-.46.61-.46.46-.61.46-.77.46-.77.31-.77.16-.77v-.77m0,0v-40m0,0v-.62l-.16-.61-.31-.46-.46-.31-.46-.16h-.46l-.61.16-.62.15M563.9,370.33,628,333.27M563.9,370.33l-1.07.61-.92.31-.93.15h-.92l-.92-.15-.77-.31-.62-.46-.61-.61m-11.38-16.46,11.38,16.46m-11.38-16.46-.31-.15-.15-.15L545,353l-.46-.15h-.31l-.3.15-.46.16-.47.15m0,0-42.59,24.6m0,0-.46.31-.31.31-.46.3-.3.46-.31.47-.31.46-.31.46-.15.61m-11.53,29.52,11.53-29.52m-11.53,29.52-.62,1.23-.61,1.23-.77,1.23-.77,1.23-.92.93-.92.92-1.08.92-.92.62m-64.27,37.05,64.27-37.05m-64.27,37.05-.62.46-.61.46-.46.62-.47.77-.46.77-.15.77-.31.76v.77m0,0v40m0,0v.61l.31.62.15.46.46.31.47.15h.46l.61-.15.62-.15M1.47,265.77h0l-.31-.3L.85,265l-.15-.61-.15-.62m8.61-48.58-5.54,3.23M.55,263.77v-40m0,40L3,265.16M.55,223.8.7,223l.15-.77.31-.77.31-.77.46-.77.61-.61.47-.46.61-.46M3,225.18.55,223.8m3.07-5.38,2.46,1.38M3,265.16v-40m0,40,.15.77.15.46.31.46.31.31.46.15.61.15.47-.15.61-.31m0,0,3.08-1.84m0-47.05L6.08,219.8m0,0-.61.46-.47.46-.61.77-.46.62-.31.77-.31.76-.15.77-.15.77M431.68,422.76l-1.23,1.38m0,0-.47.62m1.7-2V422m0,.77,3.07,1.69M430,426l2.31,1.38M430,424.6l.16-.15.31-.31m0,0,.3-.31.16-.46.3-.31.16-.46.15-.3v-.16m.77-1.07,2.46.3m0,3.08v-3.08m0,3.08-2.46,2.92m0,0-2.31-.15m0-3.23v3.23m2.31-6.15L430,424m0-9.84-.92-.31h-1.54l-1.84.92L424,416.3l-1.39,1.84-1.23,2.31-.46,2.31v2l.46,1.69.93.92m14.76-6.61-.16-1.85-.92-1.23-1.23-.77-1.69.16-1.85.92-1.69,1.38-1.38,2-1.08,2.31-.61,2.31v2l.61,1.54,1.08,1.08,1.38.31,1.69-.62.47-.15m5.38-8.61-.16-1.69-.92-1.23-1.23-.47-1.54.16-1.69,1.07L430,420.91l-1.23,1.85-.92,2.15-.31,2.15.31,1.69.92,1.23,1.23.46,1.54-.3,1.69-.93,1.54-1.53,1.23-2,.92-2.15.16-2M622.64,312.36l-1.08,1.54m0,0-.46.46m1.54-2v-.61m0,.61,3.07,1.85m-4.61,1.53,2.31,1.39m-2.31-2.77.16-.15.3-.31m0,0,.16-.46.3-.31.16-.31.15-.46.16-.46m.92-1.08,2.3.16m0,3.23V311m0,3.23-2.3,2.92m0,0-2.31-.31m0-3.08v3.08m2.31-6-2.31,2.92m0-10-.92-.31-1.54.16-1.84.77-1.69,1.53-1.54,2-1.08,2.31-.61,2.15v2.15l.61,1.54.92.92m14.76-6.45-.3-1.85-.77-1.38-1.39-.62-1.53.16-1.85.76-1.69,1.54-1.54,2L618,313.44l-.46,2.15v2.15l.46,1.54,1.07,1.08,1.54.15,1.69-.46.46-.16m5.38-8.76-.3-1.69-.77-1.08-1.23-.61-1.54.31-1.69.92-1.54,1.54-1.38,2-.77,2.16-.31,2,.31,1.69.77,1.23,1.38.46,1.54-.16,1.69-.92,1.54-1.69,1.23-1.84.77-2.16.3-2.15M431.68,523l-1.23,1.53m0,0-.47.62m1.7-2.15v-.62m0,.62,3.07,1.84M430,526.39l2.31,1.38M430,525l.16-.15.31-.31m0,0,.3-.3.16-.47.3-.3.16-.46.15-.47m.77-1.07,2.46.15m0,3.23v-3.23m0,3.23-2.46,2.92m0,0-2.31-.15m0-3.23v3.23m2.31-6.15L430,524.39m0-10-.76-.31-1.7.15-1.84.92L424,516.55l-1.39,2-1.23,2.3-.46,2.31v2l.46,1.54,1.08.92m14.76-6.46-.31-1.84-.92-1.39-1.23-.61-1.69.15-1.69.77-1.85,1.54-1.38,2-1.08,2.3-.61,2.15v2.16l.61,1.53,1.08,1.08,1.38.15,1.85-.46.31-.15m5.53-8.61-.31-1.85L436,519l-1.23-.62-1.54.31-1.69.92L430,521.16l-1.23,2-.92,2.15-.31,2,.31,1.85.92,1.07,1.23.62,1.54-.31,1.69-.92,1.54-1.54,1.23-2,.92-2.15.31-2M622.79,412.76l-1.23,1.39m0,0-.46.61m1.69-2V412m0,.77,3.08,1.69m-4.77,1.7,2.31,1.38m-2.31-2.77.16-.15.3-.46m0,0,.16-.31.3-.31.16-.46.15-.31.16-.46m.92-1.07,2.46.15m0,3.07v-3.07m0,3.07-2.46,3.08m0,0-2.31-.31m0-3.07v3.07m2.31-6-2.31,2.92m0-10-.92-.3-1.54.15-1.84.77-1.69,1.54-1.54,2-1.08,2.16-.61,2.3v2.16l.61,1.53.92.93m14.76-6.62-.3-1.84-.77-1.23-1.39-.62-1.53.16-1.85.77-1.69,1.53-1.54,2L618,413.69l-.46,2.3v2l.46,1.69,1.07.92,1.54.31,1.69-.46.46-.31m5.38-8.61-.3-1.69-.77-1.23-1.23-.46-1.54.31-1.69.92-1.54,1.54-1.38,2-.77,2.15-.31,2,.31,1.69.77,1.23,1.38.46,1.54-.15,1.69-1.08,1.54-1.54,1.23-2,.77-2.15.3-2m-5.38-43.2-1.23,1.38m0,0-.46.62m1.69-2v-.77m0,.77,3.08,1.69m-4.77,1.54,2.31,1.38m-2.31-2.77.16-.15.3-.31m0,0,.16-.31.3-.46.16-.3.15-.47.16-.3v-.16m.92-1.07,2.46.3m0,3.08v-3.08m0,3.08-2.46,2.92m0,0-2.31-.15m0-3.23v3.23m2.31-6.15-2.31,2.92m0-9.84-.92-.31h-1.54l-1.84.92-1.69,1.54-1.54,2L612.49,366l-.61,2.31v2l.61,1.69.92.92m14.76-6.61-.3-1.85-.77-1.23-1.39-.76-1.53.15-1.85.92L620.64,365l-1.54,2L618,369.25l-.46,2.31v2l.46,1.69,1.07.92,1.54.31,1.69-.62.46-.15m5.38-8.61-.3-1.69-.77-1.23-1.23-.46-1.54.15L622.64,365l-1.54,1.53-1.38,1.85-.77,2.15-.31,2.15.31,1.69.77,1.23,1.38.47,1.54-.31,1.69-.92,1.54-1.54,1.23-2,.77-2.15.3-2M431.68,478.57l-1.23,1.54m0,0-.47.46m1.7-2v-.77m0,.77,3.07,1.85M430,482l2.31,1.39M430,480.57l.16-.15.31-.31m0,0,.3-.46.16-.31.3-.46.16-.31.15-.46m.77-1.08,2.46.16m0,3.23v-3.23m0,3.23-2.46,2.92m0,0L430,483m0-3.08V483m2.31-6L430,480m0-10-.76-.31-1.7.16-1.84.77L424,472.11l-1.39,2-1.23,2.31-.46,2.15v2.15l.46,1.54,1.08.92m14.76-6.45-.31-1.85L436,473.5l-1.23-.62-1.69.16-1.69.76-1.85,1.54-1.38,2-1.08,2.15-.61,2.31v2l.61,1.69,1.08.92,1.38.31,1.85-.46.31-.31m5.53-8.61-.31-1.69-.92-1.23-1.23-.46-1.54.31-1.69.92L430,476.73l-1.23,2-.92,2.16-.31,2,.31,1.69.92,1.23,1.23.46,1.54-.16,1.69-1.07,1.54-1.54,1.23-2,.92-2,.31-2.15M293.3,474.73l116.54,67.19M12.69,312.67,269.46,460.89m284.45-225.1-339.8-196m372.55,215-17.53-10M291.6,334l118.24,68.27M12.69,172.9,271.31,322.2m-148.07,4.46v4m61.66,31.52v4.15m40,27.37v4.46m2-4.46.31-.31m-2.31-9.07v6.3m16.3,14.46-.31.15m-16-28.6v4.61m21.38,15.38v3.54m-19.07-5.69v2.15m0,0,4.46,2.61m11.07,4.15v2.31m0,0,4.61,2.61m24.14-103.93-2.15,170.05m24,0-2-170m0,0-.62-3.23-1.38-2.46-2.62-2.46-2.15-1.08-2.61-.46-2.77.31-2.61.92L275,297l-1.54,1.69-1.38,2.61-.62,3.08m43.67,129.46-.31.15m7.23,22.14,2-1.23M296.52,470l16.92-9.53m-11.23-19.68L293,445.82m-2,22.3V468M185.67,305.44l-.77.46m5.38,9.38.92-.46m22.14,6.61-.77.46m5.39,9.38.92-.46m-88.72-57.5-.77.61m5.38,9.38.93-.46M158,289.45l-.92.46m5.53,9.38.77-.46M240.86,337l-4.15,2.31m6,10.45,4.15-2.46m-7.53,1.85.46.31M235.48,342v.61m-133.3-85.79L98,259.32m6,10.3,4.15-2.31m-7.53,1.85.46.15m-4.3-7.23v.46M214.11,39.75,211,37.91M9.62,310.82l3.07,1.85m545.37,53,2.46,1.39M410.76,451.36l2.46,1.38M233.33,3.62,231.64.55M1.47,215l2.46,1.39M630.17,383.86l-2.46-1.39m2.46-49.35-2.46-1.39m-102.4,87.18,2.46,1.54m10.77-18.76-2.47-1.38m9.23-47.2-2.46-1.54m-27.21,63.35-2.46-1.39m.76-10.91,2.46,1.53M410.76,502.09l2.46,1.39M1.47,265.77l2.46,1.39M422.3,427.37l5.68,3.07m7.54-13.22L430,414.15m7.08,7.38v-.77m-5.38,9.38.61-.31M613.41,317,619,320.2M626.64,307l-5.54-3.23m7.07,7.38v-.61m-5.38,9.37.62-.46m-201,208.19,5.53,3.23m7.54-13.23L430,514.4m7.23,7.53v-.77m-5.53,9.38.61-.46m181.12-112.7L619,420.6m7.69-13.22-5.54-3.23m7.07,7.38v-.77m-5.38,9.38.62-.3m-10-46.9L619,376m7.69-13.23-5.54-3.07m7.07,7.38v-.77m-5.38,9.38.62-.31m-201,107.78,5.53,3.23m7.54-13.22L430,470m7.23,7.38v-.61M431.68,486l.61-.31"/></g></g></svg>