<svg xmlns="http://www.w3.org/2000/svg" viewBox="0 0 263.83 214.2"><defs><style>.cls-1{fill:none;stroke:#000;stroke-linecap:round;stroke-linejoin:round;stroke-width:0.71px;}</style></defs><g id="Layer_2" data-name="Layer 2"><g id="Gráficos"><path class="cls-1" d="M225.9,84.39l10,5.78M108.06,16.33,218.65,80.19M221.43,87l10,5.78M103.59,19l110.59,63.8m-196-14.5,125.1,72.25M13.66,70.87l134,77.38m65.71-65.06L102.82,19.39M230.7,93.22l-10-5.83m-78.09,51.86L18.9,67.81m18.54,52-1.75-1m7.36,3.76V121.2m.22,1.14v-1.09M41.91,123l.33.16m-8.57-16.3-.11.65.11.6M29.58,104l-.1.43.16.44.33.49.54.38.71.33.82.22.76,0H33m21.65,23.4-1.75-1m7.31,3.71v-1.31m.27,1.15v-1.09m-1.36,1.74.38.22M41.31,111l-.11.43.16.49.33.49.6.44.71.33.87.22.87.05h.44m-3.71-2.56,0,.43.11.44.32.49.55.38.71.33.82.22.81.05H45m1.8,1,0,.16.16.49.33.44.49.38m0,0,.65.27.77.22.87.06h.27m21.6,23.39-1.69-1M58.49,121.14l-.06.39.11.21.06.17.32.43.55.44m18,19.58V141.1m.28,1.15V141.1m-1.37,1.75.38.22m-18.1-22v.16l.11.49.38.44.49.38m0,0,.66.28.76.21.82.06h.27m-2.67-.33.71.27.81.22.88.11.49,0m1.42.92v.33l0,.22.06.16.32.44.6.43m-.87-1.69v.17l.11.49.38.43.49.39m0,0,.66.27.76.22.82,0h.27m21.65,23.4-1.75-1m7.37,3.71V151m.21,1.14V151m-1.36,1.74.38.22M75.88,131l0,.16.16.49.33.44.49.38m8.51,4.2-.11.65.11.55m-4.09-4.09-.06.38.11.49.33.44.54.43.71.33.82.16.76.11.22,0m21.65,23.39-1.74-1m7.3,3.76V161m.28,1.15V161m-1.37,1.74.39.17M93,140.78l-.11.43.17.49.32.49.6.44.77.33.81.22.88,0h.32m-3.6-2.56,0,.38.11.49.33.49.54.38.71.33.82.16.82.11.21,0m5.89,3.54,0,.77,0,.65m-4.09-4.2-.05.38.11.49.33.49.54.39.71.32.82.17.82.11.21-.06m21.6,23.45-1.69-1m7.31,3.77v-1.31m.27,1.14v-1.09M128,172.68l.38.22m-17.94-22.25-.11.43.11.44.38.49.54.38.71.33.77.22.81.05h.39m5.67,3.44-.11.76.11.66m-4.09-4.2-.06.43.11.44.33.49.54.38.71.33.82.22.76.05h.22m8.24,4.64-.06.43.11.49.38.49.55.44.76.33.87.22.82.05h.38M29.37,119.35l-1.15-.66m101.6,58.62-100-57.69m97.67,40.9-.11.38.16.49.33.49.54.38.71.33.82.16.76.11.22-.05M235.45,85.1h-.17m-12.6-7.25-12.1-7m24.7,14.23L229.94,82M210.58,70.87l-2.07,1.2m30,16.63-.16-.33-.65-1-.77-.93-.82-.76-.87-.6m0,0-2.07,1.25M111.55,7.72h0m1-.6h0m-2.29,1.36h0M84.44,23.37h0M47,45h0m1-.6h0m-2.34,1.31h0M19.93,60.56h0M217,125.45l1,.55M28.71,128.94l-15.32,8.84m-8.67-15,6.7-3.82M5.86,94.21l.87.49m3.88,23.77L4.5,122m9.43,16.36,15.6-9M151,206.6l-9.44,5.45M196,137.56l1.26.71m-.93,1.2-1.14-.66m-7.75,19.91,1.15.71M111.38,16l-.71-.28h-.81l-.88.17-.92.43m0,0L103.59,19m0,0-.06.05-.11.06,0,.11-.11.11-.06.11v.05M28.28,118.85l-.6.39M9.24,117.71h0l-.11-.11-.1-.16L9,117.22,8.92,117m9.21-48.75h.06l.11-.06h.05l0,.06m-4.74,2.62,4.47-2.62M8.92,117V79m0,38L151,199M27.68,101.57,132.32,162m0,0v17.67M27.68,119.24l104.64,60.42M27.68,101.57v17.67M8.92,79,9,77.9l.27-1.2.43-1.14.6-1.2.71-1.1.82-.92.87-.82.93-.65M8.92,79,151,161m0,23.17v-8M102.82,19.39l.06-.06H103M18.9,67.81l83.92-48.42M18.9,67.81l-.06.06-.11,0-.05.06-.06.1v.06l-.05.11v0m17.78,50.17-.22.11m-.44.17.44-.17m0,0v-2m-.6,2.35v-2.18m.16,2-.11,0,0,.11m0,0-.06,0-.11.06,0,0v.06h-.05m2-.22.22-.16m.16-1V117m-1.09-.6v.76m-.16,1.8V119l0,0m0,0v-1.69m0,1.69h.22m0,0v-1.69m0,1.69.6-.16m0,0v-1.75m.27,3.28v-.06l-.05-.16V120m1.09-.27-.17.16m2.24-7.69-3.33,3.71m1.42-.22,2-2.18m0-.49-2.84,3.22m-.27,4.2V118m.44,2.07.43-.16m0,0v-2.07m-.65,2.34V118m-2.45-1.31v2.4m-2.51-.38.87-1m.87,2.18.77-.49m4.52,1.74-1.85-1.09m0,0-.11.06-.11,0m0,0-.06.06,0,.11-.05,0h-.06v.06m-7.31-3.22,1.37-.71m0-2.73-1.37.17m9.27,6.21.22-.11m.17-1.8V119m-1.15-.66v-.76m-.11,2.62h0v0l0,.06m2.4-6.66-2.62,2.89m1.42-.21,1.91-2.13m-.22-.27-2.56,2.89m-.33,3.49v-1.69m0,1.69.06,0h.21m.6-1.91v1.69m-.6.22v-1.69m.6,1.47-.6.22m1.53-1.53v-.27m.38,2.46-.21.1m1.36-6.65-2.4,2.73m1.42-.27,1.8-2m-.33-.16L40,117.49m-.27,4.2-.06,0v-.33M37.6,109.75l1.15-.71M40,121.47v-2.18m.6,1.85-.39.17m.39-2.18v2m-10.37-3.92,2.57,1.53M30.18,114v3.27M30.13,114h.05m-.05,3.43V114m2.62,5v-.16M42,122.4l-1.86-1.09m0,0-.11,0-.1.11m0,0-.06.06,0,0-.06.06-.05,0m-9.06-10.36v-.82m11.24,10.8-.22.16m-11-7.58h-.1l-.17.06-.16-.06-.11,0M42,119.51v.82m-1.09-1.42v.76m-.11,1.8-.06.06v0l.06.06m2.23-6.55-2.45,2.78M42,117.6l2-2.13m-.33-.21-2.56,2.89m-.27,3.49v-1.7m0,1.7h0l.06,0,0,0H41m0,0v-1.7m.65,1.53-.65.17m.65-1.91v1.74m-11-7.58v-2.23m6.93-1-6.93,3.22m6.93-5.45v2.23m-6.93,1,6.93-3.22m0,0-.27-.17m-6.93,3.17-.27-.17m.54.39h-.43l-.11-.06M43,122.29l-.22.16M44,115.91l-2.35,2.56m1.47-.22.88-1m0-.49-1.8,2m-.33,4.2v-.06l-.06-.16v-.11l.06,0m.27.11V120.6m.6,1.85-.44.17m.44-2.24v2.07m-9.22-13.08-2,1.2m6.05-.28,1.64-1m-7.69,4.47,2.4-1.42m-2.4,4.15v-2.73m10.79,8.84-.05,0-.11.06m0,0,0,0-.06.11,0,0H42l-.05.06m1.25-2.84v.77m.88-3.11-1.2,1.31m1.2-.49-.71.76m.54,2.34V122M30.13,111.27l-.27.17m.27-.17v-.54m.05,0,1.37-.21m0-2.3v2.3m3.71,8.83v-.27m4.47,2.56L41.91,123m-4.42-2.56,2.24,1.25m-4.47-2.56,2.23,1.31M29.2,104.08v2.23m-.22.38-.27.17m-.49-4.2-.11-.06v0l-.05-.06m5,6.6H33m0-.6.7.38m-4.47-2.56.11.06m-.43.11.32-.17m4.42,2.13v0m0,0h-.06m2.79,8.73.32-.33m-.27.49,0,0v-.11m.27.16H36.4m.82-.22-.6.22m1-.43-.38.21m1,.17-.6-.38m.22.6.38-.22m-.76.54.38-.32m-.33.43h-.05v-.11m.27.17h-.16l-.06-.06m.87-.16-.65.22m1-.44-.33.22m.93.11-.6-.33m.22.55.38-.22m-.71.6.33-.38m-.33.49h0l0-.06v0h0m.27.16h-.21l-.06,0m.87-.17-.6.22m1-.44-.39.22m.93.11-.54-.33m.21.55.33-.22m-.71.55.38-.33m-.1.49-.06.06h0l-.06-.06h-.05l-.06-.05v-.11m.88,0-.6.16m1-.38-.38.22m1,.11-.6-.33m.22.54.38-.21m-.71.54.33-.33m-.33.49-.06,0v0l.06-.06m.22.16h-.22m.87-.21-.65.21m1-.43-.33.22m.93.16-.6-.38m.22.6.38-.22m-.71.55.33-.33m-.06.49h-.27v-.06l-.06-.05h.06v0m.87-.06-.6.22m1-.44-.38.22m.93.11-.55-.33m.22.55.33-.22m-.71.6.38-.38m-.33.49h0v-.11m.27.16h-.16l-.06,0m.6-.06-.38.11m.87.6-1.63,1m-2.07-11.51-8.89,5.18m0,0,2.07,1.2m1.64-1-1.64,1m1.91-1-.06,0h-.11l0,0h-.05m.87-.17-.6.17m1-.38-.38.21m.93.11-.55-.32m.16.54.39-.22m5.18,2.13.92-.55m-1.47.22.55.33m.6.33.49.27m-2.24-1.25.93-.55m-1.42.27.49.28M40,117.49l.93-.54m-1.42.27.49.27m-1.09-.65.87-.49m-1.42.21.55.28m-1.15-.6.93-.55m-1.42.22.49.33m-4-7.86-.06.06h-.05m-4.31-4.26v.22m3.93,4.09.54.28m-1,10.14-2.62-1.53m0,0-.27.17M44,123.71l-1.53-.87m0,0-.87,1m-8-14.61v-.39m-2.56-.65.11,0,.82.17.76,0h.76m2.24-.22,1-.54m-2.94,1.8,1.74-1m-2-2-.16,1,.16.87m-4.25-4.36-.06.43.11.49.38.49.55.44.76.33.87.22.82,0h.82m0,1.91-.82,0-.82,0-.87-.22-.76-.33-.55-.43-.38-.49-.11-.49v-.06m6.49.93v.92M34.49,108l1.31.32m-1.36-1.47-.28.17m7.48,16.9,2.56,1.47M41.64,124v-.16M44,125.4,41.64,124m11.88,4.37-.21.16m-.39.16.39-.16m0,0v-2.07m-.6,2.34v-2.12m.21,2-.1.06-.11.05m0,0-.06.06,0,.05-.06.06,0,.05m2-.22.22-.11m.16-1.79v.76M53.69,127v-.76m-.11,2.62h-.06v.05l.06.06m0,0v-1.69m0,1.69.05.05h.17l.05-.05m0,0v-1.69m0,1.69.6-.17m0,0v-1.69m-10.8-5.61v.11l.11,0m0-2.51-.06.06v.16l.11,0m.06-.38-.11.11m11,11.18,0-.05V130m1.09-.27-.22.11m2.29-7.69-3.32,3.7m1.41-.21,2-2.24m-.06-.38L55,126.16m-.28,1.8v2.4m.44-.38.38-.16m0,0v-2.08m-.6,2.4V128m-2.45-1.31v2.4M50,128.67l.82-1m.87,2.19.82-.44M57,131.07,55.16,130m0,0-.11.05-.11.11m0,0,0,.06-.06.05,0,.06h-.06v.05m-6-3.93-1.31.77m1.31-3.49-1.31.22m9.27,6.16.22-.11m.1-1.8v.76m-1.09-.65v-.76m-.16,2.61v.11l.05.06m2.4-6.71-2.61,2.89m1.41-.22,1.86-2.07m-.11-.38-2.67,3m-.28,3.49v-1.75m0,1.75H56m.66-1.91v1.69m-.66.22v-1.69m.66,1.47-.66.22m1.58-1.53v-.27M41.09,111v2.23M58,131l-.22.16m1.36-6.7-2.45,2.72m1.41-.21,1.8-2m-.38-.11-2.29,2.62m-.32,4.19h0l-.06-.21v-.06l.06-.11m-2.13-11.56L56,119m1.2,12.44v-2.13m.6,1.85-.44.17m.44-2.24v2.07M47.42,127.2,50,128.67m-2.56-4.74v3.27m-.06-3.33.06.06m-.06,3.38v-3.44m2.62,4.8v.16m9.27,3.49-1.91-1m0,0-.05.05-.11.06m0,0-.06,0,0,.06-.11.05v.05h-.05m-9-10.36v-.81m11.18,10.79-.22.17m-11-7.58-.11.05h-.16l-.11-.05h-.11m11.89,5.67v.76m-1.09-1.42v.77M58,131.45h0v.11h0m2.24-6.49-2.46,2.73m1.42-.27,1.91-2.13m-.27-.17-2.57,2.84m-.27,3.49v-1.69m0,1.69.05.05h.11l.06-.05m0,0v-1.69m.6,1.53-.6.16m.6-1.85v1.69m-11-7.58v-2.24m6.93-1-6.93,3.22m6.93-5.46v2.24m-6.93,1,6.93-3.22m0,0-.22-.16m-6.93,3.22-.27-.17m.49.33h-.11l-.16.06-.11-.06-.11,0m-3-6-.27.16m.87-.33.27.17m-4.42-2.18.33-.17m19.09,19.09-.17.11m1.26-6.55-2.35,2.57m1.42-.22.87-1m0-.49-1.8,2m-.27,4.2v0l0-.16v-.11l0-.06m.22.17v-2.19m.65,1.86-.43.16m.43-2.23v2.07m-5.23-12.16,1.63-1m-7.68,4.47,2.45-1.42m-2.45,4.14v-2.72m2.07-4.42-2.07,1.2m10.85,12-.11.06-.11.11m0,0-.06,0,0,.05,0,.06-.06,0m1.2-2.83v.76m.87-3.11L60,129.05m1.2-.49-.65.82m.54,2.29v.27M41.25,111.06v.21m6.11,10-.27.17m.27-.17v-.6m.06.06,1.31-.22m0-2.29v2.29m3.76,8.56,2.23,1.31m-2.23-1v-.33m4.42,2.56,2.23,1.31m-4.42-2.56,2.19,1.25M41.47,113l0,.44.11.49.32.43.55.44.71.33.82.16.81,0h.44m.11.88-.11.11m.11-3.17-.11.11m-15-5.78v3.27M33,109.09v0m0,0,.87.49m0,0v-2m.65.44-.65-.44m.65-.93V108m5.4,3.11v-.88m.71,1.26-.71-.38m.71.38v2m4.63,2.61-.92-.54m-.11-.17.93.5m-4.37-2.51.6.38m-.6-3v2.62m-6.32-7.09v.54m-.77,2.46v-2.62m-1.36,1.85,1.36.77M29,106.58l.39.22m-.39-.11v-.11m.44.39-.44-.28m1.15,4v-3m0,3,.05,0M46.38,114v2.24m-.16.43h-.11m0,0v-3m0,3-.17.11m-.76-1.42h-.44l-.87,0-.87-.22-.71-.33-.6-.43-.33-.49-.16-.49v-.06m9.11,5.78-.11,0m0-.6.6.38m-4.63-2.45.16-.11M46.6,114l-.06.49.11.55.38.43.55.39m0,2-.55-.38-.38-.49-.11-.5v0m7,10.74.33-.32m-.33.49v-.06h-.06v0l.06-.06m.27.17-.05,0h-.11l-.06,0h-.05m.87-.17-.6.17m1-.38-.38.21m.93.11-.55-.32m.22.54.33-.22m-.33.22-.38.33m0,.16,0,0v-.11m.27.16h-.22m.82-.22-.6.22m1-.43-.38.21m1,.17-.6-.38m.22.54.38-.16m-.76.54.38-.38m-.33.49h-.05v-.11m.27.17h-.16l-.06-.06m.88-.16-.66.22m1-.44-.32.22m.92.11-.6-.33m.22.54.38-.21m-.38.21-.32.39m.27.16H57l-.05-.05-.06-.06v0h.06m.27.16.6-.22m.38-.22-.38.22m.92.11-.54-.33m.22.55.32-.22m-.7.55.38-.33m-.33.49,0-.05v-.11m.27.16-.06,0h-.05l-.06,0h-.05m.82-.16-.6.16m1-.38-.38.22m1,.11-.6-.33m.22.54.38-.21m-.71.54.33-.33m-.11.49h-.22l0-.05v-.05l0-.06m.22.16.65-.21m.33-.22-.33.22m.93.16-.6-.38m.22.6.38-.22m-.71.55.33-.33m-.33.43h0l0-.05,0,0m.27.16h-.21l-.06-.06m.6-.05-.33.11m-.81,1.58,1.69-1m-12.65-5.35,8.88-5.12m-6.81,6.32-2.07-1.2m3.76.22-1.69,1m1.91-.92h-.17l0-.06m.82-.16-.6.22m1-.44-.38.22m1,.11-.6-.33m.22.55.38-.22m4,1.47.93-.54m-1.42.27.49.27m-1.09-.65.87-.49m-1.41.21.54.28m-1.14-.6.92-.55m-1.41.22.49.33M55,126.16l.92-.54m-1.41.21.49.33m4.41,2.56.93-.54m-1.42.22.49.32m1.15.66.33-.22m-.88-.11.55.33M47.69,117.87h-.11v-.05m.71.33h.05l.77.21.87.11.82,0m-3.44-5.56v.21M50,128.83l-2.62-1.52m0,0-.27.16m3.76-9.11-.05-.92.05-.6m-4.2-1V114m3.87,4.42.5.33m10.19,14.88-1.52-.87m0,0-.82,1m-8-14.62v-.38m-4.63-2.29-.17-.11m1.64-.71h0l-.06.06-.05,0v.06M53,118.25l.93-.54m-6.38.11v-2m3.27,2.5-1.2.06-.71-.11-.6-.16-.76-.33m3.22-1.37-.11,1,.16.87m-3.27-2.5.65.32.82.22.93.11.82-.06m.22,3,1.8-1m-6.88-4.69.17-.06M53,117.33v.92m-1.31-.38,1.31.38m-1.36-1.52-.27.16m7.47,16.91,2.56,1.47M58.87,134v-.16m2.34,1.52L58.87,134m11.89,4.36-.22.17m-.38.16.38-.16m0,0v-2.08m-.6,2.35v-2.13m.22,2-.11,0-.11.06m0,0-.06.05,0,.06-.06.11h0V139m1.91-.27.22-.11m.16-1.8v.76M70.92,137v-.76m-.16,2.61h0v.11h0m0,0v-1.69m0,1.69.06.06H71m0,0v-1.69M71,139l.6-.22m0,0v-1.69m1,.38v-.27m-11.78-5.67h0l.06.05,0,.11m0-2.56,0,0-.06.11.06,0,0,.06m11,10.91v-.06l-.05-.16V140l.05-.06m1.09-.27-.22.11m2.29-7.69-3.38,3.76m1.42-.27,2-2.18m0-.44-2.89,3.17m-.27,1.8v2.4m.44-.39.43-.16m0,0v-2m-.6,2.35v-2.18m-2.45-1.31V139m-2.51-.43.82-1m.87,2.18.82-.44M74.25,141l-1.91-1.09m0,0-.11.06-.06.11m0,0,0,.05-.11.06-.05,0v.06H71.9M66,136.36l-1.31.76M66,133.63l-1.31.22M73.86,140l.22-.11m.17-1.8v.77m-1.09-.6v-.77M73,140.07v.11l.06,0m2.34-6.71-2.56,2.89m1.42-.21,1.85-2.08m-.22-.27-2.56,2.89m-.27,3.49v-1.69m0,1.69h.21m.6-1.91V140m-.6.22v-1.69m.6,1.47-.6.22M58.32,120.87v2.24m16.85,17.78-.16.16m1.31-6.65-2.4,2.67m1.42-.22,1.8-2m-.39-.05-2.34,2.56m-.27,4.25v-.05l-.06-.16v-.22M72,129.6l1.15-.66m1.2,12.38V139.2m.65,1.85-.44.16M75,139v2.07m-10.36-3.93,2.56,1.48m-2.56-4.75v3.27m-.11-3.32.11,0m-.11,3.44V133.8m2.67,4.8v.16m9.22,3.54-1.86-1.09m0,0-.11.06-.1,0m0,0-.06.06,0,.11-.06,0h0v.05m-9-10.41v-.82m11.18,10.85-.22.11m-11-7.58-.1.06H64.7l-.16-.06m11.94,5.67v.77m-1.14-1.42v.76m-.11,1.86h-.06v.05l.06.06M77.46,135,75,137.72m1.42-.27,2-2.13m-.27-.16L75.56,138m-.33,3.49v-1.7m0,1.7,0,0h.22m0,0v-1.69m.6,1.47-.6.22m.6-1.91v1.69m-11-7.58v-2.23m6.93-.93-6.93,3.16M72,128.29v2.29M77,140v-.27m-12-8.23L72,128.29m0,0-.27-.17m-6.87,3.22-.33-.16m.54.33-.1.05H64.7l-.16-.05m-3.05-6.06-.28.17m.93-.28.22.11m-4-2.34.11,0m-.43.11.32-.16m19.09,19.08-.22.11m1.26-6.54-2.29,2.62m1.41-.28.88-1m0-.49-1.8,2m-.28,4.2-.05-.06v-.32m.27.16v-2.18m.6,1.85-.38.17m.38-2.18v2m-9.21-13-2,1.15m6.05-.28,1.64-.92M66,133.63l2.45-1.42M66,136.36v-2.73m10.85,8.84-.11.05-.11.11m0,0,0,.06-.06.05,0,0-.06.06M58.49,121v.1m1,3.55-.49-.38-.38-.49-.17-.49v-.06m1.2,1.47-.05.06-.06-.06-.05,0m.82.38.76.16.82.11.49,0m15.21,14.78v.76m.88-3.16L77.25,139m1.2-.44-.71.76m.6,2.29v.28m-13.8-10.69-.27.16m.38-.71,1.31-.21m0-2.3v2.3M58.43,121v.22M71.9,140.29l2.24,1.3M69.72,139l2.18,1.26m-2.18-1V139m4.42,2.56,2.23,1.26M62.52,126.16l-.16.11m.16-3.11-.16.06m-11.51-4v-2.62m-1.31,1.86,1.31.76m-4.63-2.67.38.22m-.38-.06v-.16m.43.38-.43-.22m1.14,4V117.6m0,3.05.06.06m0-3.27v3.27M50.2,119V119m0,0,.82.49m0,0v-2m.7.38-.7-.38m.7-.93v1.31m5.4,3.11v-.87m.71,1.31-.71-.44m5.18,5-.81-.49m-.06-.16.93.54M58,123.27l.54.33M58,120.71v2.56m-6.33-7v.49m8,5.83h-.05l-.06.06v0l-.05.11m0,1.91v-1.91m2.89,2.51h-.49l-.88-.06-.81-.21-.71-.33m4.14-.76v2.23m-.16.44h-.06l-.1.05m0,0V123.6m0,3.05-.17.06M67.48,129h-.1m.05-.6.65.32m-4.58-2.45.11-.11m.17-2v.11m1,3.49-.54-.38-.38-.49-.17-.49v0m7,10.79.38-.38m-.33.49h0v-.11m.27.17h-.16l-.06-.06m.82-.16-.6.22m1-.44-.38.22m1,.11-.6-.33m.22.55.38-.22m-.38.22-.33.32m0,.17v-.06h-.05v-.05l.05-.06m.27.17,0,.05H72l-.05-.05H71.9m.87-.17-.6.17m1-.39-.39.22m.93.11-.54-.33m.21.55.33-.22m-.71.55.38-.33m-.32.49-.06,0v-.11m.27.16h-.21m.81-.22-.6.22m1-.44-.39.22m1,.17-.6-.39m.21.55.39-.16m-.39.16-.38.38m.28.17h-.17l0-.06h-.06V139m.28.17L75,139m.33-.22L75,139m.93.11-.6-.33m.22.54.38-.21m-.71.6.33-.39m-.33.49h0l-.06,0v-.05h.06m.27.16h-.22l0-.06m.87-.16-.6.22m1-.44-.38.22m.93.11-.55-.33m.22.55.33-.22m-.71.55.38-.33m-.11.49,0,.05h-.06l0-.05h-.06l-.05-.06v-.1m.27.16.6-.16m.38-.22-.38.22m1,.1-.6-.32m.22.54.38-.22m-.71.55.33-.33m-.33.49,0,0V141l0-.05m.28.16h-.28m.6-.11-.32.11m-.82,1.59,1.63-1M66,136.36l8.89-5.13M68,137.56,66,136.36m3.76.22-1.69,1m1.91-.93h-.17l0,0m.82-.17-.6.22m1-.43-.38.21m1,.11-.6-.32m.22.54.38-.22m5.13,2.13.92-.55m-1.41.28.49.27m.6.33.49.32M75.56,138l.87-.55m-1.42.27.55.28m-1.15-.66.93-.49m-1.42.22.49.27m-1.09-.6.93-.54m-1.42.21.49.33m-1.15-.65.93-.55m-1.42.27.49.28m-7.25-8.29,0,0h-.06v-.11m.71.33.06.05.76.17.82.11.82-.06m-3.44-5.56V123m2.67,15.76-2.67-1.47m0,0-.27.11m3.81-9.11,0-.87,0-.6m-.38,1.52.33.22m10.42,15-1.53-.87m0,0-.82,1m-8-14.61v-.39m-4.63-2.29-.16-.05m1.63-.76h0l-.06,0v.16m5.46,2.35.92-.55m-6.38-1.8v1.91m3.27.6h-1.2l-.7-.11-.66-.16-.71-.33M68,126.38l-.11,1,.16.87m-3.27-2.46.66.28.81.22.88.1.87-.05m.22,3.05,1.8-1m-6.93-4.69.17-.11m7,3.65v.93M69,127.8l1.31.38m-1.42-1.53-.27.17m7.52,16.9,2.56,1.47m-2.56-1.31v-.16m2.35,1.53-2.35-1.37M88,148.3l-.22.11m-.44.16.44-.16m0,0v-2.07m-.6,2.4v-2.18m.16,2-.1.06-.06.11m0,0,0,0-.11.06-.06.05V149h0m2-.28.22-.11m-.93-1.69v-.76m1.09.66v.76M88,148.74v.11l.05.05m0,0v-1.74m0,1.74h.22m0,0v-1.69m0,1.69.6-.22m0,0V147m1,.38v-.27m-11.78-5.67h0v.11l.11.05m0-2.56-.06.06v.16l.11.11m.06-.38-.11.05m11,11.18h0l0-.22v-.16m1.09-.27-.16.16M92.24,142l-3.32,3.71m1.41-.27,2-2.18m-.11-.44L89.41,146m-.28,1.8v2.4m.44-.33.44-.16m0,0v-2.07M89.35,150v-2.12m-2.45-1.31V149m-2.51-.44.87-1m.87,2.24.77-.49m4.52,1.69-1.85-1m0,0-.11.06-.11.05m0,0,0,.06-.06,0,0,.06-.06.05m-5.94-3.93-1.36.77m1.36-3.49-1.36.22M91.1,150l.22-.16m-1-1.64v-.76m1.15.65v.77m-1.26,1.2h0v0l0,.06m2.4-6.66L90,146.39m1.41-.27,2-2.13m-.28-.21-2.56,2.89m-.33,3.49v-1.69m0,1.69h.06l0,.05h.11l.06-.05m.6-1.86V150m-.6.17v-1.69m.6,1.52-.6.17m-15-19.31V133m16.91,17.84-.22.1m1.36-6.65L91.15,147m1.42-.21,1.8-2m-.33-.11-2.4,2.67m-.27,4.2-.05-.16v-.22m.27.16v-2.18m.6,1.85-.38.17m.38-2.24V151m-3-11.45,1.2-.65m-8.56,8.18,2.56,1.47m-2.56-4.74v3.27m-.06-3.33.06.06m-.06,3.43v-3.49m2.62,4.8v.22m9.27,3.49-1.85-1.09m0,0-.11.05-.11.11m0,0-.06.06,0,0-.06.05h0v.06m-9.05-10.36v-.87m11.23,10.85-.22.11m-11-7.58-.17.05h-.27l-.11-.05m10.8,5v.77m1.09-.11v.76m-1.2,1.2,0,.06v0l0,.05m2.24-6.54-2.46,2.73m1.42-.22,2-2.18m-.32-.17-2.57,2.84m-.27,3.54v-1.74m0,1.74h.22m0,0v-1.69m.65,1.48-.65.21m.65-1.9v1.69m-11-7.58v-2.24m6.87-.93-6.87,3.17m6.87-5.4v2.23m5.07,9.44v-.27m-11.94-8.24,6.87-3.16m0,0-.22-.22M82,141.27l-.27-.17m.55.33-.17.06h-.27l-.11-.06m-3-6.05-.27.16m.92-.27.22.11m-4.42-2.13.33-.22m19.14,19.09-.22.16m1.26-6.6-2.35,2.62m1.48-.22.87-1m0-.54-1.8,2m-.33,4.2h0l0-.21v-.06l0-.11m.27.17v-2.13m.6,1.85-.38.17m.38-2.24v2.07M75.72,130.8l-.06.54.11.49.39.49.54.39m0,1.9-.54-.38-.39-.43-.11-.55v-.05m13.53,6.87,1.69-.93m-7.69,4.42,2.45-1.42m-2.45,4.14v-2.72m2-4.36-2,1.14M94,152.45l-.11.05-.11.06m0,0,0,.05-.06,0,0,.06,0,.05h-.06m-16.74-18.1v.05h-.06l0-.05v-.06m.76.39.82.16.82.11h.49M94.81,150v.77m.87-3.17L94.48,149m1.2-.49-.71.76m.54,2.29v.33M81.77,141.1l-.27.17m.27-.17v-.6m-6-7.79V130.8m-.11.11v.21m6.17,9.44,1.36-.22m0-2.24v2.24M86.9,149l2.23,1.25m-2.23-1V149m4.47,2.56,2.18,1.25m-4.42-2.56,2.24,1.31M79.75,136.14l-.16.06m.16-3.11-.16.11m-11.51-4.09v-2.57m-1.36,1.8,1.36.77m-4.63-2.68.38.22m-.38-.05v-.17m.44.39-.44-.22m1.09,4v-3m0,3,.11,0m0-2.78v2.78M67.38,129v-.06m0,0,.87.49m0,0v-2m.71.38-.71-.38m.71-.93v1.31m5.4,3.16V130m.7,1.31-.7-.38m.7.38v2m4.48,2.51-.82-.49m-.11-.17.93.55m-4.37-2.51.55.27m-.55-2.89v2.62m-6.32-7.09v.49m8,5.84.65.27.82.22.82.05h.27m-2.56-.54v0l-.06.06,0,.05v.06m0,1.9v-1.9m2.89,2.5-.49.06-.93-.11-.82-.22-.65-.33m0-1.9.65.27.82.22.93.11h.44m1.3.6v2.18m-.16.43-.11.06h0m0,0v-3.06m0,3.06-.17.11m4.37,2.23h-.11m0-.6.66.38m-4.64-2.5.16-.11m4.42,2.18v0h-.05v0m7.25,11.45h0v-.05l0-.06m.22.16h-.17l-.05-.05m.87-.16-.65.21m1-.43-.33.22m.93.11-.6-.33m.22.54.38-.21m-.71.6.33-.39m-.06.55h-.21l-.06-.06,0-.05v0h0m.27.16.6-.22m.39-.22-.39.22m.93.11-.54-.33m.21.55.33-.22m-.71.55.38-.33m-.32.49-.06-.06v-.1m.27.16,0,.05h0l-.06-.05h0m.54-.11-.33.11m-.76,1.58,1.64-.93m-12.6-5.4,8.89-5.12m-6.82,6.32-2.07-1.2m3.71.28-1.64.92m1.91-.92H86.9m.87-.22-.6.22m1-.44-.38.22m.93.16-.55-.38m.22.55.33-.17m-.71.55.38-.38m-.33.49H88v-.11m.27.16H88.1l-.06-.05m.82-.17-.6.22m1-.43-.38.21m1,.11-.6-.32m.22.54.38-.22m-.38.22-.38.38m0,.11h0v-.11m.27.17h-.16l-.06-.06m.88-.16-.66.22m1-.44-.32.22m.92.11-.6-.33m.22.54.38-.21m-.71.54.33-.33m-.33.5v-.06h0v0l0-.06m.28.17-.06.05h-.11l0-.05h-.06m.88-.17-.6.17m1-.39-.38.22m.92.11-.54-.33m.22.55.32-.22m-.32.22-.38.33m.27.16h-.22l-.05-.05V149m.27.16.6-.22m.38-.22-.38.22m1,.17-.6-.39m.22.55.38-.16m-.71.54.33-.38m2.18,0,.33-.16m-.82-.11.49.27M89.41,146l.92-.54m-1.41.27.49.27m1.14.66.87-.55m-1.41.27.54.28m1.09.65.93-.54m-1.42.21.49.33m1.09.6.93-.49m-1.42.22.49.27m1.15.65.93-.49m-1.48.22.55.27M81.77,132.76v.16m3.6,5.29-.05.06h-.06M81,134v.27m3.93,4,.55.33m-1,10.14-2.62-1.53m0,0-.27.16m14.18,6.17-1.53-.93m0,0-.87,1m-12.6-17.24V133.8m0,2.61-.16-.11m4.8,2.79v-.39M82.7,138l.16.05.82.22.76,0,.77,0m2.23-.17,1-.54m-2.94,1.8,1.75-1m-2-2-.16,1,.16.93M81,133.91l-.06.43.11.49.38.49.55.44.76.33.88.21.81.06.82-.06m0,2-.82,0-.81-.11-.88-.16-.76-.33-.55-.43-.38-.49-.11-.5v-.05m-.6-2.62.17-.11m6.92,3.66v.92m-1.31-.32,1.31.32m-1.36-1.52-.27.16m7.47,16.91,2.56,1.47m-2.56-1.26v-.21m2.4,1.58-2.4-1.37m11.89,4.37-.22.11m-.38.16.38-.16m0,0v-2m-.6,2.34v-2.18m.22,2-.11.05-.11.11m0,0-.06.06-.05.05-.06.06-.05,0m2-.27.22-.11m-1-1.64v-.76m1.15.6v.76m-1.26,1.2,0,.06v.05h0v.06m0,0v-1.69m0,1.69h.27m0,0v-1.69m0,1.69.6-.22m0,0v-1.69m.93.38v-.22M95.3,151.36h-.06l.06.1.11.06M95.35,149l0,.11-.06.05.06.11.11.05m11,10.86h-.06v-.39m1.09-.27-.22.16m-1-4,3.27-3.65m-1.85,3.44,2-2.19m-.06-.49-2.83,3.17m-.27,1.8v2.4m.43-.33.38-.17m0,0v-2.07m-.6,2.35v-2.13m-2.45-1.31v2.4m-2.51-.38.82-1m.87,2.18.82-.49m4.53,1.69-1.86-1m0,0-.11.05-.11.06m0,0,0,.05,0,.06-.06.05,0,.06m-6-3.93-1.31.76m1.31-3.43-1.31.16m9.27,6.22.22-.11m.11-1.8v.76m-1.09-.65v-.77M107.4,160h0v.11h.06m-.22-3.76,2.62-2.89m-1.2,2.62,1.85-2.08m-.16-.27-2.62,2.89m-.27,3.49v-1.69m0,1.69.05.06h.17m.65-1.91v1.69m-.65.22v-1.69m.65,1.47-.65.22m1.58-1.53v-.27M92.73,140.78V143m16.91,17.83-.22.11M108.33,157l2.45-2.72m-1,2.45,1.8-2m-.33-.17-2.35,2.68m-.32,4.19v-.05l-.06-.16v-.11l.06-.06m-2.13-11.61,1.2-.66m1.2,12.44V159m.6,1.86-.44.16m.44-2.18v2M99.06,157l2.56,1.53m-2.56-4.8V157M99,153.65l.06,0M99,157.14v-3.49m2.62,4.85v.16m9.27,3.49L109,161.06m0,0,0,.06-.11.11m0,0,0,.05-.06.06-.11,0v.05h0m-9-10.36v-.81m11.18,10.79-.22.11m-11-7.52h-.39l-.11-.06m11.89,5.67V160m-1.09-1.37v.77m-.16,1.8v.11l0,0m-.22-3.82,2.46-2.72m-1,2.5,1.91-2.18m-.27-.16L110,157.9m-.28,3.49V159.7m0,1.69h.22m0,0V159.7m.6,1.47-.6.22m.6-1.91v1.69m-11-7.52v-2.29m6.92-.93-6.92,3.22m6.92-5.46v2.24m5.07,9.43v-.22m-12-8.28,6.92-3.17m0,0-.22-.16m-6.92,3.16L99,151m.5.33-.11,0h-.28l-.11,0m-3-6-.27.16m.87-.33.27.11M92.73,143l.17.11m-.49.11.32-.22M111.82,162l-.16.17m-1.09-4,2.34-2.57M112,158l.88-1m0-.49-1.8,2m-.28,4.25v-.05l0-.16v-.11l0-.11m.22.16v-2.13m.66,1.86-.44.16m.44-2.23v2.07m-9.22-13.09-2.07,1.2m6-.33,1.64-.92m-7.69,4.47,2.51-1.48m-2.51,4.15v-2.67m10.85,8.83-.11.06-.11,0m0,0,0,.06-.06.05,0,.11h-.06v.05m1.2-2.83v.76m-.32-1.8,1.2-1.31m0,.82-.66.76m.55,2.4v.22M92.9,140.83v.27M99,151l-.27.16M99,151v-.55m.06,0,1.31-.16m0-2.29v2.29m6,9.82,2.18,1.3m-4.42-2.56,2.24,1.26m-2.24-1v-.27m4.42,2.56,2.23,1.31m-17.67-19.9,0,.44.11.49.33.43.54.44.71.27.82.22.82.05h.43m.11.88-.11.11m.11-3.17-.11.11m-11.5-4v-2.62M84,138.27l1.37.82m-4.64-2.68.27.11m-.27,0v-.11m.38.33-.38-.22m1.09,4v-3m0,3,.06.06m0-3.22v3.22m2.78-1.64v0m0,0,.87.49m0,0v-2m.65.44-.65-.44m.65-.93v1.37m5.4,3.11V140m.71,1.26-.71-.38m5.18,4.9-.76-.43m-.11-.22.93.54m-4.36-2.5.54.32m-.54-2.94v2.62m-6.33-7.09v.49M98,143.83v2.24m-.16.38-.06.05h0m0,0v-3.05m0,3.05-.16.11m-.77-1.47-.43.05-.88-.05-.81-.22-.77-.33-.6-.43-.32-.49-.17-.49.06-.06m9,5.73h-.11m0-.6.65.38M98,146.07l.17.05m-.33,0,.16-.05m4.42,2.12v.06h0m5.07,10.14h-.06v-.11m.28.17h-.17l-.05-.06m.87-.16-.65.22m1-.44-.33.22m.93.11-.6-.33m.21.54.39-.21m-.39.21-.32.33m.27.16h-.27v0h-.06v-.05l.06-.06m.27.16.6-.16m.38-.22-.38.22m.93.11-.55-.33m.22.55.33-.22m-.71.55.38-.33m-.33.49,0-.06v-.1m.27.16h-.22m.82-.22-.6.22m1-.44-.38.22m1,.16-.6-.38m.22.55.38-.17m-.71.55.33-.38m-.11.54h-.16l-.06,0h0v-.06l0-.05m.22.16.66-.21m.32-.22-.32.22m.92.1-.6-.32m.22.54.38-.22m-.71.6.33-.38m-.33.49h0l-.05,0v-.06h.05m.28.17h-.22l-.06-.06m.6-.11-.32.17m-.82,1.58,1.69-1m-12.65-5.4,8.89-5.13m-6.82,6.38-2.07-1.25m3.76.27-1.69,1m1.91-1h-.22m.82-.16-.6.16m1-.38-.38.22m1,.11-.6-.33m.22.55.38-.22m-.71.54.33-.32m-.33.49v-.06l0-.05,0-.06m.27.17h-.27m.87-.22-.6.22m1-.44-.39.22m.93.16-.54-.38m.21.55.33-.17m-.33.17-.38.38m.06.11h-.06v-.11m.27.16h-.16l0,0m.81-.17-.6.22m1-.44-.39.22m1,.11-.6-.33m.21.55.39-.22m-.77.6.38-.38m2.19,0,.92-.55m-1.42.22.5.33m1.09.6L112,158m-1.41.22.49.27m1.14.65.33-.16m-.87-.11.54.27m-5.56-3.21.93-.49m-1.42.21.49.28m1.09.65.93-.54m-1.42.27.49.27m1.14.66.88-.55m-1.42.27.54.28m-6.32-9.11-.06.05h0m.11-.05v.05l-.06.06h-.1m-4.2-4.37v.22m3.92,4.09.55.33m-1,10.14L99,157.14m0,0-.27.16m14.13,6.16-1.53-.87m0,0-.82,1m-8-14.62v-.38m-4.63-2.29v-2.56m0,2.56-.16-.11m2.23,1.69.11.05.82.22.82.06h.71m2.29-.22.92-.55m-2.94,1.8,1.8-1m-6.22-4.42-.11.44.17.49.32.49.6.43.77.33.81.22.88.05.76-.05m0,2-.76.06-.88-.11L100,148l-.77-.32-.6-.44-.32-.49-.17-.49v0m4.31,0-.11,1,.11.92m-4.85-4.63.16-.11m6.93,3.65V148m-1.31-.33,1.31.33m-1.37-1.47-.27.16m7.47,16.91,2.56,1.47m-2.56-1.31v-.16m2.35,1.52-2.35-1.36m11.89,4.36-.22.17m-.38.1.38-.1m0,0v-2.08m-.6,2.35v-2.18m.22,2-.11.06-.11.11m0,0,0,0-.06.06,0,.05-.06.06m1.91-.22.22-.17m-.93-1.63V166m1.09.65v.76m-1.25,1.2h0v.06l0,.05m0,0v-1.69m0,1.69h.06l0,.06h.06l0-.06m0,0v-1.69m0,1.69.6-.16m0,0v-1.75m1,.38V167m-11.78-5.73v.06l.06,0,0,.05m0-2.5-.11.05v0l.06.11,0,.06m11,10.91v-.06l-.05-.16v-.11l.05-.06m1.09-.27-.21.11m2.29-7.69-3.38,3.71m1.41-.22,2-2.24m-.05-.38-2.89,3.17m-.28,1.8v2.4m.44-.39.44-.16m0,0V167.5m-.6,2.34v-2.12m-2.46-1.31v2.4m-2.51-.39.82-1m.87,2.18.82-.44m4.53,1.69L124,169.73m0,0-.11.06-.05.05m0,0-.06.11-.11.06-.05.05-.06.06m-5.94-3.93-1.31.76m1.31-3.49-1.31.17m9.22,6.21.22-.11M124.8,168v-.76m1.09.65v.77m-1.26,1.2V170l.06.05m2.34-6.71-2.56,2.89m1.42-.21,1.8-2.08m-.16-.27L125,166.52m-.27,3.54v-1.74m0,1.74h.22m.6-1.91v1.69m-.6.22v-1.69m.6,1.47-.6.22m1.91.66-.17.16m1.31-6.71-2.4,2.73m1.42-.27,1.8-2m-.33-.16-2.4,2.67m-.27,4.2h0l0-.22V171m-2.08-11.56,1.15-.71m1.2,12.43V169m.65,1.91-.43.11m.43-2.18v2.07m-7.8-2.46v.17M116.29,167l2.56,1.47m-2.56-4.79V167m-.11-3.32h.11m-.11,3.43v-3.43m11.89,8.45L126.22,171m0,0-.11,0-.11.11m0,0-.06.06,0,0-.06.05,0,.06m-9-10.36v-.82M128,171l-.22.16m-11-7.58-.11.06h-.17l-.16-.06-.11,0m10.8,5.07v.76m1,1.8-.16-.05m.32-1.86V170m-1.25,1.2h-.05v0l.05.05m2.29-6.54-2.51,2.78m1.42-.27,2-2.13m-.27-.16-2.56,2.83m-.33,3.49v-1.69m0,1.69h.06l.1.06h.06l0-.06m0,0v-1.69m.6,1.53-.6.16m.6-1.85v1.69m-11-7.58v-2.23m6.92-1-6.92,3.22m6.92-5.45v2.23m5,9.44v-.22m-11.94-8.23,6.92-3.22m0,0-.27-.17m-6.87,3.17-.33-.17m.55.39h-.11l-.17,0-.16,0-.11-.06M109.8,153l.27-.16m3.06,2.45-.27.17M129.05,172l-.22.11m1.26-6.54-2.29,2.56m1.42-.22.76-.87m.11-.6-1.8,2m-.27,4.2-.06-.06v-.32m.27.11v-2.13m.6,1.85-.38.17m.38-2.24v2.07M123.65,160l1.64-1m-7.69,4.47,2.45-1.42m-2.45,4.15v-2.73m2-4.42-2,1.2m10.85,12.06-.11,0-.11.06m0,0,0,.1-.06.06-.05.05h0v.06m1.2-2.84v.77m.87-3.11-1.2,1.31m1.25-.55-.76.82m.6,2.4v.22m-19.91-20.89v2m6.11,8.12-.27.17m.27-.17v-.54m.11.05,1.31-.22m0-2.29v2.29m3.76,8.57,2.18,1.31m-2.18-1v-.32m4.42,2.56,2.24,1.31m-4.48-2.56,2.24,1.25M114.16,156l-.16.11m.16-3.16-.16.11m-3.54-.22-.11.43.11.5.38.43.54.44.71.33.77.16.81,0h.39M102.49,149v-2.62m-1.36,1.8,1.36.82m-4.63-2.67.27.16m-.27-.05v-.11m.44.33-.44-.22m1.14,4v-3m0,3h.06m0-3.21v3.21m2.78-1.63v-.06m0,0,.82.49m0,0v-2m.71.43-.71-.43m.71-.93v1.36m5.4,3.11v-.87m.7,1.25-.7-.38m.7.38v2m0,0,.82.49m0,0v.06m3.82,2.07-1-.55m.43-.11.71.44M109.8,153l.38.27m-.38-2.83V153m-6.49-7v.55m12,7.2V156m-.17.38,0,.06h-.11m0,0v-3m0,3-.17.11m-.65-3.33h-.44l-.81-.05-.88-.22-.76-.33-.6-.44-.33-.49-.11-.49.06-.43m-.06,2.34v.06l.11.49.33.49.6.43.76.33.88.22.81,0h.39m7.52,14.4-.27-.16m-16.91-9.77-.27-.16m-17-9.76-.27-.16m-17-9.82-.27-.11m-16.91-9.81-.27-.17m-17-9.76-.27-.16m83.87,39H119m0-.6.66.38M115.26,156l.1.06m-.27,0,.17-.11m4.41,2.13v0h0m7.25,11.45v-.05h-.05v0l.05-.06m.27.16h-.27m.87-.16-.6.16m1-.38-.38.22m.93.11-.55-.33m.22.55.33-.22m-.71.55.38-.33m-.11.49H128l-.06-.06v-.1m.27.16.6-.22m.39-.22-.39.22m1,.16-.6-.38m.21.55.39-.17m-.71.55.32-.38m-.32.49h-.06v-.06l.06,0m.27.16h-.22l0-.05m.6-.06-.33.11m-.82,1.58,1.69-1m-12.65-5.34,8.89-5.13m-6.82,6.33-2.07-1.2m3.76.22-1.69,1m1.91-1,0,.05h-.11l-.06-.05m.82-.17-.6.17m1-.38-.38.21m1,.11-.6-.32m.22.54.38-.22m-.76.55.38-.33m-.33.49,0-.05v-.11m.27.16h-.22m.82-.22-.6.22m1-.38-.38.16m1,.17-.6-.33m.22.54.38-.21m-.38.21-.33.33m0,.17v-.06l-.05,0,.05-.06m.28.17h-.28m.88-.22-.6.22m1-.44-.38.22m.92.16-.54-.38m.22.54.32-.16m-.71.55.39-.39m-.33.5h-.06v-.11m.28.16h-.17l0-.05m.82-.17-.6.22m1-.44-.38.22m1,.11-.6-.33m.22.55.38-.22m-.38.22-.38.38m.27.11-.06.05h-.11l0-.05h0v-.11m.27.11.65-.16m.33-.22-.33.22m.93.11-.6-.33m.22.54.38-.21m-.71.54.33-.33m2.18,0,.33-.16m-.82-.11.49.27m-5.56-3.16.92-.55m-1.41.22.49.33m1.14.6.93-.49m-1.42.21.49.28m1.09.65.93-.54m-1.42.27.49.27m1.15.65.87-.54m-1.42.27.55.27m1.09.66.93-.55m-1.42.22.49.33m-8.51-10.42,0,.06h-.06m.11-.06,0,.06v0h-.11m-.33,0,.6.33m-1,10.09-2.67-1.53m0,0-.27.16m14.4,10.42v.06l.05.1h.06m-.22-.16h-.06l0,0v-.11M29.86,119.62v.11l.05,0H30m-1.91-1h0l.05-.06h.11m101.87,54.7-1.53-.88m0,0-.82,1m-12.65-17.29V153.7m0,2.56-.16-.11m4.8,2.79v-.39m-2.57-.65.11,0,.82.17.76,0h.77m2.29-.22.93-.54m-3,1.8,1.8-1m-6.27-4.41-.06.43.11.49.38.49.55.44.76.33.88.21.81.06h.82m0,1.91-.82,0-.81,0-.88-.22-.76-.33-.55-.43-.38-.49-.11-.5v-.05m4.31.11-.16,1,.16.87m-4.91-4.64.17,0m7,3.6V158m-1.31-.32,1.31.32m-1.42-1.47-.27.17m7.52,16.9,2.57,1.47m-2.57-1.47v.16m2.29,1.37-2.29-1.37m2-2.45h0v.05l.11.11m-.06-2.56,0,.06v.16l.11,0m-2.62-8.56v2.29m3.16,2.35-.27.16M131,165l.27.17M126.82,163l.38-.17m.33-.16-.11.43.16.5.33.43.54.44.71.27.82.22.76,0h.77m-15.33-4.63v-3.06m0,3.06.11.05m0-3.27v3.27m2.73-1.69v-.05m0,0,.87.49m0,0v-2m.71.38-.71-.38m.71-.93v1.31m5.4,3.11V160m.71,1.2-.71-.43m5.18,5-.82-.49m-.11-.17,1,.55M126.82,163l.49.32m-.49-2.89V163m-6.33-7.09v.54m-.76,2.46v-2.62m-1.37,1.85,1.37.77m-4.64-2.68.27.17m-.27-.06v-.11m.38.39-.38-.28M131.23,165l-.49,0-.82-.11-.87-.16-.76-.33-.55-.43-.38-.49-.11-.49V163M29,106.58l-.1-.1M125.78,159v.87m5.45,3.11-5.45-3.11m5.45,6.17V163m-1.14,2.4,1.14.66m-1.14,3.27v-3.93m-.27,3.76.27.17m-.27,2.12v-2.29m.27,2.4-.27-.11m.27,4v-3.87m-14.18-4.31,14.18,8.18m-14.18-12v3.81m.27-3.7-.27-.11m.27-2.13v2.24m-.27-2.4.27.16m-.27-4.09v3.93m-1.15-4.58,1.15.65m-1.15-3.71v3.06m5.46.11-5.46-3.17m5.46,3.17v-.82m-11.67-6.76v.81m5.45,3.17-5.45-3.17M114,156.1v-3m-1.14,2.4,1.14.65m-1.14,3.27v-3.92m-.28,3.76.28.16m-.28,2.07v-2.23m.28,2.4-.28-.17m.28,4v-3.87M98.73,157.3l14.13,8.18m-14.13-12v3.87m.27-3.71-.27-.16m.27-2.07v2.23m-.27-2.4.27.17m-.27-4.09v3.92m-1.14-4.58,1.14.66m-1.14-3.71v3.05m5.45.11-5.45-3.16m5.45,3.16v-.87m-11.67-6.71V140m5.45,3.16L91.37,140m5.45,6.22v-3.06m-1.14,2.4,1.14.66m-1.14,3.27v-3.93m-.27,3.76.27.17m-.27,2.07v-2.24m.27,2.4-.27-.16m.27,4v-3.87M81.5,147.37l14.18,8.18M81.5,143.5v3.87m.27-3.7-.27-.17m.27-2.07v2.24m-.27-2.4.27.16m-.27-4.09v3.93m-1.15-4.58,1.15.65m-1.15-3.71v3.06m5.46.05-5.46-3.11m5.46,3.11v-.82m-11.67-6.7V130m5.45,3.17L74.14,130m5.45,6.17v-3m-1.14,2.34,1.14.66m-1.14,3.32v-4m-.28,3.82.28.16m-.28,2.07v-2.23m.28,2.4-.28-.17m.28,4v-3.82M64.27,137.4l14.18,8.18m-14.18-12v3.82m.27-3.66-.27-.16m.27-2.07v2.23m-.27-2.4.27.17m-.27-4.15v4m-1.15-4.63,1.15.65m-1.15-3.65v3m5.46.11-5.46-3.11m5.46,3.11V126m-11.67-6.76v.87m5.45,3.11-5.45-3.11m5.45,6.16v-3m-1.15,2.4,1.15.65m-1.15,3.27v-3.92m-.27,3.76.27.16m-.27,2.13v-2.29m.27,2.45-.27-.16m.27,4v-3.82m-14.12-4.36,14.12,8.18m-14.12-12v3.82m.27-3.65-.27-.17m.27-2.12v2.29m-.27-2.4.27.11m-.27-4.09v4m-1.15-4.64,1.15.66m-1.15-3.71v3m5.46.11-5.46-3.16m5.46,3.16v-.82m-11.67-6.76v.82m5.45,3.16-5.45-3.16m5.45,6.22v-3.06M44,115.69l1.14.66M44,119.62v-3.93m-.28,3.76.28.17m-.28,2.07v-2.24m.28,2.4-.28-.16m.28,4v-3.88m-14.18-4.3L44,125.73M29.86,113.67v3.88m.27-3.71-.27-.17m.27-2.07v2.24m-.27-2.4.27.16m-.27-4.09v3.93m-1.15-4.58,1.15.65m-1.15-3.71v3.06m5.45.11-5.45-3.17M34.16,107v-.88m-5.94,12.6v-16m1.64,17-.22-.11m100.67,58.13-.22-.16m1.69,1-1.47-.82M28.33,102l-.11,0m103.56,60.48v16m0,0,.11.16.16.11.06.06h.21m0-16.31h-.16l0,.06h-.17l-.05-.06h-.11m.54,0-.27.16M91.37,139.14l-5.56-3.22m5.56,3.22L103,145.85m5.51,3.22L103,145.85m5.51,3.22,11.67,6.76m5.56,3.16-5.56-3.16m5.56,3.16,6,3.49m.27.11-.27-.16m.27.16v-.16l.06-.11,0-.06.05,0,.11-.06M28.22,102l104.1,60.15M28.22,102l-.11.11-.05.06-.06,0-.05.11v.06l-.06.1m.33.17-.33-.17m.33.17,5.94,3.43m5.57,3.22-5.57-3.22m5.57,3.22,11.67,6.76m5.51,3.17-5.51-3.17m5.51,3.17L68.58,126m5.56,3.22L68.58,126m5.56,3.22,11.67,6.7m124.77-65-.82-.39-.82-.21-.76,0-.66.22m3.22.33v-.06h-.05l-.06.06h0M235.5,85.26v-.11l-.05-.05m.05.16.82.55.82.71.7.87.6,1,.17.27M109.2,14.75l-.71-.27h-.81l-.88.16-.92.44M6.73,115.75l.06.21,0,.22.11.17.11.1M105.88,15.08,11.42,69.61m96.64-53.28-2.18-1.25M6.73,77.74v38M8.92,117l-2.19-1.25m4.69-46.14-.87.6L9.63,71l-.77,1L8.1,73.1l-.55,1.15-.43,1.2-.28,1.2-.11,1.09M8.92,79,6.73,77.74m6.93-6.87-2.24-1.26m100-53.6-.71-.28h-.81l-.88.17-.92.43m0,0L13.66,70.87m0,0-.93.65-.87.82-.82.92-.71,1.1-.6,1.2L9.3,76.7,9,77.9,8.92,79m0,0v38m0,0,.05.22.06.22.1.16.11.11M151,176.17v8m2.18-5.45v1.15M120.49.41l.05-.06m-2.12,1.26,2.07-1.2M121.42,2,120.49.41m-3.44,2,.28-.16.22-.11.21-.11.17-.11.16-.11.16-.05.11-.06.06,0m0,0,.93,1.58M76.86,25.6l.28-.16.27-.16.27-.17L78,25l.33-.22.32-.16.33-.22.27-.16m13.8-8,24-13.85M118,4l-.93-1.58M90.61,17.64l.32-.16.33-.22.33-.16.27-.17.33-.22.32-.16.28-.16.27-.17m0,0L94,17.86m-3.38-.22L79.26,24.19m0,0,.93,1.58m11.34-6.49-.92-1.64m-13.75,8L57.18,37m20.61-9.77-.93-1.58m-21,12.11.05-.06.11,0,.11-.05.17-.11.21-.11.17-.11.27-.11.22-.16m0,0,.92,1.58M4,92.62H4l-.33-.27-.22-.43-.16-.5-.06-.54M55.87,37.71l-2,1.14m2.89.44-.93-1.58M52.6,39.62l.22-.17.27-.1.16-.17.22-.11.16,0,.11-.11.11-.06h.06m0,0,.92,1.59M3.24,90.88V69.12m0,21.76,1.31.76M112.8,7.39v9.43M4.55,91.64V69.83m0,21.81.06.55.16.49.22.38.38.27.38.17.44,0,.54-.16M4.55,69.83,112.8,7.39m0,0V7.12l.06-.06V7l0-.06,0,0,.06-.06M4.77,69.34v0h0l-.06.06,0,.11v0l-.06.06v.16M3.84,67.7l-.1.11-.11.11-.11.16-.11.17-.06.16-.05.22-.06.22v.27m0,0,1.31.71M3.84,67.7l7.91-4.52m-7,6.16L3.84,67.7m7.91-4.52.17-.11.27-.11.22-.17.27-.16.27-.16.27-.17.33-.16.33-.16m-1.2,2.78-.93-1.58m16.8-9.71L52.6,39.62m.92,1.58-.92-1.58M26.09,54.89l.33-.22.33-.16.33-.17.32-.22.33-.16L28,53.8l.28-.17.27-.16m0,0,.93,1.58M13.88,62l12.21-7.09M13.88,62l.93,1.58M27,56.47l-.93-1.58M110.24,8.48,84.44,23.37m0,0-.16.05-.11.06,0,.05-.06.06.06-.06.11-.05m0,0,1-.6m0,0,.11-.06.11-.05.1-.06.17-.05.11-.11.16-.06.11-.1.16-.11m0,0,6.17-3.55m0,0,.16-.05.16-.11.17-.11.16-.06.11-.1.16-.06.17-.11.11-.05m0,0,17.5-10.15m0,0,.11,0,.11,0,.11-.06.11,0,0-.06.06,0h.11m0,0,1-.66m0,0h0V7h0l-.06,0h0l-.11.06m0,0-1,.6m0,0-.11,0-.17.11-.16,0L111,8l-.22.11-.16.11-.17.11-.16.11M45.73,45.67,19.93,60.56m0,0-.11.11-.11,0-.11.06-.05,0v0h.05l.11-.06m0,0,1-.6m0,0,.05,0,.11-.06.17,0,.11-.11.11-.05.16-.11.16-.06.17-.11m0,0L27.89,56m0,0,.17-.11.16-.06.16-.1.17-.11.16-.06.11-.11.16,0,.11-.11m0,0L46.6,45.18m0,0,.16,0,.11-.06L47,45,47,45l.11-.05.06-.06h0V44.8m0,0,1.09-.6m0,0h-.05v0h-.06l-.1.06-.06,0m0,0L47,45m0,0-.1.06-.17,0-.16.11-.17.11-.16.11-.22.11-.16.11-.16.05M27,56.47,14.81,63.56m0,0-.33.16-.33.22-.27.16-.27.17-.28.11-.21.16-.28.11-.16.11M4.77,69.34l7.91-4.58M113,6.84,4.77,69.34m116.1-67L113,6.84m7.85-4.52.17-.11.16-.06.11-.1.11-.06h0m0,0-2.07,1.2m0,0-.06.05-.11.06-.16.05-.17.11-.16.11-.22.11-.22.16L118,4M94,17.86,118,4M94,17.86l-.28.16-.27.17-.33.16-.32.16-.28.17-.32.22-.33.16-.33.22m0,0L80.19,25.77m0,0-.27.21-.33.17-.33.22-.32.16-.33.16-.27.17-.28.16-.27.16m0,0L58.1,38.53m0,0-.21.16-.28.11-.16.16-.22.11-.16.06-.11.11-.11,0H56.8m0,0-2,1.15m0,0,0,.05-.11.06-.11.05-.16.11-.22.11-.17.11-.27.11-.22.16m-24,13.85,24-13.85m-24,13.85-.28.16-.27.17-.27.16-.33.22-.33.16-.32.22-.33.17-.33.16m217,27.76-1-1.75m0,0-.11-.16-.11-.11-.11-.17-.11-.1-.16-.11-.16-.11-.11-.06-.17-.11m2,.39-.93.54m.76,3.11.17-.11.11-.11,0-.16.06-.17.05-.21-.05-.22-.06-.17-.11-.21m0,0,.93-.55m-20.4,52.73-.11,0,0-.11m11.45-57-.16-.05-.17-.06h-.43l-.17.06h-.1l-.17.11M242,81.55l-6.16-2.29M242,81.55,243,81m-6.16-2.29-.93.54m-1.2.06L218.1,88.86m16.58-9.54.93-.55M216.8,125.45l7.63,10.8m0,0,1.31.76m-16.8-49.95.11-.33.06-.32.16-.28.16-.27.17-.27.22-.22.21-.22.28-.16m0,0,.92-.55M205.67,101l.27-.16.22-.17.22-.21.16-.28.17-.27.16-.27,0-.33L207,99m0,0,1.91-11.94m.93-.54-.93.54M207,99l.93-.54m-28.36,23-1-1.74m0,0-.06-.17-.11-.16-.16-.11-.11-.11-.11-.11-.16-.11-.16-.11-.17,0m2,.38-.92.55m.82,3.11.1-.11.11-.11.11-.17.06-.21v-.39l-.06-.21-.11-.17m0,0,.93-.54m-9.11-4.48-.16,0h-.16l-.17-.05h-.16l-.16.05h-.11l-.17,0-.11.06m7.31,2.29-6.11-2.35m6.11,2.35.93-.55m-6.11-2.34-.93.54m-19.63,61.46h0l-.33-.27-.21-.38-.17-.49-.05-.6m19.19-59.66-16.63,9.6m16.63-9.6.93-.49m-26.67,8.23.06-.32.11-.28.11-.32.16-.28.22-.21.16-.28.28-.16.21-.16m0,0,.93-.55m79,15.32L218,126m7.75,11,0,.11.11.06.11,0h.38l.17,0,.11-.06m0,0,26.88-15.54m7-8.45V92.68M152.34,176.93l0,.6.17.49.21.38.33.28.44.16H154l.55-.11.49-.27m10.8-6.22,20.39-11.78m-31.19,18,.93-.49m30.26-17.51.17-.05.1-.17.17-.1.11-.17.11-.16.11-.17.1-.16.11-.16m7.75-20-7.75,20m10-22.91-.33.28-.33.27-.32.33-.33.32-.27.39-.28.43-.21.44-.22.43m20.72-13.47-18.43,10.58M218,126l-.21-.22-.22-.16-.27-.11-.28-.06h-.32l-.33.06-.33.11-.38.21M151,154.41v21.76m0,0,1.31.76m0-21.76v21.76M260.53,92.68,152.34,155.17M259.93,90.61l.16.27.11.27.11.27.11.22.06.28,0,.27v.49M151,154.41v-.22l-.06-.05V154l-.05-.11v-.11l0-.11-.06-.11m1.53,1.58-1.31-.76m1.31.76v-.27l-.06-.22-.05-.27-.06-.27,0-.28-.11-.27-.16-.27-.11-.22M142.9,140l-.16-.33-.11-.33-.16-.32-.06-.38,0-.33-.06-.38.06-.33v-.33m0,0,2.12-13m.93-.49-.93.49m-2.12,13,.92-.54M142.9,140l7.91,13.63m-7-14.12-.93.49m7.91,13.63.93-.49M171.15,116l-17.5,10.09M171.15,116l.11-.11.16,0h.77l.16,0m6.11,2.34-6.11-2.34m6.11,2.34.16.06.17.11.16.11.11.11.11.11.16.1.11.17.05.16m1,1.75-1-1.75m1,1.75.11.16.05.22v.38l-.05.22-.11.16-.11.11-.11.11m-25.79,14.89,25.79-14.89m-25.79,14.89-.16.11H154l-.16-.06-.16-.11-.17-.11-.16-.16-.11-.16m-1-1.75,1,1.75m-1-1.75,0-.16-.11-.17,0-.16v-.16l-.06-.17v-.54m1.09-6.49-1.09,6.49m1.09-6.49v-.16l.06-.17,0-.11.11-.16,0-.11.11-.11.11-.11.17,0m82-47.34L218.1,88.86m17.51-10.09.16,0,.11-.06.17,0h.43l.17,0,.16.06M243,81l-6.16-2.29M243,81l.16.11.11,0,.17.11.16.11.11.11.11.16.11.11.11.17m1,1.74-1-1.74m1,1.74.11.22.05.16.06.22-.06.22-.05.16-.06.17-.11.16-.16.11M219,100,244.77,85.1M219,100l-.17.05h-.32l-.22-.05-.17-.06-.16-.16-.11-.11-.16-.16m-1-1.75,1,1.75m-1-1.75-.11-.16-.06-.17-.05-.22-.06-.16v-.16l0-.17,0-.16v-.16m1-6.49-1,6.49m1-6.49.05-.17.06-.16.05-.16.06-.11.11-.17.11-.11.1,0,.11-.11m41.83,1.75L252.08,77m0,0-.22-.32-.22-.28-.22-.27-.27-.27-.27-.22-.33-.22-.27-.16-.33-.11m0,0-12.27-4.64m0,0-.33-.11-.32-.1h-.93l-.27.1-.33.11-.27.11m0,0-24,13.85m0,0-.27.17-.22.22-.22.21-.16.28-.16.27-.11.27-.11.33-.11.33M208,98.46l1.91-11.94M208,98.46l-.11.33,0,.32-.17.28-.16.27-.16.27-.22.22-.22.22-.27.16M187,111.87l19.63-11.34M187,111.87l-.28.11-.27.11-.33.06-.27,0h-.33l-.32,0-.33-.06-.33-.11m-11.29-4.3,11.29,4.3m-11.29-4.3-.32-.11-.33-.06-.33-.05h-.33l-.32.05-.28.06-.27.11-.27.16m0,0-24.05,13.85m0,0-.22.16-.27.22-.16.22-.22.22-.17.27-.1.33-.11.33-.06.32m0,0-2.13,12.93m0,0V137l-.05.33.05.38.06.33,0,.38.17.33.11.38.16.33m0,0,7.91,13.63M259.93,90.61,151.74,153.1M4.5,122v.27l0,.11.06.11v.11l0,0,.06.11m-1.53-1.53v.22l.05.27V122l.11.27.06.27.11.28.16.21.11.28m8.67,15,.16.28.17.21L13,139l.17.22.21.22.22.16.17.16.21.11m-.54-2.12,0,.11.06.11.05.05.11.11.06.05,0,.06.11,0,0,.06m-.54-.6-.93.54m-8.67-15,.93-.55m7.74,15.54-8.67-15m9.6,14.45-8.67-15m2-29.12-.87.55m-2.67,27V98.84M4.5,122l-1.31-.77m0-22.41.05-.65.17-.66.22-.65L4,96.22l.44-.65L4.83,95l.49-.43.54-.38M4.5,99.6l-1.31-.76m3.54-3.6-.1.06-.5.49-.43.54-.44.6-.32.71-.22.66L4.55,99l0,.65M4.5,122V99.6m220.86,38.61,28.46-16.47m-38,31.8.06-.22.11-.16.05-.22.11-.17.06-.16m8-14.07h.11l.33,0,.38-.11.33-.17m0,0,1.31.77m-19,13.79,8.18.77m0,0,1.31.76m-9.6-1,.11-.49m.93,4.64h-.05l-.6-.55-.39-.76-.05-.27m.16-3.06,1.31.77m3.55-6.44.27,0,.87-.06.77.28m-5.73,4.25.87.49m-1.14,7.14.54.11,1.09-.11,1.09-.43.66-.38m.54-.28,1.26.71m-7.85-6.16.87.11m0,0,1.31.76m8.94-3.87v-.05l-.11-1.26-.27-1.09-.55-.87,0-.06m1,4.86,1,.6m-14.23,2.62L204,154m1.58-1.2.87.49m-.7-2.84v-1.25m.1,1.85,1.2.71m-10.25,8.56.66-.81m11.94-20.07.87.49m4.09-13.09.16-.05.11-.06H215l.1.06m-12,29.12.87.49m.16.54v-.32l-.11-1.26-.32-1m-7.09,12.21h.27l1.09-.33,1.15-.6m4.58-11.28,1.31.76m-9.66,5.18,1.42,0m0,0,1.31.77m12.38-20.51V140l-.11-1.2-.16-.43M205.83,149l.93-.71m-.93.87,1.2.71m-7.25,4.53.82-.11.76.11.38.16M195.91,159l.87.55m9.05-11.78,1.2.71m-3.76,5.12,1.15.66M13.93,139.9v-1.52m127.66,75.2L13.93,139.9m127.66,72.15L13.93,138.38m127.66,73.67.06.06,0,0h.39l0,0m-.55-.06v1.53m0,0,.17.11.22.05.21.11h.55l.16,0,.17-.06m59.11-65.33-.22-.16-.54-.66-.33-.81m3-7,.93.55m-3,9.82.33.05,1-.05,1.1-.33m0,0,1.3.76m-20.94,11,.39-.21.32-.33.33-.27.16-.22m10-23.07,18.27-10.58m1.31.76-1.31-.76m-71.27,86.87,108.19-62.49m0,0,8.67-5M150.81,207.14l-8.67,5m.93,1.63-.93-1.63m9.6-3.39-8.67,5m7.74-6.6.06,0,0-.06V207l.05-.06v0l.06-.11v-.16m-.22.54.93,1.58m0,0,.11-.1.16-.11.11-.17,0-.16.06-.16.05-.22.06-.22v-.22m-.6,1.36,108.19-62.49m.6-1.36v.49l0,.16-.06.22-.11.16-.11.11-.11.17-.16,0m-94.12,26.34,19.08-11m-31.19,18,2.51-1.42m30-15.81-1.37-.77M151,184.18V206.6m1.31.76L151,206.6m0-22.42.05-.6.17-.7.21-.66.33-.65.44-.66.43-.54.55-.44.49-.38m-1.36,5.4-1.31-.77m2.67-4.63,1.31.76m61.57-52.57,7.8,11m-7.8-11-.06-.11-.11,0-.11,0-.1-.06h-.11l-.17.06-.11,0-.16,0m-18.43,10.64,18.43-10.64m-18.43,10.64-.11.11-.16.11-.11.11-.17.16-.11.16-.11.17,0,.16-.11.22m-7.74,20,7.74-20m-7.74,20-.22.43-.22.44-.27.44-.27.38-.33.32-.33.33-.33.27-.32.28M165.81,174.1l20.45-11.78m-31.25,18,2.51-1.47M155,180.31l-.49.38-.55.44-.43.55-.44.65-.33.65-.21.66-.17.65,0,.66m0,0v22.41m0,0,108.19-62.49m0-20.62v-1.58m0,22.2V133.8M226.67,139l28.46-16.47M226.67,139l-.33.16-.38.11-.33.05h-.33l-.27-.05-.27-.11-.22-.16-.16-.22m-18.55,10.41-.92.28-.93-.11-.71-.33-.54-.65-.33-.93-.11-1.09.16-1.2.38-1.31.6-1.25.77-1.2.87-1m.76-2.07v10.9m1.2-11.61-.11.11-.16.05-.16.11-.17.06-.11.11-.16.05-.16.11-.17.11m1.2,10.2V137.56m3.22,2.4.27.87.06,1.09-.11,1.15-.38,1.25-.55,1.2-.71,1.15-.87,1-.93.82m.77-5.35,2.45-3.16m-2.45,1.53v1.63m2.83-5.29-2.83,3.66m-.77,8.39,1.15-.92,1-1.15.87-1.31.76-1.42.55-1.47.32-1.47.06-1.36-.11-1.2-.44-1-.6-.71m-3.6,14v-1.91m1.48,2-1.48-.11m10.91,0,.22-1.42-.06-1.25-.32-1.1-.55-.87-.71-.6-.87-.27h-1l-1.14.33-1.09.65-1.15.87-1,1.09-.93,1.31-.76,1.42m8.34-.27,1.09.11m-8.4.27.71-1.25.87-1.09.93-.88,1-.65,1-.33.87-.05.82.27.6.54.38.82.22,1-.11,1.2m.87,1.09-8.18-.71m7.58,2.29.06-.22.11-.16.05-.22.11-.16.05-.22.06-.22.05-.16.11-.22m-8.78.82,8.18.76m-4.8,3.82-.92.33h-.88l-.7-.28-.6-.54-.39-.77-.16-1v-1.14l.27-1.2m3.27,1.31.11,3.27m1.15-3.16-1.26-.11m1.37,3.92-.11-3.81m-5.56-1.48-.39,1.42-.1,1.36.16,1.26.38,1,.6.77.76.49.93.22,1.09-.11,1.09-.44,1.15-.71m-7.15-5.45,1.48.16M205,155.12l1.41-1.8M196.29,167l.87.33h1l1.09-.27,1.15-.6,1.14-.88,1-1.09.92-1.31.82-1.41.6-1.48.38-1.41.11-1.42-.11-1.26-.32-1m-7.64,10.52L196.29,167M204,156.43l.22,1,.05,1.14-.22,1.26-.49,1.31-.65,1.25-.82,1.15-.93.92-1,.77-1,.43-1,.17-.82-.17m-1.58.93L204,156.43m-8.78,9.32.05.11.06.11.11.11.05.11.06.11.11.11.05.11.11,0m7.58-11-8.18,10.2m1.58-6.21.66-1.2.76-1.09.87-.88,1-.71.93-.43.93-.17.76.11.71.38m-4.09,4-2.51-.05m1.31,1.58,1.2-1.53M195.15,161l2.94.11m6.33-6.87-.77-.49-.92-.22-1,.05-1.15.44-1.14.65-1.09.93-1,1.2-.87,1.31-.76,1.42-.49,1.47m10.68-8.51-1.41,1.75m1.41-3.66v1.91m-.76-13.63L204,140l-1,1.25-.76,1.42-.65,1.47-.39,1.48-.16,1.36.11,1.31.33,1,.54.88.71.54.93.27,1-.05,1.09-.33m-.76-10.25v-1.47M160.9,175.62l.93-1m-1,1,.06-.06m1-1.63,0,.65m0,0L164,176m-3.17-.27.06-.06m0,0,.22-.22.16-.27.16-.27.17-.27.11-.28.11-.27m-1.15,2.89,1.53.87m-1.53-.43.22-2.4m1.8-1.86L160.9,175m1.8-1.86,1.53.44m0,0L164,176m-1.8,1.85L164,176m-3.33,1.42,1.53.43m-1.42-9.54-.65-.22h-.82l-.87.28-.93.6-.87.76m0,0-.82,1-.71,1.15-.49,1.14-.27,1.2-.11,1.09.16,1,.33.82.54.55.11,0M165.86,173v-.17l-.16-.93-.33-.81-.54-.55-.71-.27h-.88l-.87.33-.93.54-.87.82m0,0-.82,1L159.1,174l-.55,1.2-.27,1.2-.11,1.09.17,1,.32.77.55.54.71.27h.87l.87-.27.38-.22m-.87-7-.76,1-.66,1.09-.43,1.15-.22,1.09v1l.22.82.43.66.66.38.76,0,.82-.22.93-.54.81-.71.77-1,.65-1.09.44-1.15.22-1.09v-1l-.22-.88-.44-.6-.65-.38-.77-.05-.81.21-.93.5-.82.76m-.27,14.18.93-1m-1,1,.06-.05m1-1.69,0,.71m0,0L164,187m-3.17-.22.06-.05m0,0,.22-.28.16-.21.16-.28.17-.27.11-.27.11-.27v-.06m-1.15,2.95,1.53.87m-1.53-.49.22-2.35m1.8-1.91-1.8,1.91m1.8-1.91,1.53.5m0,0L164,187m-1.8,1.91L164,187m-3.33,1.42,1.53.49m-3.71-9.54-.05.05-.93.55-.87.81m0,0-.82,1-.71,1.09-.49,1.2-.27,1.2-.11,1.09.16,1,.33.76.54.55.11.05m10.47-4.63V184l-.16-1-.33-.76-.54-.54-.71-.28h-.88l-.87.33-.93.55-.87.81m0,0-.82,1-.65,1.09-.55,1.2-.27,1.14-.11,1.15.17,1,.32.76.55.55.71.27h.87l.87-.33.38-.16m-.87-7-.76.93-.66,1.09-.43,1.15L159.1,188v1l.22.88.43.65.66.33.76.11.82-.28.93-.49.81-.76.77-.93.65-1.09.44-1.14.22-1.15v-1l-.22-.87-.44-.66-.65-.32-.77-.06-.81.22-.93.49-.82.76m97.34-53.33.93-.93m-1,1,.05-.11m1-1.64-.05.71m0,0,2.18,1.26m-3.16-.27.05-.06m0,0,.22-.22.16-.22.17-.27.16-.27.11-.27.11-.33m-1.15,2.94,1.53.88m-1.53-.49.22-2.35m1.8-1.91-1.8,1.91m1.8-1.91,1.53.49m0,0-.22,2.35m-1.8,1.91,1.8-1.91m-3.33,1.42,1.53.49m-3.71-9.55-.05.06-.93.54-.93.82m0,0-.76,1-.71,1.09-.49,1.2-.27,1.2-.11,1.09.16,1,.33.76.55.54.11.06m10.47-4.64v-.11l-.17-1-.33-.76-.54-.55-.71-.27h-.87l-.87.27-.93.6-.87.77m0,0-.82,1-.66,1.14-.54,1.2-.27,1.15-.11,1.14.16.93.33.82.54.54.71.28.82-.06.93-.27.32-.16m-.81-7-.77.93-.65,1.09-.44,1.14-.22,1.09v1l.22.87.44.6.65.39.77.05.81-.22.88-.49.87-.76.76-1,.66-1,.43-1.15.22-1.14v-1l-.22-.81-.43-.66-.66-.33-.76-.11-.82.22-.93.55-.81.76m-.28-8.07.93-1m-1,1,.05-.06m1-1.69-.05.71m0,0,2.18,1.25m-3.16-.21.05-.06m0,0,.22-.27.16-.22.17-.27.16-.28.11-.27.11-.27v-.06m-1.15,2.95,1.53.87m-1.53-.49.22-2.34m1.8-1.91-1.8,1.91m1.8-1.91,1.53.49m0,0-.22,2.34m-1.8,1.91,1.8-1.91M258.29,121l1.53.49m-1.42-9.6-.65-.21-.82,0-.87.27-.93.55-.93.82m0,0-.76,1-.71,1.09-.49,1.2-.27,1.2-.11,1.09.16,1,.33.76.55.55.11,0m10.47-4.63v-.11l-.17-1-.33-.77-.54-.54-.71-.27h-.87l-.87.32-.93.55-.87.82m0,0-.82,1-.66,1.09-.54,1.2-.27,1.14-.11,1.15.16,1,.33.76.54.55.71.27h.82l.93-.32.32-.17m-.81-7-.77.92-.65,1.09-.44,1.15-.22,1.14v1l.22.87.44.65.65.33.77.11.81-.27.88-.49.87-.77.76-.92.66-1.1.43-1.14.22-1.15v-1l-.22-.87-.43-.65-.66-.33-.76-.06-.82.22-.93.49-.81.77M.35,96.88l.11-1L.79,94.7l.55-1.15.71-1,.81-.87.44-.32M1.5,99.88l-.16-.11-.55-.55L.46,98.4l-.11-1m0,0,.11-1.14.33-1.2.55-1.15L2,92.79l.82-.93.49-.44M.35,85.81l.11-1.09.33-1.15.55-1.14.71-1,.81-.87.38-.32M1.5,88.75l-.16-.11L.79,88.1l-.33-.82-.11-1m0,0,.11-1.15L.79,84l.55-1.2L2,81.72l.82-1,.43-.39m217.37-1.3L111.38,16M237.9,89l-10-5.78M9.24,117.71,151,199.56m-8-59.38L18.4,68.25M213.52,83.14,103,19.33M230.86,93.11l-10.08-5.78M36.35,117.44V119m1.09-1.09V118m0,0v2.07m1.09-1.42v1.58m1.14-1v2.29M40.76,120v1.58m1.15-1v2.3M43,121.25v1.26m-14.94-20v16.3m1.31-14.61-.11.54v1.37l.11.49m24.15,20.72v1.58m-9.87-9.65v2.29m11,6.27V128m0,0v2.07m1.09-1.47v1.58m1.15-1v2.29M58,129.92v1.59m1.09-1v2.4m1.09-1.69v1.31M41.25,111.11l-.1.55V113l.1.49m5.35.65-.17.55v1.36l.17.55m24.16,20.67v1.58m-9.93-9.65v2.29m11,6.27v.16m0,0V140M73,138.6v1.52m1.09-1v2.24m1.09-1.53v1.58m1.15-1v2.3M58.49,121l-.11.54v1.36l.11.55m18.92,17.67v1.25M63.78,124.09l-.11.54V126l.11.54M88,147.21v1.58m-9.93-9.59v2.23m11,6.33v.11m0,0v2.07m1.09-1.42v1.58m1.15-1v2.29m1.09-1.59v1.59m1.14-1v2.29M75.72,131l-.16.55,0,1.36.11.54m18.92,17.67v1.26M81,134.07l-.11.54v1.31l.11.55m24.16,20.72v1.53m-9.93-9.6v2.24m11.07,6.32v.11m0,0v2.07m1.09-1.41V160m1.15-1v2.29m1.09-1.53v1.53m1.09-1v2.29m1.09-1.58v1.25M92.9,140.94l-.11.55v1.3l.11.55m9.49,4.91h.1M98.19,144l-.11.55v1.31l.11.54m24.21,20.73v1.58M112.47,159v2.24m11,6.33v.11m0,0v2.12m1.14-1.47V170m1.1-1v2.29m1.09-1.53v1.58m1.14-1v2.29m1.09-1.58v1.31m-18.81-21.32-.11.54v1.37l.11.49m9.32,4.85h.17M28.06,118.75l1.42.81M28,118.69l.06.06M30,119.84l99.95,57.69m.5.27,1.69,1m-16.69-24.87-.11.54v1.37l.11.49M129.71,169v2.29m-2.4-10.47-.11.55v1.3l.11.55m80.21-92.65-.81.49m16.08,6.76-12-6.92M235.45,85.1,230.05,82M111.38,16l-2.18-1.26M7.06,116.45l2.18,1.26M121.47,2,120.54.35M4,92.62l1.36.71m219.22,43.08,1.31.77m-74.11,40.73,1.31.77m55.46-21.27,1.31.76M215.7,148l-1.3-.76m2-19.69-1.31-.76m-12,28.52-1.31-.77m.44-6.16,1.31.76m-48.1,28.47,3.93,2.24m5.4-9.38-3.93-2.24m5.07,5.24V173M162,179.6l.44-.21m-7.09,9.32,3.93,2.29m5.4-9.38-3.11-1.8m4.25,4.8v-.54M162,190.73l.44-.27M253,132.38l3.92,2.29m5.4-9.38-3.11-1.8m4.26,4.74v-.49m-3.88,6.66.44-.28m-7-12.87,3.92,2.29m5.4-9.38-3.93-2.29m5.08,5.29v-.54m-3.88,6.65L260,123M.35,96.88v.54M1.5,99.88l1.69,1m-2.84-15v.49M1.5,88.75l1.74,1"/></g></g></svg>