<svg xmlns="http://www.w3.org/2000/svg" viewBox="0 0 372.21 355.11"><defs><style>.cls-1{fill:none;stroke:#000;stroke-linecap:round;stroke-linejoin:round;stroke-width:0.71px;}</style></defs><g id="Layer_2" data-name="Layer 2"><g id="Layer_1-2" data-name="Layer 1"><path class="cls-1" d="M322.75,136.85l11.4,6.5M132.55,27,315,132.25M8.45,112.35,227,238.55M18.65,92.75,221.85,210M8.45,110.45,227,236.55M8.45,203.25,228,330M8.45,114.25,227,240.35m88.6-36.2,1.5.9M140.75,9.45h0m1-.6h0m-3.1,1.7h0m-29.6,17.2h0m-57,32.9h0m1-.6h0M50,61.75h0M20.35,79h0m254.8,164.6,1.5.9m7.4-19.2-1.4-.9m-239.2-.5-26.7,15.4m-14.6-25.2,12.2-7.1m-.8-.4L2,213.25m42.2,11-26.9,15.5m195.4,112.8,15.3-8.8M132.55,27l1.7-.8,1.8-.5h1.6l1.4.3.7.3M8.45,112.35v.2l.1.2.1.1.1.1m123.8-86L18.65,92.75m-10.2,19.6v-1.9m10.2-17.7-2,1.3-1.9,1.8L13.05,98l-1.6,2.4-1.3,2.5-.9,2.6-.6,2.6-.2,2.4m171,157.8-1.1.6M8.75,203.75h0l-.1-.1-.1-.1-.1-.1v-.2m169.9,65.6,16.4,9.5m-16.4-25.2v15.7m16.4-6.1-16.4-9.6m16.4,25.2v-15.6M8.45,203.25v-89M229,273.05v-1.4m0,35.8v-2.8M8.45,114.25v-.2l.1-.2.1-.2.1-.2.1-.2.1-.2m174,154.8v-.6m-1.5-.9v.6m6-1.5,2.5-3m.1,1-1.5,1.8m-.8.4,2.2-2.6m-8.3,3.2v-2.5m-.5,3.1v-3.1m.3,0h.2m4-2.4,1.4-.8,2-1.1m-7.4,4.3.1-.1m-.7,3.2v-3.1m3.9-1.1.4-.3.3-.2m0,0v-2.7m-.8,3.3.1-.1m0,0V260m4.6,5.9,1.2-1.5m-.5-.5-1.8,2.2m2.1-1.9-1.8,2.1m-3.9-6.2v2.7m-.8.3.4-.2.4-.1m6.9,2.2-1.2,1.5m-1.1.2,1.7-2m-1.4,2.2,1.7-2m-2.6-2.1,1.1-.6m-4.3-1.2.9-.5,2.1-1.3m-7.7,4.5.1.1h.3m10.2,3.3,1.3-1.6m-.7-.3-1.7,2.1m2.1-1.9-1.7,2.1m-6.8-4.4v-2.7m-2.7,3.4v-2.7m0,2.7,1.5-.4,1.2-.3m-3.1-2h.1l.1.1h.1l.1-.1m0,0,1.5-.3,1.2-.4m0,0,.4-.1.4-.2m0,0h.1V260m0,0,.4-.3.3-.2m0,0h-.1l-.1-.1m0,0-.4.3-.3.2m0,0-.1.1m0,0-.4.2-.4.1m0,0-1.4.4-1.2.3m0,0h-.2m10.4,6.9,1.9-2.3m0,1.1-.8.9m-.7.5,1.5-1.9m-11.7-5.7,1.5-.9m3,5.8v.7m7.2,1.3-.9,1.1m.8-.3-.4.5m-11.2-8.2h-.5m.5,0v-1.4m-.6,1.9v-.5m0,.5H181v.1m11.8,15.4.4-.3m-.2-.1h0m0,0h0m-9-16.4.5.3m0,0-.3-.2-.2-.1m.3-.5h.2m0,0,.4-.2.3-.2m-.7,1.2v-.8m2.7-.8-2.7,1.6m-5-2.6.7.9.8.6m-1.5-1.5v-2m5.7,3.4h0m0-.3v.3m1,7.3,5,2.8,2.1,1.2m-10.3-2.2,1.8-1,1.4-.8m-4.7.9.9.5.6.4m-1.5-.9h-.2m8.2-3.9-1.2-.7m-6.6,3.9,3.7-2.2,2.9-1.7m-6.8,4,.1-.1h.1m1.3,1-.8-.5-.7-.4m1.5.9,1.8-1.1,1.4-.8m7.1,4.1-3.1-1.8-4-2.3m5.7,7,1.5-.9m-1.5-3.4-.2-.1-.2-.1m1.1-.3-.4.3-.3.2m-2.1-1.2-.2-.1-.1-.1m1.1-.2-.4.2-.4.2m-2-1.2-.2-.1-.1-.1m1.1-.2-.5.2-.3.2m5.5,2.7-.1.1-.3.2m-.4-.2.2.1.2.1m-1.3-1.6-.4.2-.3.2m-.4-.2.2.1.2.1m-1.3-1.6-.4.2-.4.2m-.3-.2.2.1.1.1m4.6,7-.8-.5-.7-.4m0,0v.7m0,0,.9.4.6.4m0,.1-6.8-4-5.4-3.1m0,0h-.1m-.1.1.1-.1m-1-11.9h0m-.2.1v-.2m1.2,5.6v-1.6m.1,1.6h-.1m.1,0v-1.6m2.6.7.2.1m0,0v-.3m-.5.3.5-.3.3-.2m.9-.4-.5.2-.4.2m.9-.4v-.4m-.1,0h0l.5.3m-1.4-.8.2.1h.1m-3.5-1.2v2.1m0,0,1.3.5,1.2.3m0,0v-2m-3.4-2.7-.6.4m0,0,.7.8.8.6m0,0,1.3.6,1.2.3m0,0,.6-.4m1.5,1.4,1.1-.7m-1.1.7-.3-.2-.2-.1m.5.3v-1.3m-.8.3h.1l.1-.1m8.4,10.3-.1.1m0,0v.2h.1v.1m-.1,2.5h0l.1.1m-9.2-13,.5.3.4.2m0,0v-1.3m4.6,3.4v.5m0,0,.5.3m.3-.3v.1m-5.5-3.5v-.5m-.8.8v-.5m5.8,6,.6.9.8.6m-1.4-1.5v-2m4.6,4.1-.1-.1m.1,0h0m-.6.3.3-.2.3-.1m0,0h0m-3.2-2.5v2m0,0,1.4.6,1.2.2m0,0v-2m-3.4-2.6-.6.3m0,0,.6.9.8.6m0,0,1.4.5,1.2.3m0,0,.6-.3m-5-3.7v.8m0,0,2.8,1.6,2.2,1.3m0,0v2.4m0,0-.3-.2m-.9,0v2.7m0,2.6v-2.6m0,2.6v3.3m0,0-7-4.1L181,267m0,0v-3.3m0,0v-2.6m0,0v-2.3m-1.3-3.6v-.4m0,0,2.9,1.6,2.2,1.3m0,0v-.8m-5.8-3.3V268m0,0,1.5.8,1.1.7m0,0v.5m0,0,6.3,3.6,4.9,2.9m0-.5v.5m0-.5,1.4.8.6.3m-80-78.1.5.4.8.9.7,1.1.4,1.2v.7m-.7,1.7.4-.4.3-.9v-1.1l-.4-1.2-.7-1.1-.8-.9-.9-.6-.9-.1-.6.1m-.5.4.1-.1.8-.1,1,.4.9.7.7,1.1.6,1.2.2,1.1-.2,1-.4.7m0,0-.2.1m.2-.1.4-.7.1-1-.2-1.1-.5-1.2-.8-1-.9-.8-.9-.3h-.8l-.5.5-.3.8v1.1l.4,1.2.7,1.1.8.9.9.6.9.2.7-.3m-19.4-16.6.4.3.8.8.7,1.1.5,1.2.1,1.1-.2.9m-.5.6.5-.6.2-.9-.1-1.1-.5-1.2-.7-1.1-.8-.9-1-.4-.8-.1-.4.1m-.5.3h0l.7-.1.9.3.9.7.8.9.6,1.2.3,1.2v1l-.4.8-.3.2m-4.1-5.6-.2.9.1,1.1.5,1.2.7,1.1.8.9.9.4.9.1.6-.3.4-.8.1-1-.3-1.2-.6-1.1-.8-1-.9-.7-.9-.3-.7.2-.6.5m-15.1-11.1.4.3.9.9.6,1.1.4,1.1.1.9m-.7,1.6.5-.4.2-.9-.1-1.1-.4-1.2-.7-1.1-.8-.9m0,0-.9-.5-.9-.1-.4.1m-.6.3h.1l.8-.1.9.3.9.7.8,1,.5,1.2.3,1.2-.1,1-.4.7-.2.2m-2.3-.5.9.5.9.1.7-.3.4-.7v-1l-.2-1.2-.6-1.2-.8-1-.9-.7-.8-.3-.8.1-.6.6-.2.8.1,1.1.4,1.2.7,1.1.8.9m-17-16.2.4.2.9.9m0,0,.7,1.1.4,1.1.1,1m-.7,1.6.5-.5.2-.9-.1-1.1-.4-1.2-.7-1.1m0,0L61,168l-.9-.5h-.9l-.4.1m-.5.3h0l.8-.1.9.2.9.7.8,1,.6,1.2.2,1.2v1l-.4.7-.3.3m-3-1.3.8.8,1,.5.8.1.7-.4.3-.7.1-1-.3-1.2-.6-1.2-.8-.9-.9-.7-.8-.3-.8.1-.5.6-.3.9.1,1.1.5,1.2.7,1.1m-17.7-10.6-.4-.5m0,0-.5-.6m0,0-1.1.7m1.1-1.3v.6m.9,1.3-1,.6m.1-2.5v.3l.1.1v.2l.1.2.1.1.1.2.1.1m0,0,.1.2.1.1.2.1m-1-1.7,1,1.2m0,1.3v-1.3m0,1.3-1,.1m0,0-1-1.2m0-1.3v1.3m1-1.4-1,.1m4.9,2.2h0l.5-.5.1-.8m0,0-.1-1-.5-1-.6-.9-.8-.6-.8-.3-.7.1m-.8,6.2h0l.8.3.7-.2.4-.5.2-.8m0,0-.2-1-.4-1-.7-.9-.8-.6-.8-.3-.6.1-.5.5-.1.9m3.6,2.3-.2-.8-.4-.9-.5-.8-.7-.6-.7-.2-.6.1-.4.4-.1.8.1.8.4.9.6.8.7.6.7.2.5-.1.4-.5.2-.7m89.4,51.6-.4-.5m0,0-.5-.6m0,0-1.1.6m1.1-1.2v.6m.9,1.3-1,.6m.1-2.5v.3l.1.1v.2l.1.2.1.1.1.2.1.1m0,0,.1.2.1.1.2.1m-1-1.8,1,1.3m0,1.3v-1.3m0,1.3-1,.1m0,0-1-1.3m0-1.3v1.3m1-1.4-1,.1m4.9,2.3h0l.5-.5.1-.8m0,0-.1-1-.5-1-.6-.9-.8-.7-.8-.2-.7.1m-.8,6.2h0l.8.2.7-.1.4-.5.2-.8m0,0-.2-1-.4-1-.7-.9-.8-.7-.8-.2-.6.1-.5.5-.1.8m3.6,2.4-.2-.9-.4-.9-.5-.8-.7-.5-.7-.3-.6.2-.4.4-.1.7.1.9.4.9.6.8.7.5.7.3.5-.1.4-.5.2-.7m5.7-189.6-1.5-.6-1.8-.1-1.9.5-2,.9M6.45,202.05v.2l.1.1v.2h.1m123.9-176.7L16.65,91.55M132.55,27l-2-1.1M6.45,109.25v92.8m2,1.2-2-1.2m133.3-175.8-1.5-.5-1.8-.1-1.9.4-2,.9m0,0L18.65,92.75m-10.2,17.7v92.8m0,0v.2l.1.1.1.1.1.1m7.9-112.2-2,1.4-1.9,1.8-1.7,2.1-1.6,2.3-1.3,2.6-.9,2.5-.6,2.6-.2,2.4m2,1.2-2-1.2m12.2-16.5-2,1.3-1.9,1.8L13.05,98l-1.6,2.4-1.3,2.5-.9,2.6-.6,2.6-.2,2.4m10.2-17.7-2-1.2M229,304.65v2.8m0-35.8v1.4m136.3-78.7v-.5m0,34.6v-1.6M231,304.35V306m0-34.6v.5m92.4-56.7h0l-.2-.2-.2-.2m28.8-83.5-1-1.8m0,0-.2-.3-.2-.2-.1-.2-.2-.2-.2-.1-.3-.2-.2-.1-.2-.1m2.7.7-1.1.7m.6,3.9.3-.1.1-.2.2-.3v-.3l.1-.3-.1-.3-.1-.3-.1-.3m0,0,1.1-.7m-9.4-4.7-.3-.1h-1.1l-.3.1-.2.1m7.6,2.1-5.7-2.2m1.1-.6-1.1.6m5.7,2.2,1.1-.7M323,214.75l-7.4-10.6m7.4,10.6,1.6.9m17-89.7-20.2,11.7m20.2-11.7,1.2-.6M310,136.65l.1-.4.1-.3.1-.4.2-.3.2-.3.2-.2.3-.2.3-.2m0,0,1.1-.7m-6.5,20.2.2-.2.3-.2.2-.3.2-.3.2-.3.2-.3.1-.4.1-.3m0,0,2.4-14.9m1.1-.7-1.1.7m-2.4,14.9,1.1-.7m-81.1,120h0l-.3-.2-.1-.3-.2-.4v-.4m36.1-87.1-1-1.8m0,0-.2-.3-.2-.2-.1-.2-.2-.2-.2-.1-.3-.2-.2-.1-.2-.1m2.7.7-1.1.7m.7,4,.2-.2.1-.2.2-.3.1-.3v-.3l-.1-.3-.1-.3-.1-.3m0,0,1.1-.7m-9.4-4.7-.3-.1h-1.1l-.3.1-.2.1m7.6,2.1-5.7-2.2m5.7,2.2,1.1-.7m-5.7-2.1-1.1.6m-1.9.1-20.2,11.7m20.2-11.7,1.2-.6m-32.8,11.3.1-.4.1-.3.1-.4.2-.3.2-.3.2-.2.3-.2.3-.2m0,0,1.1-.7m51.1,59.4-.3.5-.2.5-.3.5-.3.4-.4.4-.4.4-.4.3-.4.3m10.1-22.5-7.4,19.2m10.9-23.5-.5.3-.6.4-.5.5-.4.6-.5.6-.4.6-.3.6-.3.7m31.2-20.3-27.7,16m31.2-15.7-.3-.4-.3-.2-.4-.2-.5-.1h-.4l-.5.1-.5.2-.6.3m11,10.9-7.5-10.6m10.1,10.8-.4.2-.4.2h-1.1l-.3-.2-.2-.2-.2-.2m2.6.2,41.7-24.1m0,0,.4-.2.4-.4.3-.4.3-.5.3-.5.2-.5.1-.5v-.5m0,0V138m-142.3,132.5v.4l.2.4.1.3.3.2.3.1h.3l.4-.1.4-.1m0,0,41.7-24.1M227,219.15v50.4m0,0,1.6.9m0-50.3v50.3m-1.6-51.3h0V219l-.1-.1v-.2l-.1-.1v-.1m1.8,1.7-1.6-1M370.85,138l-142.3,82.2m141.6-84.5.2.3.1.3.1.3.1.3.1.3.1.3v.5m-142.3,82.2v-.6l-.1-.3-.1-.3-.1-.3-.1-.3-.1-.3-.2-.2m-8.4-12-.2-.4-.2-.4-.1-.4-.1-.4-.1-.4v-.8l.1-.3m0,0,2.4-14.9m-2.4,14.9,1.1-.7m2.4-14.9-1.1.7m-1.8,18,7.3,12.6m-6.2-13.3-1.1.7m7.3,12.6,1.1-.6m95-68,29.7-17.1m-29.7,17.1-.2.1-.3.1h-.3l-.3-.1-.3-.2-.2-.1-.2-.3-.2-.3m-1.1-1.8,1.1,1.8m-1.1-1.8-.1-.2-.1-.3-.1-.2-.1-.3v-1m1-6.1-1,6.1m1-6.1V139l.1-.2.1-.3.1-.2.2-.1.1-.2.2-.2.2-.1m21.4-12.3-21.4,12.3m21.4-12.3.2-.1.2-.1.2-.1h.7l.3.1.2.1m5.7,2.1-5.7-2.1m5.7,2.1.2.1.3.2.2.1.2.2.2.2.2.2.1.2.2.2m1,1.8-1-1.8m1,1.8.2.3.1.3v.7l-.1.3-.1.2-.2.2-.2.2m-118.4,68.3,29.7-17.1m-29.7,17.1-.2.1-.3.1h-.3l-.3-.1-.3-.2-.2-.1-.2-.3-.2-.3m-1.1-1.8,1.1,1.8m-1.1-1.8-.1-.2-.1-.3-.1-.2-.1-.3v-1m1-6.1-1,6.1m1-6.1v-.2l.1-.2.1-.3.1-.2.2-.1.1-.2.2-.2.2-.1m21.4-12.3-21.4,12.3m21.4-12.3.2-.1.2-.1.2-.1h.7l.3.1.2.1m5.7,2.1-5.7-2.1m5.7,2.1.2.1.3.2.2.1.2.2.2.2.2.2.1.2.2.2m1,1.8-1-1.8m1,1.8.2.3.1.3v.7l-.1.3-.1.2-.2.2-.2.2m79.8-68.2-31.1,17.9m0,0-.3.2-.2.2-.3.3-.2.3-.1.3-.2.3-.1.4-.1.3m-2.4,14.9,2.4-14.9m-2.4,14.9-.1.4-.1.3-.1.4-.2.3-.2.3-.3.2-.2.2-.3.2M274.55,172l32.6-18.8M274.55,172l-.3.2-.3.1-.4.1h-1l-.4-.1-.3-.1m-14.1-5.4,14.1,5.4m-14.1-5.4-.4-.1-.4-.1h-1l-.4.1-.3.1-.3.2m0,0-31.1,17.9m0,0-.3.2-.2.2-.3.3-.2.3-.1.3-.2.3-.1.4-.1.3m0,0-2.4,14.9m0,0v.4l-.1.4.1.4v.4l.1.4.2.4.1.4.2.3m0,0,7.3,12.7m142.3-82.2-142.3,82.2m142.3-82.2-7.3-12.6m0,0-.2-.4-.2-.3-.3-.3-.3-.3-.3-.3-.4-.2-.3-.2-.3-.1m0,0-14.2-5.4m0,0-.3-.1-.4-.1h-1l-.4.1-.3.1-.3.2M151.75.45l.1-.1m-2.5,1.5,2.4-1.4m1.1,1.9-1.1-1.9m-3.9,2.2.3-.1.2-.2.3-.1.2-.1.2-.1.1-.1.1-.1h.1m0,0,1.1,1.9M97.15,32l.3-.2.3-.2.4-.2.3-.2.4-.2.3-.2.4-.2.4-.2m16.8-9.7,31.1-18m1.1,2-1.1-2m-33.8,19.6.3-.2.4-.2.3-.3.4-.2.3-.2.4-.2.3-.1.3-.2m0,0,1.1,1.9m-3.8-.3L100,30.35m0,0,1.1,2m14.1-8.2-1.1-1.9M1.45,140.35h0l-.3-.3-.1-.2-.2-.4v-.4M97.15,32l-32.6,18.8M98.25,34l-1.1-2m-34.1,19.7.1-.1h.1l.2-.1.1-.1.2-.1.3-.2.2-.1.3-.2m0,0,1.2,2m-2.7-1.1-2.4,1.4m3.6.5-1.2-1.9m-3.9,2.2.3-.1.2-.2.3-.1.2-.1.2-.1.1-.1.1-.1h.1m0,0,1.1,1.9M.85,139.05V88.65m0,50.4,1.6.9M144.75,7.45v21.7M2.45,140V89.55m0,50.4v.4l.2.4.1.3.3.2.3.1h.3l.4-.1.4-.2m2-1.1-2,1.1m-2-51.5,142.3-82.1m0,0v-.2l.1-.1v-.1L145,7M2.65,89.15h-.1v.1l-.1.1v.2m-.9-2.4-.2.1-.1.1-.1.2-.1.2L1,88l-.1.2v.5m0,0,1.6.9m-.9-2.4L8.85,83m-6.2,6.2-1.1-2M8.85,83l.2-.1.3-.2.2-.1.3-.2.3-.2.4-.2.3-.2.4-.2M10,85l-1.1-2m19.2-11.1,31.1-18m1.1,2-1.1-2m-33.8,19.6.3-.2.4-.2.3-.3.4-.2.3-.2.4-.2.3-.1.3-.2m0,0,1.1,1.9m-17.9,7.8,14.1-8.1m-14.1,8.1,1.1,2m14.1-8.2-1.1-1.9m27.2-13.1.9-.6m0,0h0v.1h-.1l-.1.1-.2.1m0,0-1,.6m0,0-.2.1-.2.1-.3.2-.3.1-.3.2-.2.1-.3.2-.3.1m0,0L20.35,79m0,0-.3.1-.1.1-.2.1h.1l.1-.1m0,0,1.1-.6m0,0,.1-.1.2-.1.2-.1.2-.1.2-.1.2-.2.2-.1.2-.1m0,0,5.7-3.3m0,0,.3-.2.2-.1.3-.1.2-.2.2-.1.3-.1.2-.2.2-.1m0,0L51.55,61m0,0,.2-.1.1-.1.2-.1.1-.1.1-.1h.1l.1-.1h.1m88.7-51.2.9-.6m0,0h0l-.1.1-.1.1-.2.1m0,0-1,.6m0,0-.2.1-.2.1-.3.2-.3.1-.3.2-.2.1-.3.2-.3.1m0,0-29.6,17.2m0,0-.3.1-.1.1-.2.1h.1l.1-.1m0,0,1.1-.6m0,0,.1-.1.2-.1.1-.1.2-.1.3-.1.2-.2.2-.1.2-.1m0,0,5.7-3.3m0,0,.3-.2.2-.1.3-.1.2-.2.2-.1.2-.1.3-.2.2-.1m0,0,21.4-12.3m0,0,.1-.1.2-.1.2-.1.1-.1.1-.1h.1l.1-.1h.1m-77,44.4L61.75,55m0,0v.1h-.2l-.1.1-.2.1-.2.2-.2.1-.3.1-.3.2m-31.1,17.9,31.1-17.9m-31.1,17.9-.3.2-.3.2-.3.2-.4.2-.3.2-.4.2-.3.2-.4.2m0,0-14.1,8.2m0,0-.4.2-.3.2-.3.2-.3.1-.3.2-.3.2-.3.1L10,85m-7.3,4.2L10,85M145,7,2.65,89.15m149.6-86.4L145,7m7.3-4.2.2-.1.2-.1.1-.1h.1l.1-.1h-.1m0,0-2.4,1.4m0,0-.1.1h-.1l-.1.1-.2.1-.2.1-.2.2-.3.1-.3.2m-31.1,17.9L149,4.65m-31.1,17.9-.3.2-.3.2-.3.2-.4.2-.3.2-.4.2-.3.2-.4.2m0,0-14.1,8.2m0,0-.4.2-.3.2-.4.2-.3.2-.4.2-.3.2-.4.2-.3.2m0,0-32.5,18.8m0,0-.3.1-.3.2-.2.1-.2.1-.2.1-.2.1-.1.1M1.45,173.25h0l-.3-.2-.1-.3-.2-.3V172m5.6-31.6-3.6,2.1M.85,172V146m0,26,1.6,1M.85,146v-.5l.2-.5.1-.5.3-.5.3-.4.3-.5.4-.3.4-.3m-.4,4.4L.85,146m2-3.5,1.6,1m-2,29.5v-26.1m0,26.1v.4l.2.4.1.3.3.2.3.1h.3l.4-.1.4-.2m0,0,2-1.1m0-30.7-2,1.2m0,0-.4.2-.4.4-.3.4-.3.5-.3.4-.1.6-.2.5v.4m364.8,46.3.4-.2.4-.1.3.1.3.1M311.25,244l-.1.3-.1.2-.1.2-.1.3-.1.2m14.8-27.9,41.7-24.1m1.6.9-1.6-.9M322.85,218h.7l.7-.1.6-.3.7-.3m0,0,1.6.9m-16.4,27-9.8-.8m9.8.8,1.6,1m-11.6,1.6.1.4.5,1,.7.6m-1.1-5.4-.2.5m.2-.5,1.6.9m6.5-7.6h0l-1.1-.3-1.3.2m-4.4,5.1,1,.6m2.8,7.6-1,.6-1.5.5h-1.7m4.7-1.5,1.6.9m-8.5-7.2h-.9m.9,0,1.6,1m9.6-8.7.1.2.7,1.2.3,1.6v1.2m.1.7,1.5.9m-16.6,3.3-.4.4m2.1-1.6,1.1.6m-.9-4.8v1.7m.1.3,1.5.9m-12.1,9.1-.8,1.1m15.6-24.7,1.1.6m-13.1,30.3-.2.1-1.6.8-.5.1m7.7-14.5.5,1.5v1.7m-.5-3.2,1.6.9m-2.4,1,1.1.7m15.1-42.4.3-.2.2-.1h.7l.2.1m-25.8,47.3-1-.1m1,.1,1.6.9m10.9-15.1-1.2,1m5.3-12.9.3.8.1,1.7v.4m-5.6,10.1,1.5.9m-6.3,5.2-.4-.2-1-.1-1,.2m-4.5,5.4,1,.6m10.7-13.8,1.5.9m-4.3,5.8,1.3.7m-4.2-8.6.1.4.6,1.1.7.5m1.7-9.5,1.1.6m-.1,10.7-1.5.5-1.4-.1m2.9-.4,1.6.9m-28.3,7.1.7-.5.6-.5.7-.6.1-.1m39.2-41.1-27.7,16m29.3-15.1-1.6-.9m-27.9,16.1.2-.1m0,0,1.6.9m-58.3,80.8h0l-.3-.2-.1-.3-.2-.4v-.4m2-29.5,41.7-24.1m1.6.9-1.6-.9M227,276.45v26.1m0,0,1.6.9m-1.6-27V276l.2-.5.1-.5.3-.5.3-.4.3-.4.4-.4.4-.2m0,0,1.6.9m-2,3.4-1.6-.9m70.5-46.2v-1.9m1.5,11.8-1.3.3-1.2-.2-.9-.7-.6-1.1-.2-1.4.2-1.7.5-1.8.9-1.7,1.1-1.6m1.5-3.2v13.1m1.5-13.9-.2.1-.2.1-.2.1-.1.1-.2.1-.2.1-.2.1-.2.1m1.5,12.2v-13m3.8,2.9.3,1.1.1,1.2-.2,1.4-.4,1.5-.7,1.4-.8,1.3-1,1.2-1.1,1m1.5-7.1,2.3-3m-2.3.9v2.1m2.8-5.7-2.8,3.6m-1.5,11,1.5-1.3,1.4-1.6,1.1-1.8.9-2,.6-1.9.2-1.9-.1-1.7-.5-1.4-.8-1m-4.3,16.6v-2m1.5,2.1-1.5-.1m13.1-.8v-1.9l-.3-1.6-.6-1.2-1-.9-1.3-.3-1.4.1-1.5.6-1.6,1-1.5,1.5-1.3,1.7-1.1,1.9m10.1-1.1,1.5.2m-10.3,1,1-1.6,1.3-1.5,1.3-1,1.4-.7,1.3-.2,1.1.3.8.8.5,1.2.1,1.5m1,2.1-9.8-.9m9.1,2.9.1-.3.1-.2.1-.3.1-.2.1-.3.1-.2v-.2l.1-.3m-10.5,1.1,9.8.9m-5.7,4.5-1.1.3h-1.1l-.8-.3-.7-.6-.5-.9-.2-1.2v-1.3l.3-1.4m3.9,2.3.2,3.1m1.4-2.9-1.6-.2m1.7,3.8-.1-3.6m-6.8-2.6-.5,1.9v1.8l.3,1.6.6,1.2.9.9,1.2.4,1.4-.1,1.5-.5,1.5-1m-8.4-6.4,1.5.2m-3.1,1.7,1.6-1.9m-11.6,16.4,1.3.2,1.5-.3,1.6-.7,1.5-1.2,1.4-1.5,1.3-1.8,1-2,.6-2,.3-1.9v-1.8l-.5-1.5m-8.6,12.7-1.4,1.8m8.7-12.8.3,1.3v1.6l-.5,1.8-.8,1.8-1,1.6-1.3,1.3-1.4,1-1.3.6h-1.3m-2.4,1.1,9.7-12.1m-10.5,11,.1.2.1.1v.2l.1.1.1.2.1.1.1.1.2.1m9-13.2-9.8,12.1m1.9-7.4.8-1.4.9-1.3,1.1-1,1.1-.9,1.1-.5,1.1-.2,1,.1.8.5m-5.5,4.8-2.4-.1m.9,2,1.5-1.9m-4.4,1.8,2.9.1m8.3-8.4-1.1-.6-1.2-.2-1.5.2-1.5.7-1.5,1.1-1.4,1.5-1.3,1.7-1,1.9-.7,2M299,244l-1.5,1.8m1.5-3.9V244m-1.5-15.6-1.4,1.7-1.2,1.8-.8,2-.6,2-.2,1.9.2,1.7.6,1.4.8.9,1.2.5,1.4.1,1.5-.5m69.9-17.1-138.3,79.8m138.3-79.8.4-.3.4-.3.3-.4.3-.5.3-.5.2-.5.1-.5v-.5m0,0v-26m0,0v-.4l-.1-.4-.2-.3-.3-.2-.3-.1h-.3l-.4.1-.4.1m-41.7,24.1,41.7-24.1m-41.7,24.1-.7.4-.6.2-.7.1h-.5l-.6-.1-.5-.2-.4-.3-.4-.5m-7.4-10.6,7.4,10.6m-7.4-10.6-.2-.1-.1-.2h-.2l-.3-.1h-.2l-.2.1h-.3l-.3.2m0,0-27.7,16m0,0-.3.2-.2.2-.3.2-.2.3-.2.3-.2.3-.2.3-.2.4m-7.4,19.2,7.4-19.2m-7.4,19.2-.4.8-.4.8-.5.8-.5.8-.6.6-.7.6-.6.6-.7.4M230.55,274l41.7-24.1M230.55,274l-.4.2-.4.4-.3.4-.3.5-.3.5-.1.5-.2.5v.4m0,0v26.1m0,0v.4l.2.4.1.3.3.2.3.1h.3l.4-.1.4-.2M.35,212.35v.6l.1.3.1.3.1.3.1.2.1.3.2.3m.9-1.4v.3l.1.1v.2l.1.1v.1m14.6,25.2v.1h.1v.1l.1.1.1.1.1.1h.1m-1.7.1.2.3.2.3.2.2.2.3.2.2.2.2.3.1.2.2m-.5-2.4-1.2.6m1.2-.6-14.6-25.2m-1.1.6,1.1-.6m13.4,25.8-14.5-25.2m2.8-40.3-1.5.8m-2,37.2v-33.7M2,213.25l-1.6-.9m2-37.2,1.6.9m-3.6,2.6v-.5l.1-.5.2-.5.3-.5.3-.5.3-.4.4-.3.4-.3m-.4,4.4-1.6-.9m6.1-4L4,176.05m0,0-.4.3-.4.4-.3.4-.3.4-.3.5-.2.5-.1.5v.5m0,33.7v-33.7m366.3,47.2.4-.2.4-.1h.3l.3.1m-352.4,15.1,195.4,112.8M17.25,239.75l195.4,112.8M17.25,239.75v1.9m195.4,110.9.1.1h.4m-.5-.1v1.9m0,0,.2.1.3.1.2.1h.6l.2-.1h.2m142.3-82.2-142.3,82.2m142.3-82.2,14.5-8.4m-158,88.6,1.2,2m14.5-8.4-14.5,8.4m13.4-10.4-14.6,8.4m158-88.6-142.3,82.2m143-83.7v.5l-.1.2-.1.2-.1.2-.1.2-.1.1-.2.1m-143.4,80.2h0l.1-.1v-.1l.1-.1v-.2m.9,2.5-1.1-2m1.1,2,.2-.2.1-.1.1-.1.1-.2.1-.2.1-.3v-.5m.4-38.1,138.3-79.8m1.6.9-1.6-.9M228,310.05v33.7m0,0,1.6.9m.4-38.1,1.6.9m-3.6,2.6v-.5l.2-.5.1-.5.3-.5.3-.5.3-.4.4-.3.4-.3m-.4,4.4-1.6-.9m3.6-2.6,138.3-79.8m-138.3,79.8-.4.3-.4.4-.3.4-.3.4-.3.5-.1.5-.2.5v.5m0,0v33.7m142.3-82.1-142.3,82.1m142.3-82.1v-33.7m0,0v-.5l-.1-.3-.2-.3-.3-.2-.3-.2h-.3l-.4.1-.4.2m-4.4,19.8.8-.8m-.9.9.1-.1m.9-1.5-.1.7m0,0,2,1.1m-2.9-.2.1-.1m0,0,.2-.2.1-.2.2-.3.1-.2.1-.3.1-.2m-1,2.6,1.4.8m-1.4-.4.2-2.2m1.6-1.7-1.6,1.7m1.6-1.7,1.4.4m0,0-.2,2.2m-1.6,1.7,1.6-1.7m-3,1.3,1.4.4m-1.3-8.7-.7-.3-1,.1-1.1.6-1,.9m0,0-1,1.2-.7,1.4-.4,1.4-.1,1.3.3,1.1.5.7.2.2m9.6-4.3v-.3l-.3-1.1-.5-.7-.9-.4-1,.1-1.1.6-1,.9m0,0-1,1.2-.7,1.3-.4,1.5-.1,1.3.3,1.1.5.7.9.4,1-.1.8-.4m-.8-6.5-.8,1.2-.7,1.3-.3,1.3-.1,1.2.3.9.7.6.8.2,1-.3,1-.6.9-1,.8-1.3.5-1.3.2-1.2-.1-1.1-.5-.8-.7-.4h-1l-1,.5-1,.8m-125.5,45,.8-.8m-.8.9v-.1m.9-1.5-.1.7m0,0,2,1.1m-2.8-.2v-.1m0,0,.2-.2.2-.2.1-.2.1-.3.2-.2v-.3h.1M240,291l1.4.8m-1.4-.5.2-2.1m1.7-1.8-1.7,1.8m1.7-1.8,1.4.5m0,0L243,290m-1.6,1.8L243,290m-3,1.3,1.4.5m-1.3-8.8-.6-.2-1.1.1-1.1.5-1,.9m0,0-1,1.2-.7,1.4-.4,1.4-.1,1.3.3,1.1.6.8.1.1m9.6-4.3V287l-.2-1-.6-.8-.8-.3-1,.1-1.1.5-1.1.9m0,0-.9,1.2-.8,1.4-.4,1.4-.1,1.3.3,1.1.6.7.8.4,1-.1.8-.4m-.8-6.4-.8,1.1-.7,1.3-.3,1.3v1.2l.3.9.6.6.8.2,1-.2,1-.7,1-1,.7-1.2.5-1.3.2-1.3-.1-1.1-.5-.8-.7-.4-.9.1-1.1.4-1,.9m124.1-69,.8-.9m-.9,1,.1-.1m.9-1.5-.1.6m0,0,2,1.2m-2.9-.2.1-.1m0,0,.2-.2.1-.2.2-.3.1-.2.1-.3.1-.2v-.1m-1,2.7,1.4.8m-1.4-.4.2-2.2m1.6-1.7-1.6,1.7m1.6-1.7,1.4.4m0,0-.2,2.2m-1.6,1.7,1.6-1.7m-3,1.3,1.4.4m-1.3-8.8-.7-.2-1,.1-1.1.6-1,.9m0,0-1,1.2-.7,1.4-.4,1.4-.1,1.3.3,1.1.5.7.2.1m9.6-4.2v-.3l-.3-1.1-.5-.7-.9-.4-1,.1-1.1.5-1,1m0,0-1,1.2-.7,1.3-.4,1.4L362,220l.3,1,.5.8.9.3,1-.1.8-.3m-.8-6.5-.9,1.2-.6,1.2-.4,1.4v1.1l.3,1,.6.6.9.2,1-.3,1-.6.9-1,.8-1.3.5-1.3.2-1.3-.1-1-.5-.8-.7-.4h-1l-1,.5-1,.8m-.2-33.5.8-.9m-.9.9h.1m.9-1.5-.1.6m0,0,2,1.2m-2.9-.3h.1m0,0,.2-.2.1-.3.2-.2.1-.3.1-.2.1-.3m-1,2.7,1.4.8m-1.4-.4.2-2.2m1.6-1.7-1.6,1.7m1.6-1.7,1.4.4m0,0-.2,2.2m-1.6,1.7,1.6-1.7m-3,1.3,1.4.4m-1.3-8.8-.7-.2-1,.1-1.1.5-1,.9m0,0-1,1.2-.7,1.4-.4,1.4-.1,1.3.3,1.1.5.8.2.1m9.6-4.2V179l-.3-1.1-.5-.8-.9-.3-1,.1-1.1.5-1,.9m0,0-1,1.2-.7,1.4-.4,1.4-.1,1.3.3,1.1.5.8.9.3,1-.1.8-.4m-.8-6.4-.9,1.1-.6,1.3-.4,1.3v1.2l.3,1,.6.5.9.2,1-.2,1-.7.9-1,.8-1.2.5-1.3.2-1.3-.1-1.1-.5-.8-.7-.4-1,.1-1,.4-1,.9m-123.5,140.4.8-.9m-.8.9h0m.9-1.6-.1.7m0,0,2,1.1m-2.8-.2h0m0,0,.2-.2.2-.3.1-.2.1-.3.2-.2v-.3h.1m-1.1,2.7,1.4.8m-1.4-.5.2-2.1m1.7-1.8-1.7,1.8m1.7-1.8,1.4.5m0,0-.3,2.1m-1.6,1.8,1.6-1.8m-3,1.3,1.4.5m-1.3-8.8-.6-.2-1.1.1-1,.5-1.1.9m0,0-1,1.2-.7,1.4-.4,1.4-.1,1.3.3,1.1.6.8.1.1m9.6-4.2v-.4l-.2-1-.6-.8-.8-.3-1,.1-1.1.5-1.1.9m0,0-.9,1.2-.8,1.4-.4,1.4-.1,1.3.3,1.1.6.7.8.4,1-.1.8-.4m-.8-6.4-.8,1.1-.7,1.3-.3,1.3v1.2l.3.9.6.6.8.2,1-.2,1-.7,1-1,.7-1.2.5-1.3.2-1.3-.1-1.1-.5-.8-.7-.4-.9.1-1.1.4-1,.9m-1.2-63.1.8-.9m-.8,1v-.1m.9-1.5-.1.6m0,0,2,1.2m-2.8-.2v-.1m0,0,.2-.2.2-.2.1-.3.1-.2.2-.3V252l.1-.1m-1.1,2.7,1.4.8M240,255l.2-2.2m1.7-1.7-1.7,1.7m1.7-1.7,1.4.4m0,0-.3,2.2m-1.6,1.7,1.6-1.7m-3,1.3,1.4.4m-1.3-8.7-.6-.3-1.1.1-1.1.6-1,.9m0,0-1,1.2-.7,1.4-.4,1.4-.1,1.3.3,1.1.6.7.1.1m9.6-4.2v-.3l-.2-1.1-.6-.7-.8-.4-1,.1-1.1.5-1.1,1m0,0-.9,1.2-.8,1.3-.4,1.4-.1,1.4.3,1,.6.8.8.3,1-.1.8-.3m-.8-6.5-.8,1.2-.7,1.2-.3,1.4v1.2l.3.9.6.6.8.2,1-.3,1-.6,1-1,.7-1.3.5-1.3.2-1.3-.1-1-.5-.8-.7-.4h-.9l-1.1.5-1,.8m78.8-120.7L139.75,26.25M338.35,141l-11.3-6.6M8.75,113,227,238.85M8.75,203.75,228,330.35m-34.7-62.3v2.7m-80.4-72-.5.4m3.5,6.1.6-.3m-21.6-16.6-.5.3m3.5,6.2.6-.3M76.85,178l-.6.3m3.6,6.2.5-.4m-21.6-16.5-.5.3m3.5,6.2.6-.4m-21.3-16-2.2,1.3m2.9,5,2.2-1.3m-3.9,1.1.2.1m-2-3.5v.3m93,49.1-2.2,1.3m2.9,5,2.2-1.3m-3.9,1,.2.2m-2-3.6v.3m11.3-186.4-2-1.1M6.65,202.55l2.1,1.2m314.6,11.4,1.6.9m-97.4,54.8,1.6.9M153,2.35l-1.1-2m-150.4,140,1.6.9m-1.6,32,1.6,1M370.25,194l-1.6-.9m-66.6,56.7,1.6.9m7-12.1-1.6-.9m6-30.8-1.7-.9m-17.6,41.2-1.6-.9m.5-7.1,1.6,1m-68.7,63.7,1.6.9m142.1-77.2-1.6-1m-9.3,22.8,3.6,2m5-8.6-3.6-2m4.6,4.8v-.5m-3.5,6.1.4-.2m-131.8,40.6,3.6,2.1m5-8.6-3.6-2.1m4.6,4.8v-.5m-3.5,6.1.4-.2m117.8-73.4,3.6,2.1m5-8.6-3.6-2.1m4.6,4.9v-.5m-3.5,6.1.4-.3m-6.5-37.9,3.6,2.1m5-8.6-3.6-2.1m4.6,4.8v-.4m-3.5,6,.4-.2m-129.8,136,3.7,2.1m4.9-8.6-3.6-2.1m4.6,4.8v-.4m-3.5,6,.4-.2m-7.5-67.5,3.6,2.1m5-8.6-3.6-2m4.6,4.8V251m-3.5,6.1.4-.3"/></g></g></svg>