<svg xmlns="http://www.w3.org/2000/svg" xmlns:xlink="http://www.w3.org/1999/xlink" viewBox="0 0 941.13 820.25"><defs><style>.cls-1,.cls-2{fill:none;}.cls-2{stroke:#000;stroke-linecap:round;stroke-linejoin:round;stroke-width:2px;}.cls-3{isolation:isolate;}.cls-4{clip-path:url(#clip-path);}</style><clipPath id="clip-path"><polygon class="cls-1" points="487.66 165.54 406.12 93.75 503.27 34.34 584.81 106.14 487.66 165.54"/></clipPath></defs><g id="Layer_2" data-name="Layer 2"><g id="Layer_1-2" data-name="Layer 1"><path class="cls-2" d="M939.07,420.58a39,39,0,0,1,1,6c.07,23.5,0,47,.1,70.5,0,4.06-1.2,6.34-5,8.65-38.31,23.42-76.44,47.15-114.58,70.86-29.7,18.45-59.32,37-89,55.48-32.8,20.38-65.71,40.58-98.47,61-28.09,17.53-56,35.33-84,53q-47,29.55-94,59c-7.17,4.5-14.27,9.11-22.17,14.16-1-1.87-2.55-3.46-2.71-5.18-.39-4.13-.13-8.32-.13-12.49V680.08"/><path class="cls-2" d="M430.57,733.08c1.83-.67,3.86-1,5.47-2q67.8-42.42,135.54-84.95,54.93-34.35,110-68.5,57.21-35.55,114.5-71c46.12-28.42,92.21-56.88,138.67-84.72,4.58-2.74,5.38-5.05,5.35-9.3-.08-13.17-.17-26.34,0-39.5.09-6.42-2-11.4-7-15.54-18.91-15.73-37.67-31.66-56.54-47.45-18-15-36-29.94-54-45C806.67,251.66,791,238,775.05,224.6c-18.09-15.25-36.35-30.31-54.47-45.54-13.39-11.25-26.58-22.76-40-33.95-18.58-15.45-37.39-30.61-56-46.06C609.15,86.19,594,73,578.55,60.1c-21.92-18.26-44-36.35-66-54.52L507.08,1c-3.75,2.14-7.6,4.4-11.51,6.57-44.87,24.88-88.21,52.33-132,79-47,28.57-94.34,56.65-141.46,85.07q-69.83,42.12-139.5,84.49c-22.2,13.45-44.33,27-66.52,40.47a46.08,46.08,0,0,1-7.51,4c-6.44,2.45-7.31,8-7.39,13.56-.14,11.16.24,22.33.41,33.5,0,.33,0,.67,0,1-.5,11.71-.41,11.6,8.48,19,9.61,8,19,16.31,28.52,24.47,16.33,14,32.71,27.95,49,42,8.75,7.56,17.29,15.37,26,23,14.63,12.71,29.37,25.29,44,38,11.74,10.24,23.29,20.71,35,31,12.1,10.58,24.37,21,36.47,31.54,11.73,10.25,23.3,20.69,35,31,12.62,11,25.36,22,38,33,9.06,7.93,18,16,27,24,13,11.37,26,22.63,39,34,9.57,8.43,19,17,28.51,25.48,8.82,7.86,17.61,15.74,26.55,23.45,1.64,1.42,3.95,2.06,5.95,3.06"/><path class="cls-2" d="M938.07,365.58c-12.67,7.67-25.36,15.28-38,23-21.19,13-42.32,26-63.52,39-23.8,14.54-47.72,28.9-71.47,43.54-26.58,16.37-53,33-79.52,49.47q-47,29.25-94,58.51-58,36.2-116,72.48c-15,9.39-30.07,18.72-45.43,28.27-6.53-5.61-13.32-11.41-20.06-17.27q-23.28-20.22-46.49-40.51C354,613.65,344.64,605,335.05,596.6c-15.1-13.24-30.34-26.32-45.47-39.53-9.06-7.93-17.95-16.06-27-24-14.95-13.05-30-26-45-39-11-9.62-22-19.39-33-29-11.27-9.75-22.7-19.3-34-29-8.58-7.41-17-15.05-25.53-22.47-14.12-12.22-28.37-24.29-42.47-36.53-11.42-9.91-22.68-20-34-30q-21-18.51-42-37c-.91-.8-2.3-1-3.47-1.54"/><path class="cls-2" d="M2.07,362.08a32.84,32.84,0,0,0-1,5.5c-.06,22.67,0,45.33-.11,68a8.37,8.37,0,0,0,3.07,7c11.84,10.16,23.72,20.27,35.48,30.52,9.26,8.07,18.31,16.37,27.53,24.47,12.79,11.22,25.69,22.31,38.48,33.52,9,7.94,18,16,27,24,17.8,15.54,35.7,31,53.47,46.53,12.26,10.73,24.3,21.71,36.54,32.46,12.42,10.92,25,21.62,37.46,32.54,9.76,8.57,19.31,17.36,29,26q20.43,18.07,41,36c12.63,11,25.34,22,38,33q17.78,15.48,35.5,31c7.19,6.31,14.31,12.69,21.52,19a41.87,41.87,0,0,0,4.48,3"/><path class="cls-2" d="M663.07,206.58c-6.9,1.51-9.49,4.75-8,10,.95,3.33,6.06,6.5,10.5,6.5,3.65,0,8.61-3.39,9.5-6.5,1.19-4.15-3.11-9.23-8.5-10a17.37,17.37,0,0,0-2.5,0"/><path class="cls-2" d="M530.07,254.08c-2.83,5.44,1.46,8.34,4.59,10.89,9.91,8.11,26.46,5.25,32.53-3.81,1.71-2.55,2.17-4.52.88-7.08"/><path class="cls-2" d="M399.57,410.08c-9.36,2.74-11.89,9.09-10,18,.22,1,1.13,2.13.91,3-2.09,7.76,3.1,11.25,8.63,13.89a23.57,23.57,0,0,0,15.5,1.92c7-1.45,11.09-5.65,14.21-9.82.3-3.84.32-6.69.77-9.47,1.4-8.7-2.46-15.21-10.54-17.5"/><path class="cls-2" d="M404.57,311.58c-8.72,3-10.73,9.54-9,18a39.63,39.63,0,0,1,.52,7c.11,5.5,4.51,8,8.11,10.36,8,5.26,21.59,2.83,27.87-4.39a8.08,8.08,0,0,0,2-4,118.82,118.82,0,0,0,1-12.49c.19-7.22-3.45-11.94-10.46-14"/><path class="cls-2" d="M332.57,450.08c-9.87,2.77-11.69,9.91-10,18,.21,1,1.17,2.19.89,3-1.64,4.56,0,8,3.64,10.46,3.11,2.15,6.42,4.51,10,5.42,8.92,2.27,18.21-.41,23.5-7.82,1.57-2.21,2-4.23.46-6.53"/><path class="cls-2" d="M552.57,327.08c7.9,2.32,11.52,8.42,10,16.51-.48,2.61-.18,5.36-.62,8a13.68,13.68,0,0,1-2,5c-6.93,10.89-27.75,11.15-34.15-.15a28.54,28.54,0,0,1-2.21-21.79,10,10,0,0,1,8.9-7.53"/><path class="cls-2" d="M338.57,350.58c-7.71,1.32-11.27,7.74-9.54,17,.34,1.78.08,3.67.33,5.48s.37,3.63,1.28,5c8,11.73,26.8,13.48,36.42.54a4.31,4.31,0,0,0,1-2c.41-4.83,1.08-9.68,1-14.5-.17-6-4.61-10.51-10.41-11.5"/><path class="cls-2" d="M465.57,369.08c-9.07,1.94-10.33,10.06-9.29,17,.36,2.45-.1,5.05.36,7.48.87,4.63,4.2,7.77,8,9.92,10.48,6,22.63,3.16,28.94-5.42.57-.78,1.4-1.64,1.45-2.49.29-5.66.8-11.36.44-17-.32-5.11-3.92-8.07-9.38-9"/><path class="cls-2" d="M270.57,393.08c-11,2.34-11.39,10.29-10,19,.3,2-.15,4,.1,6a9.85,9.85,0,0,0,1.49,4.47c7.92,10.58,28.31,11.52,35.94-.47a5.33,5.33,0,0,0,1-2c.56-4.32.89-8.68,1.56-13,1-6.18-3.72-11.73-11-14"/><path class="cls-2" d="M471.57,269.58c-8.44,3.19-11.19,8.5-9.54,18,.45,2.61.24,5.34.6,8a8.38,8.38,0,0,0,1.49,4c8.59,11.08,28.42,11,35.94-.47a5.18,5.18,0,0,0,1-2c.56-4.32,1-8.66,1.54-13,.62-5-2.64-11.42-11-14"/><path class="cls-2" d="M334.57,432.58c-.33,6.17-.69,12.33-1,18.5-.1,2,.13,4,0,6-.5,5.79,3,9.5,9,9.5,5.67,0,8.65-3.28,8.53-9-.13-6.5,0-13-.08-19.5a41.35,41.35,0,0,0-.95-6"/><path class="cls-2" d="M428.07,431.58c-4.83,2.17-9.52,4.79-14.54,6.38-6.21,2-12-.42-17.45-3.39-1.71-.93-3.34-2-5-3"/><path class="cls-2" d="M330.57,371.08a16.37,16.37,0,0,1,3,1.52c9.73,7.92,19.85,8.25,30,1a18.17,18.17,0,0,1,3.48-1.53"/><path class="cls-2" d="M352.57,450.08c8.37,2.46,14,12.85,9.74,19.84-2,3.26-6.5,5.35-10.29,7.05-8.23,3.71-16.16,2.54-23.47-2.87a40,40,0,0,0-4.48-2.52"/><path class="cls-2" d="M561.07,348.58c-3.83,2-7.52,4.4-11.53,5.91-7.34,2.76-14,0-20.47-3.41-1.32-.7-2.67-1.33-4-2"/><path class="cls-2" d="M500.07,292.58c-1.17.33-2.57.36-3.46,1.05-9.89,7.56-19.69,6.76-29.56,0a11.92,11.92,0,0,0-3-1"/><path class="cls-2" d="M494.07,390.58c-3.5,2-6.8,4.57-10.54,5.88-7.14,2.5-14,1-20.46-2.88l-5-3"/><path class="cls-2" d="M298.07,415.58a11.14,11.14,0,0,0-2.48,1c-10,7.36-20,7.51-30,0-.91-.67-2.3-.71-3.47-1"/><path class="cls-2" d="M433.07,333.58c-1.17.5-2.61.72-3.46,1.54-7.76,7.6-20.64,6.78-28.57.49a22.8,22.8,0,0,0-4-2"/><path class="cls-2" d="M538.57,232.08a13.06,13.06,0,0,0-8.72,19.83c3.23,5.27,9.57,8,16.22,8.69,8.09.83,15.61-1,20.75-7.23,2.16-2.6,2.15-7.47,2.1-11.29-.06-4.29-5.17-8.66-9.85-9.5"/><path class="cls-2" d="M555.57,213.58c2.45-5.57,1.87-8-2.5-10.5-3.81-2.16-9.55-.73-12,3-2.23,3.39-.79,7.13,3,8.55a12.22,12.22,0,0,0,11-1"/><path class="cls-2" d="M349.57,431.58c2.5-3.17,1.73-6-1-8.49-2.38-2.19-10.53-2.16-13,0-3.09,2.7-3,5.74-1.17,8.61,5.06,1.78,10,3.21,14.67-.11"/><path class="cls-2" d="M356.07,332.08c2-4.86,1.75-7.72-4-10-4.78-1.87-9.71.13-11.49,4.48-1.35,3.3,0,5.38,3.48,6.56a14.33,14.33,0,0,0,11.52-1.06"/><path class="cls-2" d="M272.57,375.58a23.3,23.3,0,0,0-.95,4.5c-.11,7.16-.44,14.37.16,21.48.22,2.61,2.27,6.35,4.42,7.2,3.07,1.21,7.19,1.37,10.36-1.19,2.63-2.13,2.61-4.84,2.12-8a85.32,85.32,0,0,1-.59-12c-.08-5.67-.21-11.34,0-17,.19-4.17-2.71-5.31-5.58-6.46-3.83-1.52-6.75,0-9.55,2.89s-1.88,5.3.05,8.91l13.52-1.34"/><path class="cls-2" d="M550.07,307.08c1.52-4.49.89-7.17-3-9.43a9.12,9.12,0,0,0-9.95.44c-4,2.63-3.59,6.21-2.35,9.16,5.39,3.62,10.15,2.24,14.84-.17"/><path class="cls-2" d="M541.07,214.08a32.41,32.41,0,0,0-1,5c-.26,7.16-.38,14.33-.54,21.5-.09,4.15,3,7,8,7.5,5.21.48,10.42-2.39,10.38-6.5-.1-8.67-.87-17.33-1.4-26a6.09,6.09,0,0,0-.48-1.5"/><path class="cls-2" d="M422.07,293.08c1.42-3.17,1.85-6.1-1.48-8.52s-8.6-2.7-11.53-.49c-3.25,2.46-3.8,5.46-2.05,8.78,4.89,2.07,9.73,2.67,14.56.23"/><path class="cls-2" d="M474.07,251.58a20.59,20.59,0,0,0-1,4c-.25,7.5-.76,15-.32,22.49.15,2.58,2.22,6.12,4.42,7.24a9.39,9.39,0,0,0,10.34-.76c2.46-2,4.1-4.19,3.18-8-.89-3.66-.58-7.63-.64-11.46-.08-5.67,0-11.33,0-17,0-4.14-2.93-7-8-7.5-4-.43-8.44,2.54-9,6-.62,3.8,6,8.22,10.5,7,1.68-.46,3.33-1,5-1.49"/><path class="cls-2" d="M416.07,390.58c-3.17.33-6.33.9-9.5.93-2.8,0-5.1-1-5.54-4.43s1.9-4.67,4.07-5.95c4.17-2.47,11.65.16,12.38,4.46a78.8,78.8,0,0,1,.58,11c.2,7.33.5,14.67.39,22,0,1.68-1.31,3.52-2.44,4.95-1.56,2-8.72,2.92-11.42,1.51-3-1.54-3.61-4.29-3.55-7.46.11-6.83,0-13.67.08-20.5a41.35,41.35,0,0,1,.95-6"/><path class="cls-2" d="M483.07,350.08c2.1-5.77,1.37-7.46-4-10-4.1-1.9-9.76.13-11.46,4-1.21,2.75-.24,4.65,2.46,6,4.24,2.16,8.35,1.77,12.52,0"/><path class="cls-2" d="M341.07,333.08a18.59,18.59,0,0,0-.95,4c-.1,6.83-.33,13.68.05,20.49.26,4.62,2.09,7.22,5.9,8,5.19,1,9.85-.82,11.49-4.49a4.86,4.86,0,0,0,.49-2q-.57-12.49-1.26-25a4.58,4.58,0,0,0-.72-1.5"/><path class="cls-2" d="M550.07,307.58a40.34,40.34,0,0,1,1,5.5c.26,7.33.15,14.68.63,22,.26,3.89-2.41,5.79-4.68,7.38-4.54,3.16-12.63-1.21-12.83-6.87-.3-8.33-.1-16.67,0-25,0-.67.63-1.33,1-2"/><path class="cls-2" d="M468.07,350.08a25.63,25.63,0,0,0-1,4.5c-.26,7.33-.47,14.67-.51,22,0,4.79,4.9,8.42,10.47,8s7.86-3.39,7.57-9c-.31-6.16.06-12.34-.14-18.5-.07-2.18-.93-4.33-1.43-6.5"/><path class="cls-2" d="M407.07,293.58a11.5,11.5,0,0,0-1,3c-.24,7.83-.48,15.67-.5,23.5,0,4.43,4.52,8.08,9.46,8,5.19-.08,8.61-3.31,8.5-8-.17-7.33-.28-14.67-.54-22a25.63,25.63,0,0,0-1-4.5"/><path class="cls-2" d="M661.57,197.08a24.81,24.81,0,0,0-13.47,5.54,13.33,13.33,0,0,0-3.51,16.95c6.71,13.26,26.56,17.33,37.52,6.55,4.88-4.81,5.47-14.52.53-20.11-5.57-6.31-12.4-9-20.57-8.93"/><g id="Layer_2-2" data-name="Layer 2"><g class="cls-3"><g class="cls-4"><path d="M554.25,118.31c-11.93,4.77-27.26,1.31-34.25-7.74a17.55,17.55,0,0,1-2.18-3.64l20.55-2.19,15.88,13.57m-68.48,13.83-22.13,1.68c-.26-5.39,2.78-10.47,8.27-13.83,5.74-3.49,13.48-4.74,20.93-3.37l-7.07,15.52m6.89-36.51L477.28,82.08l6.86-15.77a27,27,0,0,1,8.61,5l0,0c8.3,7.26,8.25,17.72-.13,24.39M455.93,63.29l-.8.49-.34.2-1,.63a14.88,14.88,0,0,0-1.6,1.08l-.74.53,4,3.49L488,98.43c-11.67,5.1-27.15,2-34.59-6.84-5.16-6.17-5.22-13.83-.15-19.71l.46-.5-4.22-3.71-.81.84c-9.6,10.32-5.69,24.83,8.71,32.4,10.5,5.51,24.17,6,34.69,1.18l5.28,4.65-2.55,5.59c-9.95-2-19.9-.28-27.05,4.09A21.45,21.45,0,0,0,458.14,128a16.87,16.87,0,0,0,0,10.42l.28.78,1-.08,1.38-.11,1.09,0,21.47-1.63-.18.42-5.9,12.79-.39.74-1.23,2.78-.33.71,1,.32a40.25,40.25,0,0,0,3.92,1.18l1,.25.31-.76.82-1.82.2-.38,16.15-35.25a27.11,27.11,0,0,1,8.13,4.84c9,7.88,8.07,19.41-2.15,25.77l-.05,0a29.42,29.42,0,0,1-17.84,3.77l-.88-.08-.27.61L484.48,156l-.43.95,1.37.16c8.51,1,17-.68,23.5-4.6,12.84-8.1,13.89-22.67,2.34-32.54a33.87,33.87,0,0,0-10.5-6l2.51-5.47,8.46-.93c5,12.37,22.45,19.85,39,16.71a34.58,34.58,0,0,0,11.08-4.08l.76-.46.25-.15.81-.5-.7-.62-1-.86-.74-.66L546.05,104l19.81-2.15,1.19-.11,3.92-.43,1-.11-.13-.78a18.76,18.76,0,0,0-.83-3.06l-.28-.74-1,.11-3.91.39-1.21.13-48.09,5.13c-.6-5.71,2.46-11.17,8.26-14.74,10.39-6.23,26-4.83,35,3.13a20.61,20.61,0,0,1,3.37,3.8l.39.56.81-.08,4-.43,1.43-.14-.62-1c-7.31-11.8-25.9-17.4-41.53-12.53a33.11,33.11,0,0,0-7,3.07c-7.46,4.59-11.29,11.68-10.27,19l-8.29.88-5.34-4.7c11.71-9,10.88-23.7-1.86-32.78a37.3,37.3,0,0,0-14.2-6l-1-.18-.32.7-1.22,2.76-6,13.82L455.93,63.29"/></g></g></g></g></g></svg>