<svg xmlns="http://www.w3.org/2000/svg" viewBox="0 0 414.19 294.29"><defs><style>.cls-1{fill:none;stroke:#000;stroke-miterlimit:10;stroke-width:0.71px;}</style></defs><g id="Layer_2" data-name="Layer 2"><g id="Layer_1-2" data-name="Layer 1"><line class="cls-1" x1="410.75" y1="99.4" x2="122.15" y2="265.97"/><polyline class="cls-1" points="122.15 265.97 120.96 266.45 119.54 266.92 118.12 267.4 116.7 267.63 115.04 267.87 113.38 267.87 111.96 267.63 110.3 267.4 108.88 267.16 107.69 266.45 106.51 265.97 106.27 265.97"/><line class="cls-1" x1="106.27" y1="265.97" x2="3.43" y2="206.5"/><line class="cls-1" x1="218.59" y1="109.11" x2="226.41" y2="104.61"/><line class="cls-1" x1="216.69" y1="103.9" x2="220.25" y2="101.77"/><line class="cls-1" x1="184.7" y1="117.88" x2="184.94" y2="117.64"/><polyline class="cls-1" points="161.48 109.35 163.38 113.14 164.32 115.04"/><polyline class="cls-1" points="151.53 116.93 158.64 117.64 165.27 118.59 172.14 119.54 178.54 120.49"/><polyline class="cls-1" points="151.29 118.83 151.53 119.3 151.53 119.78 151.77 120.25 152 120.72 152.24 120.96 152.48 121.43 152.71 121.67 153.19 122.14 153.43 122.62 153.9 123.09 154.37 123.33 154.85 123.8 155.56 124.04 155.79 124.28 156.27 124.51 156.98 124.99 157.69 125.22 158.4 125.46 159.11 125.7 159.82 125.94 160.3 126.17 161.01 126.41 161.96 126.65 162.67 126.65 163.61 126.88 164.32 126.88 165.27 127.12 165.51 127.12 166.46 127.12 167.17 127.12 168.12 127.12 168.83 127.12 169.78 127.12 170.49 127.12 171.2 127.12 172.14 126.88 173.09 126.65 173.8 126.65 174.51 126.41 175.46 126.17 176.17 125.94 176.41 125.94 177.12 125.7 177.83 125.22 178.54 124.99 179.25 124.75 179.73 124.28 180.44 124.04 180.67 123.8 181.38 123.33 181.86 123.09 182.33 122.62 182.81 122.14 183.28 121.67 183.52 121.2"/><polyline class="cls-1" points="183.52 121.2 190.63 122.38 192.05 122.62"/><line class="cls-1" x1="192.05" y1="122.62" x2="194.18" y2="126.88"/><line class="cls-1" x1="190.86" y1="144.65" x2="199.87" y2="139.44"/><polyline class="cls-1" points="199.87 139.44 201.76 143.71 203.19 146.79"/><polyline class="cls-1" points="203.19 146.79 203.9 146.55 204.84 146.55 205.55 146.31 206.5 146.31 207.21 146.08 207.45 146.08"/><polyline class="cls-1" points="200.34 129.49 201.05 129.49 201.76 129.49 202.71 129.49 203.42 129.73 204.13 129.73 204.84 129.96 205.55 129.96 206.26 130.2 206.98 130.44 207.45 130.68 208.16 130.91 208.63 131.15 209.35 131.39 209.82 131.86 210.29 132.1 210.77 132.57 211 132.57 211.24 133.04 211.72 133.52 211.95 133.75 212.43 134.23 212.66 134.7 212.66 134.94 212.9 135.18 213.14 135.65 213.14 136.13 213.14 136.6"/><line class="cls-1" x1="209.11" y1="142.29" x2="210.53" y2="145.13"/><polyline class="cls-1" points="210.53 145.13 211.24 144.89 211.72 144.66 212.43 144.18 213.14 143.94 213.61 143.47 214.08 143 214.32 143 215.03 142.52 215.51 142.05 215.74 141.57 216.22 141.1 216.45 140.63 216.93 140.15 216.93 139.92 217.16 139.44 217.4 138.97 217.4 138.49 217.64 138.02 217.64 137.31 217.64 137.07"/><line class="cls-1" x1="196.79" y1="121.67" x2="202.71" y2="118.12"/><polyline class="cls-1" points="202.71 118.12 203.42 118.59 204.13 118.83 205.08 119.06 205.79 119.3 206.5 119.54 207.45 119.78 207.92 119.78 208.63 120.01 209.58 120.01 210.53 120.01 211.24 120.25 212.19 120.25 213.14 120.25 213.37 120.25 214.32 120.25 215.03 120.25 215.98 120.25 216.93 120.01 217.64 120.01 218.59 119.78 219.3 119.54 220.01 119.54 220.72 119.3 221.43 119.06 222.14 118.83 222.85 118.59 223.56 118.12 223.8 118.12 224.51 117.64 225.22 117.41 225.69 116.93 226.41 116.46 226.88 115.98 227.35 115.51 227.83 115.04 228.06 114.8 228.54 114.33 228.78 113.85 229.01 113.38 229.25 112.9 229.49 112.19 229.72 111.72"/><polyline class="cls-1" points="3.44 206.5 2.49 205.79 1.54 205.08 0.83 204.37 0.59 203.42 0.35 202.47"/><polyline class="cls-1" points="0.35 202.47 0.35 201.76 0.35 201.52"/><polyline class="cls-1" points="180.44 117.41 173.33 116.22 169.54 115.75"/><polyline class="cls-1" points="166.93 110.06 167.64 110.06 168.35 110.06 169.06 110.06 169.78 110.06 170.49 110.06 170.96 110.06 171.67 110.3 172.38 110.3 173.09 110.53 173.8 110.77 174.51 111.01 174.75 111.01 175.22 111.25 175.94 111.48 176.41 111.72 176.88 111.96 177.36 112.19 177.83 112.43 178.31 112.9 178.54 113.14 179.02 113.61 179.25 114.09 179.73 114.33 179.73 114.56 179.96 115.04 180.2 115.27 180.2 115.75 180.44 116.22 180.44 116.46 180.44 116.69"/><polyline class="cls-1" points="169.54 115.75 167.64 111.96 166.93 110.06"/><polyline class="cls-1" points="195.6 129.25 197.5 133.52 198.45 135.65"/><polyline class="cls-1" points="188.97 134.23 189.21 133.75 189.44 133.28 189.68 133.04 189.91 132.57 190.39 132.1 190.86 131.62 191.1 131.39 191.57 131.15 192.28 130.68 192.52 130.44 193 130.2 193.71 129.96 194.18 129.73 194.89 129.49 195.37 129.25 195.6 129.25"/><polyline class="cls-1" points="190.86 139.92 190.63 139.68 190.15 139.21 189.91 138.97 189.68 138.49 189.21 138.02 189.21 137.78 188.97 137.31 188.73 136.84 188.73 136.36 188.73 136.13 188.73 135.65"/><line class="cls-1" x1="198.45" y1="135.65" x2="190.86" y2="139.92"/><polyline class="cls-1" points="224.27 112.67 223.8 113.14 223.56 113.38 223.09 113.85 222.62 114.09 222.14 114.56 221.9 114.56 221.43 115.04 220.96 115.27 220.25 115.51 219.77 115.75 219.06 115.98 218.82 115.98 218.11 116.22 217.4 116.46 216.69 116.46 216.22 116.69 215.51 116.69 214.79 116.69 214.08 116.93 213.37 116.93 212.66 116.93 211.95 116.93 211.24 116.69 210.77 116.69 209.82 116.69 209.11 116.46 208.4 116.46 207.92 116.22 207.21 115.98 206.98 115.98 206.26 115.75 206.03 115.51"/><polyline class="cls-1" points="213.85 111.01 216.45 111.48 220.25 112.19 224.27 112.67"/><line class="cls-1" x1="206.03" y1="115.51" x2="213.85" y2="111.01"/><line class="cls-1" x1="202.71" y1="117.41" x2="196.55" y2="120.96"/><polyline class="cls-1" points="196.55 120.96 197.02 122.38 197.97 124.28 198.68 126.17"/><polyline class="cls-1" points="198.68 126.17 199.63 126.17 200.58 125.94 201.29 125.94 202 126.17 202.95 126.17 203.66 126.17 204.61 126.41 205.32 126.41 206.26 126.65 206.74 126.65 207.69 126.88 208.4 127.12 209.11 127.36 209.82 127.59 210.53 127.83 211.24 128.31 211.48 128.31 212.19 128.78 212.66 129.02 213.37 129.49 213.85 129.73 214.56 130.2 215.03 130.68 215.27 130.91 215.74 131.39 215.98 131.86 216.45 132.33 216.69 132.81 216.93 133.28 217.16 133.75 217.4 134.23 217.4 134.7 217.64 135.18 217.64 135.89 217.64 136.36"/><line class="cls-1" x1="210.53" y1="144.42" x2="209.11" y2="141.57"/><polyline class="cls-1" points="209.11 141.57 209.58 141.34 210.29 140.86 210.77 140.63 211 140.39 211.48 139.92 211.72 139.68 211.95 139.44 212.19 138.97 212.66 138.49 212.9 138.02 212.9 137.55 213.14 137.07 213.14 136.6 213.14 136.13"/><polyline class="cls-1" points="199.87 128.78 201.76 132.81 203.66 137.07 204.61 138.97 206.5 143.23 207.45 145.37"/><polyline class="cls-1" points="207.45 145.37 206.5 145.37 205.79 145.6 204.84 145.6 204.13 145.84 203.19 145.84"/><polyline class="cls-1" points="203.19 145.84 201.29 141.57 199.87 138.73"/><line class="cls-1" x1="199.87" y1="138.73" x2="190.86" y2="143.71"/><polyline class="cls-1" points="190.86 143.71 190.39 143.47 189.68 143 189.21 142.76 188.49 142.52 188.02 142.05 187.55 141.81 187.31 141.34 186.84 141.1 186.36 140.63 185.89 140.15 185.65 139.68 185.18 139.21 184.94 138.73 184.7 138.26 184.47 137.78 184.47 137.31 184.23 136.84 184.23 136.36 184.23 136.13 184.23 135.65"/><polyline class="cls-1" points="194.42 126.65 192.52 122.62 192.05 121.67"/><polyline class="cls-1" points="192.05 121.67 184.94 120.72 183.52 120.49"/><polyline class="cls-1" points="183.52 120.49 183.28 120.96 182.81 121.43 182.33 121.67 181.86 122.14 181.38 122.62 180.91 122.86 180.44 123.33 179.73 123.57 179.02 124.04 178.54 124.28 177.59 124.51 176.88 124.99 176.17 125.22 175.7 125.22 174.99 125.46 174.28 125.7 173.33 125.94 172.62 125.94 171.91 126.17 170.96 126.17 170.25 126.41 169.3 126.41 168.59 126.41 167.64 126.41 166.69 126.41 165.98 126.41 165.04 126.17 164.8 126.17 163.85 126.17 163.14 125.94 162.19 125.94 161.48 125.7 160.53 125.46 159.82 125.22 159.59 125.22 158.88 124.99 158.16 124.75 157.45 124.28 156.74 124.04 156.27 123.8 155.56 123.33 155.08 123.09 154.61 122.62 154.14 122.38 153.66 121.91 153.19 121.43 152.71 120.96 152.48 120.72 152.48 120.49 152 120.01 151.77 119.54 151.77 119.06 151.53 118.59 151.29 118.12 151.29 117.88"/><line class="cls-1" x1="151.29" y1="117.88" x2="156.03" y2="118.59"/><polyline class="cls-1" points="156.03 118.59 156.27 119.06 156.5 119.3 156.74 119.78 156.98 120.01 157.45 120.49 157.69 120.72 157.93 120.96 158.4 121.43 158.88 121.67 159.35 121.91 159.82 122.14 160.53 122.38 161.01 122.62 161.72 122.86 162.43 123.09 163.14 123.33 163.85 123.57 164.09 123.57 164.8 123.57 165.51 123.8 166.22 123.8 166.93 123.8 167.64 123.8 168.12 123.8 168.83 123.8 169.54 123.8 170.25 123.8 170.96 123.57 171.67 123.57 172.14 123.33 172.85 123.33 173.57 123.09 174.28 122.86 174.99 122.62 175.46 122.38 175.7 122.14 176.41 121.91 176.88 121.67 177.36 121.43 177.83 120.96 178.31 120.72 178.54 120.49 179.02 120.01 179.25 119.78"/><polyline class="cls-1" points="179.25 119.78 172.14 118.83 165.04 117.88 161.96 117.41 154.85 116.46 151.53 115.98"/><polyline class="cls-1" points="151.53 115.98 151.53 115.51 151.77 115.04 152 114.56 152.24 114.09 152.48 113.61 152.71 113.61"/><polyline class="cls-1" points="152.71 113.61 159.82 114.56 164.56 115.04"/><polyline class="cls-1" points="164.56 115.04 162.67 111.25 161.48 108.4"/><polyline class="cls-1" points="161.48 108.4 162.19 108.16 163.14 108.16 163.85 107.93 164.56 107.93 165.27 107.69 165.98 107.69 166.93 107.69 167.88 107.45 168.59 107.45 169.3 107.45 170.25 107.69 170.96 107.69 171.91 107.69 172.62 107.69 173.33 107.93 174.28 108.16 174.51 108.16 175.22 108.4 175.94 108.4 176.65 108.64 176.88 108.88 177.59 109.11 178.31 109.35 179.02 109.59 179.73 109.82 180.2 110.3 180.91 110.53 181.38 111.01 181.86 111.25 182.33 111.72 182.81 112.19 183.04 112.67 183.52 113.14 183.75 113.61 183.99 113.61 184.23 114.09 184.47 114.56 184.47 115.04 184.7 115.75 184.7 116.22 184.94 116.69"/><polyline class="cls-1" points="184.7 117.88 191.81 119.06 193.23 119.3"/><line class="cls-1" x1="193.23" y1="119.3" x2="199.63" y2="115.51"/><polyline class="cls-1" points="199.63 115.51 199.16 115.27 198.68 114.8 198.21 114.33 197.74 113.85 197.5 113.38 197.26 113.14 197.02 112.67 196.79 112.19 196.55 111.72 196.31 111.25 196.31 110.53 196.31 110.06 196.31 109.82"/><line class="cls-1" x1="220.25" y1="101.06" x2="216.69" y2="102.95"/><polyline class="cls-1" points="216.69 102.95 215.98 102.95 215.27 102.71 214.56 102.71 213.85 102.71 213.14 102.71 212.66 102.71 211.72 102.71 211 102.71 210.29 102.71 209.58 102.95 209.11 102.95 208.4 103.19 207.69 103.42 206.98 103.66 206.5 103.66 205.79 104.14 205.08 104.37 204.37 104.61 203.9 105.08 203.42 105.32 202.95 105.56 202.47 106.03 202.24 106.27 202 106.51 201.76 106.98 201.29 107.45 201.05 107.69 201.05 108.16 200.81 108.4 200.81 108.88 200.58 109.35 200.58 109.82"/><line class="cls-1" x1="202.95" y1="113.85" x2="223.09" y2="102"/><polyline class="cls-1" points="223.09 102 223.8 102.24 224.51 102.72 224.98 102.95 225.69 103.42 226.17 103.9 226.41 103.9"/><line class="cls-1" x1="226.41" y1="103.9" x2="217.4" y2="108.88"/><polyline class="cls-1" points="217.4 108.88 220.48 109.35 224.98 110.06 229.72 111.01"/><polyline class="cls-1" points="229.72 111.01 229.49 111.48 229.25 111.72 229.25 112.19 229.01 112.67 228.78 113.14 228.54 113.61 228.3 113.85 227.83 114.33 227.35 114.8 226.88 115.27 226.41 115.51 225.93 115.98 225.22 116.46 224.75 116.69 224.04 117.17 223.33 117.41 222.62 117.64 221.9 118.12 221.19 118.35 220.48 118.59 219.77 118.83 218.82 118.83 218.59 119.06 217.64 119.06 216.93 119.3 215.98 119.3 215.27 119.3 214.32 119.54 213.61 119.54 213.14 119.54 212.19 119.54 211.24 119.3 210.53 119.3 209.58 119.3 208.63 119.06 207.92 119.06 207.69 118.83 206.98 118.83 206.03 118.59 205.32 118.35 204.61 118.12 203.9 117.88 203.19 117.64 202.71 117.41"/><line class="cls-1" x1="207.45" y1="145.37" x2="207.45" y2="146.08"/><line class="cls-1" x1="203.18" y1="145.84" x2="203.18" y2="146.79"/><line class="cls-1" x1="199.87" y1="138.73" x2="199.87" y2="139.44"/><polyline class="cls-1" points="184.23 135.65 184.23 135.18 184.23 134.7 184.47 134.23 184.47 133.75 184.7 133.28 184.94 132.57 185.41 132.1 185.65 131.62 186.12 131.15 186.6 130.91 187.07 130.44 187.07 130.2 187.55 129.96 188.02 129.49 188.49 129.02 189.21 128.78 189.91 128.54 190.39 128.07 191.1 127.83 191.57 127.59 192.28 127.36 192.76 127.36 193.23 127.12 193.47 127.12 193.94 126.88 194.42 126.65"/><polyline class="cls-1" points="184.23 136.6 184.23 137.07 184.23 137.55 184.47 138.02 184.47 138.49 184.7 138.73 184.94 139.21 185.18 139.68 185.41 140.15 185.89 140.63 186.36 141.34 186.6 141.57 187.07 142.05 187.55 142.52 188.02 142.76 188.73 143.23 189.21 143.71 190.15 144.18 190.86 144.66"/><line class="cls-1" x1="190.86" y1="143.71" x2="190.86" y2="144.65"/><polyline class="cls-1" points="217.64 136.36 217.64 136.84 217.64 137.31 217.64 137.55 217.4 138.02 217.16 138.49 217.16 138.97 216.93 139.44 216.45 139.92 216.22 140.39 215.74 140.86 215.51 141.34 215.03 141.57 214.56 142.05 213.85 142.52 213.37 143 212.66 143.23 212.66 143.47 211.95 143.71 211.24 143.94 210.53 144.18 210.53 144.42"/><line class="cls-1" x1="210.53" y1="144.42" x2="210.53" y2="145.13"/><line class="cls-1" x1="209.11" y1="141.57" x2="209.11" y2="142.29"/><polyline class="cls-1" points="213.14 136.13 213.14 135.65 213.14 135.18 213.14 134.94 212.9 134.47 212.9 134.23 212.66 133.75 212.43 133.28 211.95 132.81 211.72 132.57 211.24 132.33 211 131.86 210.53 131.39 210.06 131.15 209.58 130.91 209.34 130.68 208.63 130.44 208.16 130.2 207.69 129.96 206.98 129.73 206.26 129.49 205.55 129.25 204.84 129.02 204.13 129.02 203.42 128.78 202.71 128.78 202 128.78 201.76 128.78 201.05 128.78 200.34 128.54 199.87 128.78"/><polyline class="cls-1" points="188.73 135.65 188.73 135.41 188.73 134.94 188.73 134.47 188.97 134.23"/><polyline class="cls-1" points="188.97 134.94 188.73 135.41 188.73 135.89 188.73 136.36 188.73 136.6"/><polyline class="cls-1" points="198.21 135.89 196.31 131.62 195.6 130.2"/><polyline class="cls-1" points="195.6 130.2 194.89 130.2 194.42 130.44 193.71 130.68 193.23 130.91 193 131.15 192.52 131.39 192.05 131.62 191.34 132.1 191.1 132.33 190.63 132.81 190.39 132.81 189.91 133.28 189.68 133.75 189.44 133.99 189.21 134.47 188.97 134.94"/><line class="cls-1" x1="195.6" y1="129.25" x2="195.6" y2="130.2"/><line class="cls-1" x1="183.52" y1="120.49" x2="183.52" y2="121.2"/><line class="cls-1" x1="151.29" y1="117.88" x2="151.29" y2="118.83"/><line class="cls-1" x1="192.05" y1="121.67" x2="192.05" y2="122.62"/><line class="cls-1" x1="151.53" y1="115.98" x2="151.53" y2="116.93"/><line class="cls-1" x1="229.72" y1="111.01" x2="229.72" y2="111.72"/><line class="cls-1" x1="202.71" y1="117.41" x2="202.71" y2="118.12"/><polyline class="cls-1" points="184.94 116.69 184.94 116.93 184.7 117.41 184.7 117.88"/><line class="cls-1" x1="161.48" y1="108.4" x2="161.48" y2="109.35"/><line class="cls-1" x1="213.85" y1="111.96" x2="206.74" y2="115.98"/><polyline class="cls-1" points="223.56 113.38 219.06 112.67 216.45 112.19 213.85 111.96"/><polyline class="cls-1" points="180.44 116.69 180.44 116.93 180.44 117.41"/><line class="cls-1" x1="180.44" y1="117.41" x2="180.2" y2="116.93"/><polyline class="cls-1" points="180.2 116.93 180.2 116.46 179.96 115.98 179.96 115.75 179.73 115.51 179.49 115.04 179.25 114.56 178.78 114.33 178.54 113.85 178.31 113.61 177.83 113.38 177.36 113.14 176.88 112.67 176.41 112.43 175.94 112.19 175.46 111.96 174.75 111.72 174.04 111.72 173.57 111.48 172.85 111.25 172.14 111.01 171.91 111.01 170.96 111.01 170.25 111.01 169.54 110.77 168.83 110.77 168.12 110.77 167.64 110.77 167.17 110.77"/><polyline class="cls-1" points="196.31 109.82 196.31 109.35 196.31 108.88 196.31 108.4 196.55 107.93 196.79 107.45 197.02 106.98 197.26 106.51 197.5 106.03 197.97 105.56 198.21 105.08 198.68 104.85 199.16 104.37 199.63 103.9 200.34 103.66 200.34 103.42 201.05 103.19 201.76 102.71 202.24 102.48 202.95 102 203.66 101.77 204.61 101.53 204.84 101.53 205.55 101.06 206.26 101.06 207.21 100.82 207.92 100.58 208.87 100.34 209.58 100.34 210.29 100.34 211.24 100.11 211.95 100.11 212.9 100.11 213.85 100.11 214.56 100.11 215.51 100.11 215.74 100.11 216.69 100.34 217.4 100.34 218.35 100.58 219.06 100.82 219.77 100.82 220.25 101.06"/><polyline class="cls-1" points="196.31 110.53 196.31 110.53 196.31 111.01 196.31 111.48 196.55 111.96 196.55 112.43 196.79 112.9 197.02 113.38 197.02 113.61 197.5 114.09 197.74 114.56 198.21 115.04 198.68 115.51 199.16 115.98"/><line class="cls-1" x1="220.25" y1="101.06" x2="220.25" y2="101.77"/><line class="cls-1" x1="213.85" y1="111.96" x2="213.85" y2="111.01"/><polyline class="cls-1" points="200.58 109.82 200.81 110.06 200.81 110.53 200.81 110.77 201.05 111.25 201.05 111.72 201.29 111.96 201.53 112.43 201.76 112.9 202.24 113.14 202.47 113.38 202.95 113.85"/><polyline class="cls-1" points="200.81 110.06 200.81 109.59 200.81 109.11 201.05 108.88 201.29 108.4 201.53 107.93 201.76 107.69 202 107.45 202.24 106.98 202.71 106.74 203.19 106.27 203.66 106.03 203.9 105.8 204.37 105.56 204.84 105.32 205.55 104.85 206.03 104.61 206.74 104.37 206.98 104.37 207.69 104.14 208.4 103.9 209.11 103.9 209.82 103.66 210.53 103.66 211.24 103.42 211.95 103.42 212.66 103.42 213.37 103.42 214.32 103.42 215.03 103.42 215.03 103.66 215.98 103.66 216.69 103.66 216.69 103.9"/><line class="cls-1" x1="216.69" y1="102.95" x2="216.69" y2="103.9"/><line class="cls-1" x1="226.41" y1="103.9" x2="226.41" y2="104.61"/><polyline class="cls-1" points="413.83 94.18 413.83 95.13 413.83 96.08 413.36 96.79 412.65 97.74 411.94 98.45 410.75 99.16 410.75 99.4"/><line class="cls-1" x1="122.15" y1="265.97" x2="410.75" y2="99.4"/><polyline class="cls-1" points="0.35 201.52 0.35 202.23 0.35 202.47"/><polyline class="cls-1" points="410.75 99.4 411.7 98.69 412.65 97.74 413.12 97.03 413.6 96.08 413.83 95.13"/><polyline class="cls-1" points="106.27 265.97 107.46 266.45 108.88 266.92 110.3 267.4 111.72 267.63 113.38 267.87 114.8 267.87 116.46 267.63 117.88 267.4 119.54 267.16 120.73 266.45 121.91 265.97 122.15 265.97"/><line class="cls-1" x1="3.43" y1="206.5" x2="106.27" y2="265.97"/><line class="cls-1" x1="86.13" y1="266.68" x2="85.89" y2="265.5"/><polyline class="cls-1" points="85.89 265.5 85.89 264.79 85.66 264.08 85.18 263.37 84.71 262.89 84.23 262.42 83.76 262.18"/><line class="cls-1" x1="83.76" y1="262.18" x2="27.6" y2="229.72"/><polyline class="cls-1" points="27.6 229.72 26.89 229.48 26.42 229.25 26.18 229.48"/><line class="cls-1" x1="25.71" y1="230.67" x2="25.71" y2="231.85"/><polyline class="cls-1" points="25.71 231.85 25.95 232.56 26.18 233.28 26.66 233.99 27.13 234.46 27.6 235.17 27.84 235.17"/><line class="cls-1" x1="27.84" y1="235.17" x2="84.24" y2="267.87"/><polyline class="cls-1" points="84.23 267.87 84.95 268.11 85.42 268.11 85.66 267.87"/><line class="cls-1" x1="108.64" y1="292.75" x2="108.4" y2="292.75"/><polyline class="cls-1" points="108.4 292.75 107.69 292.28 106.98 291.56 106.75 290.62 106.27 289.67 106.27 289.19"/><polyline class="cls-1" points="85.66 267.87 85.89 267.63 86.13 267.16 86.13 266.69"/><polyline class="cls-1" points="26.18 229.48 25.95 229.72 25.71 230.19 25.71 230.67"/><polyline class="cls-1" points="0.35 202.47 0.59 203.42 1.06 204.37 1.54 205.08 2.49 205.79 3.44 206.5"/><line class="cls-1" x1="61.25" y1="139.44" x2="4.62" y2="189.91"/><line class="cls-1" x1="204.37" y1="54.38" x2="204.13" y2="54.61"/><line class="cls-1" x1="204.13" y1="54.61" x2="201.76" y2="56.75"/><line class="cls-1" x1="201.76" y1="56.75" x2="199.87" y2="58.4"/><line class="cls-1" x1="199.87" y1="58.4" x2="197.73" y2="59.83"/><line class="cls-1" x1="197.73" y1="59.83" x2="195.13" y2="61.49"/><line class="cls-1" x1="195.13" y1="61.49" x2="191.81" y2="63.38"/><line class="cls-1" x1="191.81" y1="63.38" x2="186.36" y2="66.7"/><line class="cls-1" x1="186.36" y1="66.7" x2="178.54" y2="70.96"/><line class="cls-1" x1="178.54" y1="70.96" x2="65.75" y2="136.36"/><line class="cls-1" x1="4.62" y1="189.91" x2="3.43" y2="191.1"/><line class="cls-1" x1="3.43" y1="191.1" x2="2.49" y2="192.52"/><line class="cls-1" x1="2.49" y1="192.52" x2="1.78" y2="193.94"/><line class="cls-1" x1="1.78" y1="193.94" x2="1.3" y2="195.6"/><line class="cls-1" x1="1.3" y1="195.6" x2="1.07" y2="196.31"/><line class="cls-1" x1="1.07" y1="196.31" x2="0.35" y2="201.52"/><line class="cls-1" x1="184.23" y1="135.65" x2="184.23" y2="136.6"/><line class="cls-1" x1="217.64" y1="137.07" x2="217.64" y2="136.36"/><line class="cls-1" x1="65.75" y1="136.36" x2="65.52" y2="136.36"/><line class="cls-1" x1="65.52" y1="136.36" x2="63.38" y2="137.78"/><line class="cls-1" x1="63.38" y1="137.78" x2="61.49" y2="139.44"/><line class="cls-1" x1="61.49" y1="139.44" x2="61.25" y2="139.44"/><line class="cls-1" x1="184.94" y1="117.64" x2="184.94" y2="116.69"/><line class="cls-1" x1="196.31" y1="109.82" x2="196.31" y2="110.53"/><line class="cls-1" x1="409.57" y1="65.99" x2="409.33" y2="64.33"/><line class="cls-1" x1="409.33" y1="64.33" x2="408.62" y2="62.91"/><line class="cls-1" x1="408.62" y1="62.91" x2="407.91" y2="61.72"/><line class="cls-1" x1="407.91" y1="61.72" x2="406.73" y2="60.54"/><line class="cls-1" x1="406.73" y1="60.54" x2="405.54" y2="59.59"/><line class="cls-1" x1="405.54" y1="59.59" x2="404.83" y2="58.88"/><line class="cls-1" x1="413.83" y1="94.18" x2="409.57" y2="65.99"/><line class="cls-1" x1="404.83" y1="58.88" x2="306.02" y2="2.01"/><line class="cls-1" x1="209.35" y1="50.82" x2="207.45" y2="52.01"/><line class="cls-1" x1="207.45" y1="52.01" x2="205.32" y2="53.67"/><line class="cls-1" x1="205.32" y1="53.67" x2="204.37" y2="54.38"/><line class="cls-1" x1="293.7" y1="2.01" x2="209.35" y2="50.82"/><line class="cls-1" x1="306.02" y1="2.01" x2="304.84" y2="1.3"/><line class="cls-1" x1="304.84" y1="1.3" x2="303.18" y2="0.83"/><line class="cls-1" x1="303.18" y1="0.83" x2="301.52" y2="0.59"/><line class="cls-1" x1="301.52" y1="0.59" x2="299.62" y2="0.35"/><line class="cls-1" x1="299.62" y1="0.35" x2="297.73" y2="0.59"/><line class="cls-1" x1="297.73" y1="0.59" x2="295.83" y2="1.06"/><line class="cls-1" x1="295.83" y1="1.06" x2="294.17" y2="1.77"/><line class="cls-1" x1="294.17" y1="1.77" x2="293.7" y2="2.01"/><line class="cls-1" x1="120.25" y1="292.28" x2="237.54" y2="224.74"/><line class="cls-1" x1="237.54" y1="224.74" x2="271.19" y2="205.31"/><line class="cls-1" x1="271.19" y1="205.31" x2="296.31" y2="190.86"/><line class="cls-1" x1="296.31" y1="190.86" x2="301.28" y2="188.02"/><line class="cls-1" x1="301.28" y1="188.02" x2="304.84" y2="185.88"/><line class="cls-1" x1="304.84" y1="185.88" x2="306.97" y2="184.7"/><line class="cls-1" x1="306.97" y1="184.7" x2="308.86" y2="183.75"/><line class="cls-1" x1="308.86" y1="183.75" x2="310.76" y2="183.04"/><line class="cls-1" x1="310.76" y1="183.04" x2="312.66" y2="182.33"/><line class="cls-1" x1="312.66" y1="182.33" x2="314.55" y2="181.86"/><line class="cls-1" x1="314.55" y1="181.86" x2="316.21" y2="181.62"/><line class="cls-1" x1="316.21" y1="181.62" x2="317.63" y2="181.38"/><line class="cls-1" x1="317.63" y1="181.38" x2="318.82" y2="181.38"/><line class="cls-1" x1="318.82" y1="181.38" x2="320" y2="181.62"/><line class="cls-1" x1="320" y1="181.62" x2="320.95" y2="182.09"/><line class="cls-1" x1="320.95" y1="182.09" x2="321.19" y2="182.09"/><line class="cls-1" x1="108.64" y1="292.75" x2="109.35" y2="293.22"/><line class="cls-1" x1="109.35" y1="293.22" x2="111.01" y2="293.7"/><line class="cls-1" x1="111.01" y1="293.7" x2="112.67" y2="293.93"/><line class="cls-1" x1="112.67" y1="293.93" x2="114.57" y2="293.93"/><line class="cls-1" x1="114.57" y1="293.93" x2="116.22" y2="293.93"/><line class="cls-1" x1="116.22" y1="293.93" x2="118.12" y2="293.46"/><line class="cls-1" x1="118.12" y1="293.46" x2="119.78" y2="292.75"/><line class="cls-1" x1="119.78" y1="292.75" x2="120.25" y2="292.51"/><line class="cls-1" x1="8.65" y1="235.41" x2="11.97" y2="237.54"/><line class="cls-1" x1="11.97" y1="237.54" x2="23.58" y2="244.89"/><line class="cls-1" x1="23.58" y1="244.89" x2="35.42" y2="252.23"/><line class="cls-1" x1="35.42" y1="252.23" x2="47.03" y2="259.34"/><line class="cls-1" x1="47.03" y1="259.34" x2="58.64" y2="266.21"/><line class="cls-1" x1="58.64" y1="266.21" x2="70.26" y2="272.85"/><line class="cls-1" x1="70.26" y1="272.85" x2="82.1" y2="279.24"/><line class="cls-1" x1="82.1" y1="279.24" x2="93.71" y2="285.4"/><line class="cls-1" x1="93.71" y1="285.4" x2="105.09" y2="291.09"/><line class="cls-1" x1="105.09" y1="291.09" x2="108.64" y2="292.75"/><line class="cls-1" x1="0.35" y1="202.47" x2="4.15" y2="228.54"/><line class="cls-1" x1="4.15" y1="228.54" x2="4.62" y2="229.96"/><line class="cls-1" x1="4.62" y1="229.96" x2="5.09" y2="231.38"/><line class="cls-1" x1="5.09" y1="231.38" x2="6.04" y2="232.8"/><line class="cls-1" x1="6.04" y1="232.8" x2="6.99" y2="233.99"/><line class="cls-1" x1="6.99" y1="233.99" x2="8.17" y2="234.93"/><line class="cls-1" x1="8.17" y1="234.93" x2="8.65" y2="235.41"/><line class="cls-1" x1="326.64" y1="185.88" x2="326.64" y2="185.88"/><line class="cls-1" x1="326.64" y1="185.88" x2="328.53" y2="186.83"/><line class="cls-1" x1="328.53" y1="186.83" x2="330.66" y2="187.31"/><line class="cls-1" x1="330.66" y1="187.31" x2="332.56" y2="187.31"/><line class="cls-1" x1="332.56" y1="187.31" x2="334.69" y2="187.31"/><line class="cls-1" x1="334.69" y1="187.31" x2="336.83" y2="187.07"/><line class="cls-1" x1="336.83" y1="187.07" x2="338.96" y2="186.36"/><line class="cls-1" x1="338.96" y1="186.36" x2="341.33" y2="185.41"/><line class="cls-1" x1="341.33" y1="185.41" x2="343.46" y2="184.23"/><line class="cls-1" x1="317.4" y1="181.38" x2="320.24" y2="182.8"/><line class="cls-1" x1="320.24" y1="182.8" x2="326.64" y2="185.88"/><line class="cls-1" x1="343.46" y1="184.23" x2="404.59" y2="149.16"/><line class="cls-1" x1="409.57" y1="141.57" x2="413.83" y2="95.61"/><line class="cls-1" x1="404.59" y1="149.16" x2="404.83" y2="148.92"/><line class="cls-1" x1="404.83" y1="148.92" x2="406.25" y2="147.97"/><line class="cls-1" x1="406.25" y1="147.97" x2="407.2" y2="146.79"/><line class="cls-1" x1="407.2" y1="146.79" x2="408.15" y2="145.6"/><line class="cls-1" x1="408.15" y1="145.6" x2="408.86" y2="144.18"/><line class="cls-1" x1="408.86" y1="144.18" x2="409.33" y2="142.52"/><line class="cls-1" x1="409.33" y1="142.52" x2="409.57" y2="141.57"/><polyline class="cls-1" points="156.27 188.25 154.14 186.59 152.24 184.7 150.34 183.04 148.21 181.38 146.32 179.72 144.18 177.83 142.05 176.41 139.92 174.75 137.79 173.09 135.42 171.43 133.28 170.01 130.91 168.59 128.78 166.93 126.41 165.51 125.94 165.27 123.33 163.85 120.96 162.43 118.59 161 115.99 159.58 113.62 158.4 111.01 156.98 108.4 155.79 105.8 154.61 103.19 153.42 100.35 152.24 97.74 151.05 94.9 150.1 92.29 148.92 89.45 147.97 86.61 146.79 83.76 145.84 80.92 144.89"/><polyline class="cls-1" points="156.27 188.25 158.88 191.1 161.48 193.7"/><polyline class="cls-1" points="167.41 200.34 165.75 198.21 163.85 196.31 162.19 194.41 161.48 193.7"/><line class="cls-1" x1="167.41" y1="200.34" x2="114.33" y2="251.76"/><polyline class="cls-1" points="110.54 252.71 111.01 252.94 111.72 252.94 112.67 252.94 113.38 252.71 114.09 252.23 114.33 251.76"/><line class="cls-1" x1="110.54" y1="252.7" x2="8.41" y2="193.7"/><polyline class="cls-1" points="8.41 190.62 7.94 191.1 7.7 191.81 7.46 192.28 7.7 192.99 7.94 193.47 8.41 193.7"/><line class="cls-1" x1="8.41" y1="190.62" x2="65.04" y2="140.39"/><polyline class="cls-1" points="74.99 143 71.91 142.28 69.07 141.34 65.99 140.63 65.04 140.39"/><line class="cls-1" x1="74.99" y1="143" x2="80.92" y2="144.89"/><polyline class="cls-1" points="167.41 200.34 168.59 200.81 169.54 201.52 170.49 202.47 171.43 203.42 172.38 204.37 173.33 205.55 174.04 206.5 174.75 207.45 174.99 208.63 175.22 208.63"/><line class="cls-1" x1="175.22" y1="208.63" x2="122.15" y2="260.29"/><polyline class="cls-1" points="114.33 251.76 115.51 252.47 116.46 253.18 117.41 254.13 118.59 255.07 119.3 256.02 120.25 256.97 120.96 258.15 121.67 259.1 122.15 260.05 122.15 260.29"/><line class="cls-1" x1="122.15" y1="260.29" x2="122.15" y2="265.97"/><polyline class="cls-1" points="178.31 206.26 177.59 206.5 177.12 206.97 176.41 207.45 175.94 207.92 175.46 208.4 175.22 208.63"/><polyline class="cls-1" points="319.05 122.38 318.11 123.57 317.16 124.51 315.97 125.46 315.03 126.17 314.08 127.12 312.89 127.83 311.94 128.78 311 129.49 309.81 130.2 308.87 130.91 307.92 131.39 306.02 132.33 261.48 158.16 178.31 206.26"/><polyline class="cls-1" points="322.37 119.78 321.9 120.25 321.19 120.49 320.71 120.96 320.24 121.43 319.53 121.91 319.05 122.38"/><line class="cls-1" x1="406.49" y1="71.2" x2="322.37" y2="119.78"/><line class="cls-1" x1="406.49" y1="71.2" x2="410.75" y2="99.4"/><polyline class="cls-1" points="122.15 260.29 120.96 260.76 119.54 261.47 118.12 261.71 116.7 262.18 115.04 262.42 113.38 262.42 111.96 262.42 110.3 262.18 108.88 261.95 107.69 261.47 106.51 261 106.27 261"/><polyline class="cls-1" points="110.54 252.71 109.59 253.65 108.88 254.6 107.93 255.78 107.46 256.97 106.98 258.15 106.51 259.34 106.27 260.76 106.27 261"/><line class="cls-1" x1="106.27" y1="261" x2="106.27" y2="265.97"/><line class="cls-1" x1="106.27" y1="261" x2="4.15" y2="202"/><polyline class="cls-1" points="8.41 193.7 7.46 194.65 6.51 195.6 5.8 196.78 5.33 197.97 4.86 199.15 4.38 200.57 4.15 201.76 4.15 202"/><line class="cls-1" x1="4.15" y1="202" x2="3.43" y2="206.5"/><polyline class="cls-1" points="69.31 136.36 68.83 136.84 68.12 137.31 67.41 138.02 66.7 138.49 66.23 139.21 65.52 139.68 65.04 140.39"/><polyline class="cls-1" points="69.31 136.36 72.39 137.31 75.47 138.02 78.31 138.97 81.39 139.92 84.23 140.86 87.08 141.81 89.92 142.76 92.77 143.71 95.61 144.89 98.45 146.08 101.3 147.02 103.9 148.21 106.51 149.39 109.35 150.58 111.96 151.76 114.56 153.19 117.17 154.37 119.78 155.79 122.15 156.98 124.75 158.4 127.12 159.82 129.73 161.24 130.68 161.95 133.05 163.37 135.42 164.8 137.79 166.45 140.16 168.11 142.53 169.53 144.66 171.19 147.03 172.85 149.16 174.75 151.29 176.41 153.43 178.06 155.56 179.96 157.69 181.62 159.59 183.51 161.72 185.41 163.61 187.31 165.75 189.2 165.98 189.68 168.12 191.57 170.01 193.7 171.67 195.84 172.85 197.02"/><polyline class="cls-1" points="167.41 200.34 168.35 199.63 169.06 199.15 169.78 198.68 170.49 198.21 171.43 197.73 172.14 197.26 172.85 197.02"/><polyline class="cls-1" points="172.85 197.02 173.8 197.73 174.75 198.44 175.46 199.63 176.41 200.57 176.88 201.76 177.59 203.18 177.83 204.37 178.07 205.55 178.31 206.26"/><polyline class="cls-1" points="172.85 197.02 184.7 190.15 232.09 162.66 242.04 156.98 251.29 151.53 259.82 146.55 267.64 142.05 274.74 138.02 280.9 134.47 286.59 131.15 291.33 128.54 295.36 126.17 298.68 124.28 301.05 122.86 302.47 121.91 303.42 121.43 304.36 120.72 305.31 120.01 306.26 119.54 307.21 118.59 308.15 117.88 309.1 117.17 310.05 116.22 311 115.51 311.71 114.56"/><polyline class="cls-1" points="311.71 114.56 312.66 115.27 313.84 115.98 314.79 116.93 315.74 117.88 316.68 118.83 317.39 120.01 318.11 120.96 318.82 121.91 319.05 122.38"/><polyline class="cls-1" points="207.92 54.85 206.98 55.8 205.79 56.51 204.84 57.46 203.9 58.17 202.95 58.88 202 59.59 201.05 60.3 200.1 61.01 199.16 61.48 197.97 62.2 114.33 110.53 102.24 117.41 69.31 136.36"/><polyline class="cls-1" points="311.71 114.56 305.79 111.96 300.1 109.35 294.65 106.98 289.44 104.61 284.46 102.24 281.62 101.06 279.01 99.87 276.4 98.69 274.03 97.5 271.66 96.32 269.29 95.13 266.93 94.18 264.79 93 262.42 91.81 260.29 90.87 258.16 89.68 256.02 88.5 254.13 87.31 253.18 86.84 251.29 85.65 249.15 84.47 247.26 83.28 245.13 82.1 243.23 80.68 240.86 79.26 238.49 77.6 235.88 75.7 233.04 73.57 229.72 71.2 229.01 70.73 225.46 68.12 221.19 65.04 216.22 61.25 210.53 56.98 207.92 54.85"/><polyline class="cls-1" points="61.25 139.44 61.73 139.21 62.2 139.21 62.91 139.44 63.62 139.68 64.57 140.15 65.04 140.39"/><polyline class="cls-1" points="8.41 190.62 7.46 190.15 6.75 189.91 6.04 189.68 5.33 189.68 4.86 189.91 4.62 189.91"/><polyline class="cls-1" points="204.37 54.38 204.84 54.14 205.55 54.14 206.26 54.14 206.98 54.61 207.92 54.85"/><polyline class="cls-1" points="65.75 136.36 66.46 135.89 67.17 135.89 68.12 135.89 69.07 136.36 69.31 136.36"/><polyline class="cls-1" points="4.15 202 3.2 201.29 2.25 200.34 1.78 199.39 1.3 198.44 1.06 197.5 1.06 196.55 1.06 196.31"/><line class="cls-1" x1="188.97" y1="134.23" x2="188.97" y2="134.94"/><polyline class="cls-1" points="213.37 51.3 212.66 51.53 211.95 52.01 211.24 52.48 210.29 52.95 209.58 53.67 208.87 54.14 208.16 54.61 207.92 54.85"/><polyline class="cls-1" points="213.37 51.3 215.03 52.72 216.45 54.14 217.88 55.32 219.3 56.75 220.72 58.17 222.14 59.35 223.56 60.77 224.98 61.96 226.41 63.14 227.83 64.56 229.01 65.75 230.43 66.94 231.86 68.12 233.28 69.3 234.46 70.49 235.88 71.67 237.07 72.86 238.49 73.81 239.91 74.99 241.33 76.18 242.52 77.12 243.94 78.31 245.36 79.26 246.78 80.2 248.21 81.39 249.63 82.34 251.29 83.28 252.71 84.23 254.13 85.18 255.79 85.89 257.45 86.84 259.11 87.79 260.76 88.73 261.24 88.97 263.13 89.68 265.03 90.63 267.16 91.58 269.53 92.53 271.9 93.71 274.74 94.89 277.59 96.08 281.14 97.27 284.93 98.69 289.2 100.34 294.41 102.24 300.33 104.37 308.63 107.45 316.45 110.06"/><polyline class="cls-1" points="311.71 114.56 312.18 113.85 312.89 113.14 313.6 112.67 314.08 111.96 314.79 111.48 315.5 111.01 316.21 110.53 316.45 110.06"/><line class="cls-1" x1="213.37" y1="51.3" x2="297.97" y2="2.48"/><polyline class="cls-1" points="297.96 2.48 298.44 2.25 298.91 2.01 299.86 2.01 300.57 2.01 301.28 2.25 301.99 2.48"/><line class="cls-1" x1="301.99" y1="2.48" x2="400.57" y2="59.35"/><polyline class="cls-1" points="400.56 59.35 400.8 59.59 401.28 60.06 401.28 60.3 401.28 60.77 401.04 61.25 400.56 61.72"/><line class="cls-1" x1="400.57" y1="61.72" x2="316.45" y2="110.06"/><polyline class="cls-1" points="316.45 110.06 317.39 110.77 318.34 111.72 319.29 112.67 320 113.61 320.71 114.8 321.42 115.98 321.9 117.41 322.13 118.59 322.37 119.78"/><polyline class="cls-1" points="406.49 71.2 406.25 70.02 406.01 68.83 405.54 67.65 404.83 66.46 404.12 65.28 403.41 64.09 402.46 63.14 401.51 62.43 400.56 61.72"/><polyline class="cls-1" points="406.49 71.2 406.49 71.2 407.67 70.49 408.38 69.54 409.1 68.59 409.57 67.88 409.57 66.94 409.57 65.99"/><polyline class="cls-1" points="404.83 58.88 403.88 58.64 403.17 58.64 402.22 58.64 401.28 58.88 400.56 59.35"/><polyline class="cls-1" points="306.02 2.01 305.31 1.77 304.6 1.54 303.65 1.77 302.7 2.01 301.99 2.48"/><polyline class="cls-1" points="209.35 50.82 210.06 50.59 210.77 50.35 211.72 50.59 212.66 50.82 213.37 51.3"/><polyline class="cls-1" points="293.7 2.01 294.65 1.77 295.36 1.54 296.31 1.77 297.25 2.01 297.96 2.48"/><line class="cls-1" x1="410.75" y1="99.4" x2="406.25" y2="145.84"/><line class="cls-1" x1="345.12" y1="181.15" x2="406.25" y2="145.84"/><polyline class="cls-1" points="334.69 181.38 334.93 181.62 335.4 182.09 335.88 182.33 336.35 182.57 336.82 182.57 337.3 182.8 337.77 183.04 338.25 183.04 338.96 183.04 339.43 183.04 339.91 183.04 340.62 182.8 341.09 182.8 341.8 182.57 342.51 182.33 343.22 182.09 343.7 181.86 344.41 181.62 345.12 181.15"/><polyline class="cls-1" points="122.15 289.19 167.17 263.13 236.83 222.85 277.82 199.15 279.48 198.21 280.9 197.5 282.33 196.55 283.99 195.6 285.41 194.89 286.83 194.18 288.25 193.23 289.44 192.52 290.86 191.57 292.28 190.86 293.46 190.15 294.65 189.44 296.07 188.73 297.25 188.02 298.44 187.31 299.62 186.59 300.81 185.88 301.99 185.17 303.18 184.7 304.13 183.99 305.31 183.28 306.26 182.8 307.44 182.09 308.39 181.62 309.58 180.91 310.52 180.44 311.47 179.96 312.66 179.49 313.6 179.01 314.55 178.78 315.74 178.3 316.68 178.06 317.63 177.83 318.58 177.59 319.76 177.35 320.71 177.35 321.66 177.12 322.61 177.12 323.32 177.12 324.27 177.12 325.21 177.12 325.93 177.12 326.87 177.35 327.58 177.59 328.53 177.59 328.77 177.83 329.48 178.06 330.19 178.3 330.9 178.78 331.61 179.01 332.32 179.49 333.03 179.96 333.51 180.44 334.22 180.91 334.69 181.38"/><line class="cls-1" x1="122.15" y1="289.2" x2="122.15" y2="265.97"/><polyline class="cls-1" points="106.27 289.19 106.75 289.67 107.46 289.91 107.93 290.14 108.4 290.38 109.11 290.62 109.59 290.85 110.3 290.85 111.01 291.09 111.72 291.09 112.43 291.33 113.14 291.33 113.85 291.33 114.56 291.33 115.28 291.33 115.51 291.33 116.22 291.09 116.93 291.09 117.64 290.85 118.36 290.85 118.83 290.62 119.07 290.62 119.78 290.38 120.25 290.14 120.96 289.91 121.44 289.43 121.91 289.19 122.15 289.19"/><line class="cls-1" x1="106.27" y1="289.2" x2="106.27" y2="265.97"/><polyline class="cls-1" points="7.46 232.33 11.96 235.41 16.47 238.25 20.97 241.09 25.47 243.94 29.97 246.78 34.48 249.62 38.74 252.23 43.24 254.84 47.74 257.68 52.48 260.52 56.99 262.89 61.49 265.5 65.99 268.11 70.49 270.48 74.99 273.08 79.5 275.45 83.76 277.82 88.26 280.19 92.77 282.56 97.27 284.69 101.53 287.06 106.27 289.19"/><line class="cls-1" x1="7.46" y1="232.33" x2="3.43" y2="206.5"/><polyline class="cls-1" points="120.25 292.28 120.96 291.8 121.44 291.33 121.91 290.38 122.15 289.43 122.15 289.19"/><polyline class="cls-1" points="324.27 184.46 323.79 183.99 323.32 183.51 322.85 183.04 322.13 182.57 321.42 182.33 321.19 182.09"/><polyline class="cls-1" points="324.27 184.46 325.45 184.7 326.64 185.17 327.82 185.17 329.24 184.94 330.43 184.46 331.61 183.99 332.8 183.28 333.75 182.33 334.69 181.38"/><polyline class="cls-1" points="8.65 235.41 8.17 234.93 7.7 234.22 7.46 233.28 7.46 232.33"/><polyline class="cls-1" points="318.58 181.38 323.08 183.75 324.27 184.46"/><line class="cls-1" x1="84.24" y1="267.87" x2="86.13" y2="266.68"/><line class="cls-1" x1="27.84" y1="235.17" x2="32.58" y2="232.56"/><line class="cls-1" x1="25.71" y1="230.67" x2="27.6" y2="229.72"/><line class="cls-1" x1="25.71" y1="231.85" x2="28.79" y2="230.19"/><polyline class="cls-1" points="4.15 228.54 4.15 228.54 4.38 229.01 4.38 229.48 4.62 229.72 4.86 230.19 5.09 230.67 5.33 230.67 5.57 231.14 6.04 231.38 6.28 231.62 6.75 232.09 7.23 232.33 7.46 232.33"/><polyline class="cls-1" points="326.64 185.88 326.16 185.65 325.45 185.41 324.98 184.94 324.5 184.7 324.27 184.46"/><polyline class="cls-1" points="345.12 181.15 345.12 182.09 344.64 183.04 344.17 183.75 343.7 184.23 343.46 184.23"/><polyline class="cls-1" points="406.25 145.84 406.01 146.79 405.78 147.74 405.3 148.45 404.83 148.92 404.59 149.16"/><polyline class="cls-1" points="406.25 145.84 406.73 145.6 407.2 145.13 407.67 144.89 408.15 144.42 408.38 144.18 408.62 143.71 408.86 143.23 409.1 143 409.33 142.76 409.33 142.28 409.57 142.05 409.57 141.57"/></g></g></svg>