<svg xmlns="http://www.w3.org/2000/svg" viewBox="0 0 423.01 395.32"><defs><style>.cls-1,.cls-2{fill:none;stroke:#000;stroke-linecap:round;stroke-linejoin:round;}.cls-1{stroke-width:0.7px;}.cls-2{stroke-width:0.71px;}</style></defs><g id="Layer_2" data-name="Layer 2"><g id="Layer_1-2" data-name="Layer 1"><g id="antena"><path class="cls-1" d="M341.46,14.19A6.43,6.43,0,0,0,344.38,10"/><path class="cls-1" d="M324.54,10c.29,4.26,5.79,5.33,9.23,5.84a18.89,18.89,0,0,0,7.69-1.69"/><path class="cls-1" d="M341.46,14.19a15.66,15.66,0,0,0-6.92-12"/><polyline class="cls-1" points="334.54 2.19 334.38 2.19 334.54 2.19"/><path class="cls-1" d="M324.54,10c.83,41.09-1.17,83.09-1.41,124.51"/><path class="cls-1" d="M346.15,145c-.78-44.87-1.78-89.87-1.77-135"/><path class="cls-1" d="M344.38,10l-.62-3.23-1.38-2.46c-2.08-2.23-4.23-3.8-7.38-4-5.95.09-9.82,3.82-10.46,9.69"/></g><path class="cls-2" d="M353.85,156.37l18.4,10.6M197.85,66.27l142.6,82.4m5.1,12.4,18.5,10.6M189.65,71.07l142.6,82.3m-299.4,8.2,169.3,97.7m-177.5-93,185.7,107.2m133.8-111.6,18.5,10.7M188.25,71.87l142.6,82.3m-296.6,6.6L201.05,257m17.4,110.8-2-1.2M68.35,251.67l.2.1m1.8,1.1.2.1m-4.9,2.9,1.9,1.1,1.3.7m5.6-2.4.2.1m-4.9,2.9,1.9,1.1,1.2.7m5.7-2.5.2.1m-5,2.9,2,1.1,1.2.7m.9.6.5.2m.8-2.8v2.4m0,0v-2.4m.4,2.1v-1.3m-2.5,2.4.6.4m22.2,6,.2.1m1.9,1,.2.1m-4.9,2.9,1.9,1.1,1.2.8m3.6-3.7.2.1m1.9,1.1.2.1m-5,2.9,2,1.1,1.2.7m3.6-3.6.2.1m1.8,1,.2.1m-4.9,2.9,1.9,1.1,1.3.8m.9.5.4.2m.8-2.8V281m0,0v-2.4m.5,2.1v-1.3m-2.5,2.5.5.3m22.3,6,.2.1m1.8,1,.3.2m-5,2.9,1.9,1.1,1.3.7m3.6-3.7.2.1m-2.9,4.1,1.9,1.1,1.3.7m3.6-3.6.2.1m1.8,1.1.2.1m-4.9,2.9,1.9,1.1,1.2.7m.9.5.5.3m.8-2.8v2.3m0,0v-2.3m.4,2.1v-1.3m-2.5,2.4.6.3m22.3,6,.2.1m1.8,1.1.2.1m-4.9,2.9,1.9,1.1,1.3.7m3.6-3.7.2.2m1.8,1,.2.1m-4.9,2.9,1.9,1.1,1.2.8m3.6-3.7.2.1m1.9,1.1.2.1m-5,2.9,2,1.1,1.2.7m.9.5.5.3m.7-2.8v2.3m.1,0v-2.3m.4,2.1v-1.3m-2.5,2.4.5.3m-119.1-85.2v.7m122.9,62.8.8.5m-6.6-3.8.4.2m-20.8-12,.8.4m-6.6-3.7.4.2m-26.2-15.1.8.4m-6.5-3.8.3.2m-26.1-15.1.7.5M81,242l.3.2m-20.8-12,.8.5m-6.5-3.8.3.2m124.3,90.3v.6m0-7.6v.7m158.1-79.4,1.8,1m-135-182.2h0m1.8-1.1h0m-4.2,2.5h0m-47.3,27.3h0M86,118.77h0m1.8-1.1h0m-4.2,2.5h0m-47.3,27.3h0m14.2,124.2L22.35,288m-15.9-27.5,12.3-7.1m-1.5-.9L6.05,259m17.3,30.1L52,272.57m166.5,109.1-17.3,10m2.8-326-1.3-.5h-1.5l-1.6.4-1.7.7m0,0-8.2,4.8m0,0-.2.1-.1.1-.2.2-.1.2-.1.2V72M16.65,252.17h0l-.3-.2-.1-.3-.2-.4v-.4m16.8-89.3.2-.1h.4m-8.8,4.8,8.2-4.7m-16.8,89.3v-69.7m0,69.7,200.4,115.7m-40-70.7,4,2.3m-30.2-17.4,21.2,12.2m-52.8-30.4,26.5,15.3m-58.1-33.6,26.6,15.4m-52.8-30.5,21.2,12.2m-29.9-17.2,3.7,2.1m124.6,90.8v12.4m0-31.3v13.1m-.6,17.8.6.4M52.15,224.17v.6m-36.1-43.6.2-2,.5-2.1.8-2.2,1-2.2,1.3-1.9,1.5-1.8,1.6-1.5,1.7-1.2m-8.6,14.9,200.4,115.7m0,69.7v-41.9m.6,43.2h0l-.2-.2-.2-.3-.1-.4-.1-.4m-28.2-294.7.1-.1h.3m-.4.1-154,88.9m0,0h-.1l-.1.1-.1.2-.1.1-.1.2v.3m182.7,204.9.1.4.1.4.2.3.2.2m-.6-43.2v41.9m4.1-37.2v5.4M200,63.37l-1.3-.5h-1.5l-1.6.3-1.7.8M12.05,248.57v.4l.2.4.1.3.3.2M193.85,64,20.65,164m177.2-97.7-4-2.3M12.05,178.87v69.7m4,2.3-4-2.3m8.6-84.6-1.7,1.2-1.6,1.5-1.5,1.7-1.3,2-1,2.2-.8,2.1-.5,2.2-.2,2m4,2.3-4-2.3m12.6-12.6-4-2.3M204,65.67l-1.3-.5h-1.5l-1.6.4-1.7.7m0,0-173.2,100m0,0-1.7,1.2-1.6,1.5-1.5,1.8-1.3,1.9-1,2.2-.8,2.2-.5,2.1-.2,2m0,0v69.7m0,0v.4l.2.4.1.3.3.2m218,91.9,1.6-1.8m-1.8,1.9.2-.1m1.7-3.1-.1,1.3m0,0,4,2.3m-5.8-.4.2-.1m0,0,.3-.5.4-.4.3-.5.2-.5.2-.5.2-.5v-.1m-2,5.4,2.7,1.6m-2.8-.9.5-4.3m3.3-3.5-3.3,3.5m3.3-3.5,2.8.9m0,0-.5,4.3m-3.3,3.5,3.3-3.5m-6.1,2.6,2.8.9m6.7-8.9v-.7l-.4-1.7-.7-1.3-1-.8-1.3-.4-1.5.1-1.6.5-1.6,1-1.6,1.5m0,0-1.4,1.7-1.2,2-.9,2-.6,2.1-.2,2,.1,1.8.6,1.5.8,1.1,1.2.6,1.4.1,1.6-.3,1.3-.6m-1.6-12.9-1.3,1.7-1.2,1.9-.8,2-.4,2-.1,1.8.3,1.6.7,1.2,1,.8,1.3.3,1.4-.2,1.6-.7,1.5-1.2,1.5-1.5,1.2-1.8,1-1.9.6-2,.3-2-.1-1.7-.5-1.4-.9-1-1.1-.6h-1.4l-1.5.4-1.6,1-1.5,1.3m-.4-14.8,1.6-1.7m-1.8,1.8.2-.1m1.7-3-.1,1.3m0,0,4,2.3m-5.8-.5.2-.1m0,0,.3-.4.4-.5.3-.5.2-.5.2-.5.2-.5m-2,5.3,2.7,1.6m-2.8-.8.5-4.4m3.3-3.4-3.3,3.4m3.3-3.4,2.8.8m0,0-.5,4.4m-3.3,3.4,3.3-3.4m-6.1,2.6,2.8.8m-2.6-17.5v-.1l-1.3-.4-1.5.1-1.6.6-1.6,1-1.6,1.4m0,0-1.4,1.8-1.2,1.9-.9,2.1-.6,2.1-.2,2,.1,1.8.6,1.4.8,1.1.5.4m19.2-8.5v-.8l-.4-1.6-.7-1.3-1-.9-1.3-.4-1.5.1-1.6.6-1.6,1L234,317m0,0-1.4,1.7-1.2,2-.9,2.1-.6,2.1-.2,2,.1,1.7.6,1.5.8,1.1,1.2.6,1.4.2,1.6-.3,1.3-.7m-1.6-12.9-1.3,1.7-1.2,1.9-.8,2-.4,2-.1,1.8.3,1.6.7,1.2,1,.8,1.3.3,1.4-.2,1.6-.7,1.5-1.1,1.5-1.5,1.2-1.8,1-2,.6-2,.3-1.9-.1-1.8-.5-1.4-.9-1-1.1-.5-1.4-.1-1.5.5-1.6.9-1.5,1.3M.35,193.67l.2-1.9.5-2,1-2,1.2-1.8,1.4-1.6,1-.9m-3.3,15.6-.4-.2-.9-1.1-.5-1.4-.2-1.8m0,0,.2-2,.5-2.1.9-2,1.2-2,1.4-1.8,1.1-1M.35,214l.2-1.8.5-2.1,1-1.9,1.2-1.9,1.4-1.6,1-.9m-3.3,15.7-.4-.3-.9-1-.5-1.5L.35,215m0,0,.2-2,.5-2.1.9-2.1,1.2-2,1.4-1.7,1.2-1.1m407.9,36.7,1.6-1.7m-1.8,1.9.2-.2m1.7-3-.1,1.3m0,0,4,2.3m-5.8-.5.2-.1m0,0,.3-.4.3-.4.4-.5.2-.5.2-.5.2-.6m-2,5.4,2.7,1.6m-2.8-.9.5-4.3m3.3-3.5-3.3,3.5m3.3-3.5,2.8.9m0,0-.5,4.3m-3.3,3.5,3.3-3.5m-6.1,2.6,2.8.9m6.7-8.9v-.8l-.4-1.6-.7-1.3-1-.9-1.3-.4-1.5.1-1.6.6-1.6,1L413,234m0,0-1.4,1.8-1.2,1.9-.9,2.1-.6,2.1-.2,2,.1,1.8.6,1.4.8,1.1,1.2.7,1.4.1,1.6-.3,1.3-.6m-1.6-12.9-1.3,1.6-1.2,1.9-.8,2-.4,2-.1,1.9.3,1.5.7,1.3,1,.8,1.3.3,1.4-.3,1.6-.6,1.5-1.2,1.5-1.5,1.2-1.8,1-2,.6-2,.3-1.9-.1-1.7-.5-1.4-.9-1.1-1.1-.5h-1.4l-1.5.4-1.6.9-1.5,1.4m-.4-14.8,1.6-1.8m-1.8,1.9.2-.1m1.7-3.1-.1,1.3m0,0,4,2.3m-5.8-.4.2-.1m0,0,.3-.5.3-.4.4-.5.2-.5.2-.5.2-.5v-.1m-2,5.4,2.7,1.6m-2.8-.9.5-4.3m3.3-3.5-3.3,3.5m3.3-3.5,2.8.9m0,0-.5,4.3m-3.3,3.5,3.3-3.5m-6.1,2.6,2.8.9m-2.6-17.6h0l-1.3-.4-1.5.1-1.6.6-1.6,1-1.6,1.4m0,0-1.4,1.7-1.2,2-1,2.1-.5,2.1-.2,2,.1,1.7.6,1.5.8,1.1.5.3m19.2-8.4v-.8l-.4-1.7-.7-1.3-1-.8-1.3-.4-1.5.1-1.6.5-1.6,1-1.6,1.5m0,0-1.4,1.7-1.2,2-.9,2-.6,2.1-.2,2,.1,1.8.6,1.5.8,1.1,1.2.6,1.4.1,1.6-.3,1.3-.6m-1.6-12.9-1.3,1.7-1.2,1.9-.8,2-.4,2-.1,1.8.3,1.6.7,1.2,1,.8,1.3.3,1.4-.2,1.6-.7,1.5-1.2,1.5-1.5,1.2-1.8,1-1.9.6-2,.3-2-.1-1.7-.5-1.4-.9-1-1.1-.6h-1.4l-1.5.4-1.6,1-1.5,1.3m-360.2,43.1.3-.1.2-.2m13.6-5.4.1-.1.1-.2.2-.2m6.9-4.8.3-.2m-7.2,5,2.2-1.5m-4.1,5.4.3-.2m-.3.2-.5.2-.3.1m.8-4.1v3.8m-1.2-3.4v4m0,0,.2-.2.2-.1m-.8.7.2-.2.1-.1.1-.1m4.8-2.9h0l.1-.2.2-.2m7-4.8.1-.1m-7.1,4.9,2.2-1.5m-4.1,4.7.4-.2m-2,.6v-.1h-.1v-.1l.1-.1m0-2.8v3.1m0,0h0m6.9-7.6,1.7-2.2m-.5-.4-2.7,3.4m2.1-4.3-4,5m.3.2-.3-.2m-3.5,6.1v-3.1m.5,3.1h-.5m.5,0,.6-.2.5-.2m0-3.1v3.1m-1.1-2.7v3.1m12-7.3h.1m-7,4.9,2.2-1.6m-5.7,6.4h-.1v-.4m1.6-.5.4-.3m4.9-7.7,1.6-2m-.5-.4-2.5,3.3m1.7-3.9-3.6,4.6m.3.2-.3-.2m-2,6.4-.4.1-.3.2m.7-4.1V258m-1.1-3.4v3.9m-4.5-1.4-1.9,1.1m-1.2-4.3L61,255l-.7.8m9.1,2.7.2-.1.2-.1m-.8.6.2-.1.1-.2.1-.1m-13.8-5.4,1.4-.7,1-.7m0-5-1.3.3-1.1.1m-.8-.1v6.5m19.3,2.2.1-.1.1-.2.2-.1m0,0,2.2-1.6m-4.1,4.8.3-.2m-1.9.5h-.1v-.2m.1-2.9v3.1m0,0h0m6.8-7.6,1.7-2m-.6-.4-2.5,3.2m1.6-3.7-3.5,4.5m.3.1-.3-.1m-3.5,6v-3.1m.4,3.2h-.3l-.1-.1m.4.1v-3.2m0,3.2.7-.2.5-.2m0-3.1v3.1m3.9-2.1-.2.2-.1.3m2.5-2-2.2,1.5m-3.5,4.9v-.1l-.1-.3v-.1m2.1-.7-.4.2m5.3-7.9.4-.5m0-1-1.9,2.3m2.6-3.3-.1.2m-.8-.7-3.6,4.5m.4.2-.4-.2m-1.9,6.4-.4.2-.4.1m.8-.3v-3.8m-1.1.4v4m.3-.3-.2.1-.1.2m-.5.4.2-.2.2-.1.1-.1m-17-18.8v-1m22.1,16.5-.2.2-.2.2m1.4-1.1-1,.7m-1.6,3-.4.2M55.75,247l-.3.1H55l-.2-.1M75,261v.1l.1.1m0-3.1v3.1m0,0h0m0,0v-3.1m.4,3.1h-.4m1.5-.4v-3.1m-1.1,3.5v-3.1m0,3.1.6-.2.5-.2m-20.8-17.9V247m11.9-5.5-6.3,3-5.6,2.5m-.5-4.4-.3-.2-.2-.1m8.5-3.4-2.4,1.1-5.6,2.6m-.5.3.3.1h.5l.2-.1m0,0,7.1-3.3.9-.4m13.3,24.4h0l-.1-.3v-.1m2-.8-.3.3m0,0-.5.1-.3.2m.8-.3v-3.8m-1.1.4v3.9m-15.9-24.5-3.7,2.2m0,5.8,6.4-3.7m-6.4,3.7v5M77.85,263l-.2.1-.1.1m-.5.4.2-.1.1-.2.2-.1m-24.9-29.3,1.2.6.9.6m0,0v7.2m-.5.3.3-.2.2-.1m0-7.2-.3.1-.2.2m1.3,5.8L57,241l1-.1m0-4.2v4.2m-4.3-11.4V233m-1-4.1v5m0,0-.3.1-.2.2m-.9,22.2-.2-.1v-.1l-.1-.1m0-29.9.1.1v.1l.2.1m1.8,2.6v4.3m7.8,4.8h-.2m4.7,19.8-1-.6m1,.7V258m11.7,1.2v4.4m0,0v-4.4m-4.1,2.1,2.3,1.3,1.8,1m-4.1-6.7v4.4m0,0v-4.4m-4,2,2.3,1.4,1.7,1m-4-6.8v4.4m0,0v-4.4m-4.1,2.1,2.3,1.3,1.8,1m-4.1-6.7v4.4m0,.5v-4.9M54,232.87l-.2.1h-.1m1-6.1h.1m-1.6,6.5h-.1m.6-.4-.3.2-.3.2m3.4,2.5-1.7-1.4-.8-1.6m2.5-1.7v4.7m.5.3-.3-.2-.2-.1M71,255.67h.1l.1.1h.1l.1-.1m0,0,.7-.2.5-.1m5.2-3-.8.4-4.4,2.6m1,.6,5.7-3.3,1-.5m-7.3,4.4.3-.3.3-.3m-.6.9v-.1l-.1-.1.1-.1m0,.3h0m.5,0H73m1.6-.4-.6.3-.5.1m6.8-3.6-1.2.7-4.5,2.5m1.1.7,4.6-2.7m-4.6,2.7-.4.3-.3.3m0,0v.2l.1.1m0,0h0m0,0h.4m0,0,.6-.2.5-.2m3.7-2.1-3.7,2.1m1.1.6,1.9-1m-2.5,1.7.3-.4.3-.3m-.6.9H77V259h.1m0,.2h0m.5.1h-.4l-.1-.1m1.6-.3-.7.2-.4.2m2-.9-.9.5m.4,1.3.4-.4.1-.1m-.5.5h0l-.1.1.1.1h.1m0,0h0m0,0v.1h.3l.1-.1m-1.5,2.9,1.7-.9.5-.3M58,251.67l9.6-5.5,4.1-2.4M58,251.67l2.2,1.3,1.6.9m3.1-1.7-1.7,1-1.4.7m3.1-1.7h0m.4,0h-.4m1.6-.4-.7.3-.5.1m6.4-3.4-.8.5-4.4,2.5m1,.7,5.7-3.3,2.1-1.2m-7.8,4.5-.3.3-.3.3m0,0-.1.1.1.1v.1m0,0h0m0,0h.5m1.1-.4-.6.2-.5.2m6.3-3.4-.7.4-4.5,2.6m1.1.6,5.7-3.3,2.1-1.2m-8.5,5.2.4-.4.3-.3m-.6.9h-.1v-.2m.1.2h0m.4.1h-.3l-.1-.1m1.5-.3-.6.2-.5.2m6.3-3.4-.7.4-4.5,2.6m1.1.6,5.7-3.3,2.1-1.2m-7.8,4.5-.4.4-.3.3m0,0h0v.2H71m0,0h0M62.15,239l.6-.3m-8.8-9.1v3.3m0,0v-3.3m.8,23.9,14.6,8.4,10.9,6.3m-25.5-14.7-.3.1-.2.2m1.3-23.3.9.7m.5.3-.3-.2-.2-.1m21.6,32.1,2.2,1.3m-3.7.7.9-1.1.6-.9m-22.3-36.9-1,.5m2.2,4.6,1.2.5m-1.2,4.2v-4.7m5.1,6.2-2.8-.5-2.3-1m6.5-.1.5.1.3.1m-3.1-6.9-.8,1m-5.3-3.3.9-.9m4.8,3-.6.8m2.5,3.1v.9m0,0-.3.2-.2.1m37.4,36.1v-.1l.2-.2.1-.1m7-4.9.2-.2m-7.2,5.1,2.3-1.6m-4.2,5.4.4-.2m-.4.2-.4.2-.3.1m.7-4v3.7m-1.1-3.4v4m0,0,.2-.2.2-.1m-.8.7.2-.2.1-.1.1-.1m4.7-2.8.1-.1.1-.2.2-.2m6.9-4.8.1-.1m-7,4.9,2.2-1.5m-4.1,4.8.3-.3m-1.9.6-.1-.1v-.2m.1-2.8v3.1m0,0h0m8.6-9.8-1.8,2.2m-1.4.8,2.6-3.3m-.5-1-4,5m.3.2-.3-.2m-3.5,6.1v-3.1m.4,3.1-.1.1h-.1l-.1-.1h-.1m.4,0,.7-.2.5-.1m0-3.2v3.2m-1.2-2.8v3.1m-19.1-13.3-.2-.1v-.2m.7-4.8-.6.4m0,0-.1.2v.3l.2.1m23.9,15.4h0l.1-.2.2-.2m7-4.9h0m-7,4.9,2.2-1.5m-5.7,6.4v-.1l-.1-.3v-.1m1.7-.5.4-.2m5.1-10.8-3.6,4.6m.3.2-.3-.2m5-3.6-1.6,2.1m-1.5.8,2.6-3.3m-6.4,10.4-.4.2-.4.1m.8-4.1v3.8m-1.1-3.4v3.9m-4.5-1.4-1.9,1.1m-1.2-4.2-.8,1-.7.9m9.1,2.6.2-.1.1-.1m-.8.7.2-.2.2-.1.1-.2m-13.8-5.3,1.3-.8,1.1-.6m0-5-1.4.2-1,.1m-.8-.1v6.5m19.3,2.2h0l.2-.3.2-.1m0,0,2.2-1.6m-4.2,4.8.4-.2m-1.9.5h-.1v-.2m.1-2.9V277m0,0h0m8.4-9.6-1.6,2m-1.4.9,2.5-3.2m-.9-.6-3.5,4.5m.3.2-.3-.2m-3.5,6v-3.1m.4,3.2h-.3l-.1-.1m.4.1V274m0,3.1.6-.2.5-.2m0-3.1v3.1m-39.8-42.6v2.2m-1.6-.7v3m0,0,7,4.1,5,2.8m.6.3h0m0,0v-3.9m32.8,32.8-.2.1-.2.3m2.6-2-2.2,1.6m-3.5,4.8h0l-.1-.3v-.1m2-.8-.3.2m5.4-10.8-3.5,4.5m.3.1-.3-.1m3.7-2.1-.4.5m1-2.3.2-.1m-2.6,3.2,1.8-2.3m-5.6,9.4-.5.2-.3.1m.8-.3v-3.7m-1.2.3v4m.4-.3-.2.2-.2.1m-.4.4.2-.2.1-.1.1-.1m-16.9-18.8v-1m22,16.5-.2.2-.1.3m1.3-1.2-1,.7m-1.5,3-.4.3m-20.9-13.8h-.7l-.2-.1m20.2,14.2v-.1h-.1v-.1l.1-.1m0-2.8v3.1m0,0h0m5.2-8.2-1.7,2.1m.4.2-.4-.2m-3.5,6.1v-3.1m0,3.1h.2l.1.1h.1l.1-.1m1.1-.3v-3.2m-1.1,3.5v-3.1m1.1,2.8-.6.2-.5.1m-19.8-18.3v4.2m12-5.6-6.4,3-5.6,2.6m-.4-4.5-.3-.1-.2-.2m8.4-3.3-2.3,1-5.6,2.6m-.5.3.2.1h.5l.2-.1m0,0,7.1-3.2.9-.4m-17.7-9.4-1.4-1.1-.9-1.2m0,0v-3.9m5.5,8.2,1.1.6.5.3m-1.6-.9-.3.1-.2.2M75,246l.3-.2m33.4,36.1v-.1l-.1-.3v-.1m2-.7-.4.2m0,0-.4.2-.3.1m.7-.3v-3.8m-1.1.4v3.9m-15.8-24.5-3.7,2.2m0,5.9,6.4-3.7m-6.4,3.7v5m19.9,11.2-.2.1-.2.1m-.4.5.2-.2.1-.1.1-.2m-31.5-38v4.7m0,0,1.1.6.9.5m4.7,2.9,1.2.7.9.5m0,0v7.2m-.5.3.3-.1.2-.2m0-7.2-.3.2-.2.1m1.3,5.9,1.3-.2,1.1-.2m0-4.1v4.1M80.85,242H81m-3.4,1.4-.9-.7m2.9,1.8-1.1-.6-.9-.5m3.4,1.8-1.4-.7m0,4.7v-4.7m2.8,5.8-1-.3-1.8-.8m5.4,2.2h0m0,0v-3.9m-.7-.5v5.1m0,0-.1.1h-.1m-.3.2.1-.1.2-.1m0,0V247m8.3,9.4h-.2m4.7,19.8-.9-.6m12.7,1.9v4.4m0,0v-4.4m-4.1,2,2.3,1.3,1.8,1.1m-4.1-6.8v4.4m0,0v-4.4m-4.1,2.1,2.3,1.3,1.8,1m-4.1-6.7v4.4m0,0v-4.4m-4,2,2.2,1.3,1.8,1.1m-4-6.8v4.4m0,.5v-4.9m.4,5.9v-.1m-14.8-34.7L81,242m6.3,11.7-1.4-1.1-.9-1.2m0,0v-3.9m8.5,8.5h0m-8.8-4.4.3-.2m2.3,2.3,1.1.6.9.5m-2-5.8v4.7m19.3,22.6h.5m0,0,.6-.2.5-.2m3.6-2.1-3.6,2.1m1.1.7,1.8-1.1m-2.5,1.7.4-.4.3-.2m-.6.9-.1-.1v-.2m.1.3h0m.4,0h-.4m1.5-.4-.6.2-.5.2m2-.9-.9.5m.5,1.3.3-.4.1-.1m-.4.5h-.1v.2h.1m0,0h0m0,0,.1.1h.4m-1.5,2.9,1.7-1,.4-.3M89.55,270l9.5-5.6,4.2-2.3M89.55,270l2.1,1.2,1.7,1m3.1-1.8-1.7,1-1.4.8m3.1-1.8h0m.4,0-.1.1h-.2l-.1-.1m1.5-.3-.6.2-.5.1m6.3-3.3-.7.4-4.5,2.6m1.1.6,5.7-3.3,2.1-1.2m-7.8,4.5-.4.3-.3.3m0,0v.2l.1.1m0,0h0m0,0h.4m1.2-.4-.7.2-.5.2m6.4-3.4-.8.5-4.4,2.5m1,.7,5.7-3.3,2.1-1.2m-8.4,5.1.3-.4.3-.2m-.6.9v-.1l-.1-.1.1-.1m0,.3h0m.5,0h-.5m1.6-.4-.6.2-.5.2m6.3-3.4-.7.4-4.5,2.6m1.1.6,5.7-3.3,2.1-1.2m-7.8,4.5-.4.4-.3.3m0,0h0v.2h.1m0,0h0m0,0,.1.1h.3m0,0,.6-.2.5-.2m5.2-3-.7.4-4.5,2.6m1.1.6,5.7-3.3.9-.5m-7.3,4.5.4-.4.3-.3m-.6.9-.1-.1v-.1m.1.2h0m.4,0-.1.1h-.1l-.1-.1h-.1m1.6-.3-.7.2-.5.1m6.4-3.3-.8.4-4.4,2.6m1,.6,4.6-2.7m-4.6,2.7-.3.3-.3.3m0,0-.1.1v.1h.1v.1m0,0h0m-12.8-19.1.6-.3m-8,14.8,14.5,8.4,10.9,6.3M85.85,272l.3-.2.2-.1m7.1-15.7h-.1l-.2.1m16.5,25.5,2.1,1.2m-3.6.7.8-1.1.7-.8m-20.4-31.4-1.1-.7-.9-.5m-.9-.7.9.7m2,5.8v-4.6m3.9,6-2.1-.5-1.8-.9m3.9,1.4v-4m-3.9-2,1.2.5m4.6,3.6.4.1.4.1m-1.6-3.2v1m0,0-.3.1-.2.2m37.4,36h0l.1-.3.2-.1m7-4.9.2-.2m-7.2,5.1,2.2-1.6m-4.1,5.5.4-.3m-.4.3-.4.1-.4.2m.8-4.1v3.8m-1.1-3.4v3.9m0,0,.2-.2h.1m-.8.6.2-.1.2-.2.1-.1m4.7-2.8v-.1l.2-.2.1-.2m7-4.8.1-.1m-7.1,4.9,2.3-1.5m-4.2,4.8.4-.2m-1.9.5H130v-.2m.1-2.9v3.1m0,0h0m6.8-7.6,1.7-2.2m-.5-.3-2.7,3.3m2.1-4.3-4,5.1m.4.1-.4-.1m-3.4,6v-3.1m.4,3.2h-.3l-.1-.1m.4.1.6-.3.5-.1m0-3.1v3.1m-1.1-2.8V293m-19.2-13.4-.1-.1-.1-.2m.7-4.7-.5.4m0,0-.2.1v.2l.1.1.1.1m23.9,15.5.1-.1.1-.2.2-.2m0,0,2.2-1.5m-5.7,6.4v-.1l-.1-.3v-.1m1.7-.5.3-.2m4.9-7.7,1.7-2.1m-.5-.4-2.6,3.3m1.7-3.9-3.6,4.6m.3.2-.3-.2m-1.9,6.4-.5.2-.3.1m.8-4.1v3.8m-1.2-3.4v4m-4.5-1.4-1.9,1.1m-1.1-4.3-.9,1.1-.7.8m9.1,2.7.2-.2.2-.1m-.8.7.2-.2.1-.1.1-.1m-13.8-5.4,1.4-.8,1.1-.6m0-5-1.4.2-1.1.2m-.8-.1v6.4m19.7,1.8,2.2-1.5m-4.1,4.7.4-.2m-2,.6v-.1l-.1-.1.1-.1m0-2.8v3.1m0,0h0m6.9-7.6,1.6-2.1m-.6-.3-2.5,3.2m1.6-3.7-3.5,4.4m.4.2-.4-.2m-3.5,6.1v-3.1m.5,3.1h-.5m.5,0v-3.1m0,3.1.6-.2.5-.2m0-3.1v3.1m-41.4-41.1v3.1m0,0,7,4,5,2.9m-10.4-11.5v2.2m10.9,9.5h.1m-.1,0v-3.9m32.9,32.8-.2.2-.2.2m2.6-2-2.2,1.6m-3.5,4.8h-.1v-.4m2-.8-.4.3m5.3-8,.4-.5m0-1-1.8,2.4m2.5-3.3-.1.2m-.8-.7-3.5,4.5m.3.2-.3-.2m-2,6.4-.4.1-.3.2m.7-.3V293m-1.1.4v3.9m.4-.2-.2.1-.2.1m-.4.4.2-.1.1-.2.1-.1m-17-18.8v-1m22.1,16.6-.2.1-.2.3m1.4-1.2-1,.8m-1.6,3-.3.2m-20.9-13.8-.2.1h-.3l-.3-.1h-.2m20.2,14h0v.1h.1m0-3.1v3.1m0,0h0m5.2-8.2-1.7,2.2m.3.1-.3-.1m-3.5,6v-3.1m.4,3.2h-.3l-.1-.1m1.6-.3v-3.1m-1.2,3.5v-3.2m0,3.2.7-.3.5-.1m-20.9-17.9v4.1m12-5.5-6.4,2.9-5.6,2.6m-.4-4.5-.3-.1-.3-.2m8.5-3.3-2.4,1.1-5.5,2.5m-.6.3.3.1.3.1.2-.1h.2m0,0,7.1-3.3.9-.4m-17.8-9.4-1.3-1-.9-1.3m0,0v-3.9m5.4,8.2,1.2.6.4.3m-1.6-.9-.2.1-.3.2m-5.3-4.4.4-.2m33.3,36.1V300l-.1-.3v-.1m2.1-.7-.4.2m0,0-.4.2-.4.1m.8-.3v-3.8m-1.1.4v4m-15.8-24.5-3.7,2.1m0,5.9,6.4-3.7m-6.4,3.7v5m19.8,11.2-.2.1-.1.2m-.5.4.2-.2.2-.1.1-.1m-31.6-33.4,1.2.6.9.6m-2.1-5.9v4.7m8.8,5.2v7.2m-.5.3.3-.1.2-.2m-2-8.4,1.2.7.8.5m0,0-.2.2-.3.1m1.3,5.9,1.4-.2,1.1-.2m0-4.1v4.1m-8.7-17,.1-.1m-1.4,2.6-1.2-.7-.9-.5m-.9-.7.9.7m2.1,5.9v-4.7m2.7,5.7-.9-.2-1.8-.8m0-4.7,1.2.5m4.2,6.4h0m0,0v-3.9m-.7-.3v4.8m0,0-.1.1h-.2m-.2.2.1-.1.1-.1m0,0v-5.2m8.4,9.5-.2-.1m4.7,19.8-1-.5m1,.6v-.1m11.7,1.3v4.4m0,0v-4.4m-4,2,2.3,1.4,1.7,1m-4-6.8v4.4m0,0v-4.4m-4.1,2.1,2.3,1.3,1.8,1m-4.1-6.7v4.4m0,0V291m-4.1,2,2.3,1.4,1.8,1m-4.1-6.8V293m0,.6v-5m-14.3-28.9-1.1.5m6.3,11.7-1.4-1-.9-1.2m0,0v-4m-.3,4.1.3-.1m2.3-2.5v4.7m0,0,1.1.7.9.5m13.2,19.1h.5m0,0,.6-.2.5-.2m5.2-3-.7.4-4.5,2.6m1.1.6,5.7-3.3.9-.5m-7.3,4.5.4-.4.3-.3m-.6.9h-.1v-.2m.1.2h0m.4.1h-.3l-.1-.1m1.5-.3-.6.2-.5.2m6.3-3.4-.7.4-4.5,2.6m1.1.6,4.6-2.7m-4.6,2.7-.4.4-.2.3m0,0h-.1v.1l.1.1m0,0h0m0,0h.1l.1.1h.1l.1-.1m0,0,.7-.2.5-.1m3.6-2.1-3.6,2.1m1,.6,1.9-1.1m-2.5,1.7.3-.3.3-.3m-.6.9v-.1l-.1-.1h.1v-.1m0,.3h0m.5,0h-.5m1.6-.4-.6.3-.5.1m2-.9-.9.5m.4,1.3.4-.4.1-.1m-.5.5v.2l.1.1m0,0h0m0,0h.4m-1.4,2.9,1.7-1,.4-.2m-22.2-10.4,9.5-5.5,4.2-2.4m-13.7,7.9,2.1,1.2,1.7,1m3-1.8-1.7,1-1.3.8m3-1.8h0m.5.1h-.4l-.1-.1m1.6-.3-.6.2-.5.2m6.3-3.4-.7.4-4.5,2.6m1,.6,5.8-3.3,2-1.2m-7.8,4.5-.3.4-.3.2m0,0v.2l.1.1m0,0h0m0,0h.1l.1.1h.1l.1-.1m1.1-.3-.6.2-.5.1m6.3-3.3-.7.4-4.5,2.6m1.1.6,5.7-3.3,2.1-1.2m-8.5,5.1.4-.3.3-.3m-.6.9-.1-.1v-.2m.1.3h0m.4,0h-.4m1.6-.4-.7.2-.5.2m6.4-3.4-.8.5-4.4,2.5m1,.7,5.7-3.3,2.1-1.2m-7.8,4.5-.3.3-.3.3m0,0-.1.1.1.1v.1m0,0h0m-8.7-16.8.5-.3m-8,14.8,14.6,8.4,10.9,6.3m-25.5-14.7-.2.2-.3.1m7.7-16.1-.2.1-.1.1m16.5,25.5,2.1,1.2m-3.7.7.9-1.1.7-.8m-22.4-32.6-.9-.6m2.9,1.8-1.2-.7-.8-.5m5.9,7.2v-3.9m-2.6-1.5-1.3-.6m0,4.7v-4.7m3.9,6-2.1-.5-1.8-.8m5.7-.6.5.1.3.1m-1.6-3.2v1m0,0-.2.2-.3.1m37.4,36h.1l.1-.2.2-.2m6.9-4.9.3-.1m-7.2,5,2.2-1.5m-4.2,5.4.4-.3m-.4.3-.4.2-.3.1m.7-4.1v3.8m-1.1-3.4v3.9m0,0,.2-.1.2-.1m-.8.7.2-.2.1-.2.1-.1m4.8-2.8h0l.1-.3.2-.1m7-4.9.1-.1m-7.1,5,2.2-1.6m-4.1,4.8.4-.2m-2,.5h0l-.1-.1v-.1h.1m0-2.9v3.1m0,0h0m7.5-11.1-4,5.1m.3.2-.3-.2m5.1-3.8-1.7,2.2m-1.5.9,2.7-3.4m-8.1,10.1V308m.5,3.2h-.4l-.1-.1m.5.1.6-.2.5-.2m0-3.1v3.1m-1.1-2.7v3.1m-19.2-13.3-.2-.2v-.1m.7-4.8-.6.4m0,0-.1.1v.2l.1.1.1.1m23.9,15.5v-.1l.2-.2.2-.2m6.9-4.8.1-.1m-7,4.9,2.2-1.5m-5.7,6.4-.1-.1v-.3m1.6-.6.4-.2m6.6-9.8-1.7,2.1m-1.5.8,2.6-3.2m-.8-.6-3.7,4.5m.4.2-.4-.2m-1.9,6.4-.4.2-.3.1m.7-4v3.7m-1.1-3.4v4m-4.5-1.4-1.9,1.1m-1.2-4.3-.8,1.1-.7.8m9.1,2.7.2-.2.2-.1m-.8.7.2-.2.1-.1.1-.1m-13.8-5.4,1.4-.8,1-.6m0-5-1.3.2-1.1.2m-.8-.1v6.4m19.3,2.3.1-.1.1-.2.2-.2m0,0,2.2-1.5m-4.1,4.8.3-.3m-1.9.6-.1-.1v-.2m.1-2.8v3.1m0,0h0m7-10.5-3.5,4.4m.3.2-.3-.2m5-3.6-1.7,2.1m-1.4.8,2.5-3.2m-7.9,10v-3.1m.4,3.1H166l-.1.1-.1-.1h-.1m.4,0v-3.1m0,3.1.7-.2.5-.1m0-3.2v3.2m-39.9-42.7v2.2m-1.5-.6v3m0,0,6.9,4,5,2.9m33.4,29.1-.2.2-.1.2m2.5-1.9-2.2,1.5m-3.5,4.9v-.1l-.1-.3v-.1m2.1-.8-.4.3m5.5-10.9-3.6,4.5m.4.2-.4-.2m3.8-2.1-.4.5m1-2.2.1-.2m-2.6,3.3,1.9-2.4m-5.7,9.5-.4.2-.4.1m.8-.3v-3.8m-1.1.4v3.9m.3-.2-.2.1-.1.1m-.5.5.2-.2.2-.2.1-.1m-17-18.8v-.9m22.1,16.5-.2.2-.2.2m1.4-1.1-1,.7m-1.6,3-.4.2m-20.8-13.8-.3.1h-.3l-.2-.1h-.2m20.3,14.1h-.1v-.2m.1-2.9v3.1m0,0h0m5.2-8.2-1.7,2.2m.3.2-.3-.2m-3.5,6v-3.1m0,3.1.1.1h.3m1.1-.4v-3.1m-1.1,3.5v-3.1m1.1,2.7-.6.2-.5.2m-19.7-18.3v4.1m11.9-5.5-6.4,2.9-5.5,2.6m-.5-4.4-.3-.2-.2-.1m8.5-3.4-2.4,1.1-5.6,2.6m-.5.3h.2l.3.1h.3l.2-.1m0,0,7.1-3.3.9-.4m-20.1-15.6v4m2.3,2.2-1.4-1-.9-1.2m5.5,4.2,1.2.7.4.2m-1.6-.9-.3.2-.2.1m-5.3-4.3.3-.2m33.4,36v-.1l-.1-.2v-.1m2-.8-.3.2m0,0-.5.2-.3.1m.8-.3v-3.7m-1.2.3v4m-15.8-24.5-3.7,2.1m0,5.9,6.4-3.7m-6.4,3.7v5m19.9,11.2-.2.2-.2.1m-.4.4.2-.2.1-.1.1-.1m-31.5-38.1v4.7m0,0,1.1.7.9.5m4.8,2.9,1.1.6.9.5m0,0V297m-.5.3.3-.2.2-.1m0-7.3-.3.2-.2.1m1.3,5.9,1.4-.2,1-.2m0-4.1v4.1m-8.6-17h0m-4.3.6.9.7m2,1.2-1.1-.7-.9-.5m3.4,1.8-1.4-.6m0,4.7V281m2.8,5.7-1-.2-1.8-.8m5.4,2.2h0m0,0v-4m-.6-.2v4.9m0,0h-.2l-.1.1m-.3.1.2-.1h.1m0,0v-5.3m8.4,9.5h-.2m16.4,21v4.4m0,0v-4.4m-4.1,2.1,2.3,1.3,1.8,1m-4.1-6.7V316m0,0v-4.5m-4,2.1,2.2,1.3,1.8,1.1m-4-6.8v4.4m0,0v-4.4m-4.1,2.1,2.3,1.3,1.8,1m-4.1-6.8v4.5m0,.5v-5m.5,5.9-1-.6m1,.7v-.1m-14.8-34.8-1.2.6m6.3,11.6-1.4-1-.9-1.2m0,0V284m8.5,8.4h0m-8.8-4.3.3-.2m-93.6-30h-.1l-.1-.1v-.2M175,327.17v.3l.2.1h.2m-25-37.5,1.2.7.8.5m-2-5.9v4.7m19.4,22.6.1.1h.3m0,0,.6-.2.5-.2m3.7-2.1-3.7,2.1m1.1.6,1.8-1.1m-2.4,1.8.3-.4.3-.3m-.6.9-.1-.1v-.1h.1m0,.2h0m.4,0-.1.1H172l-.1-.1h-.1m1.6-.3-.7.2-.5.1m2-.8-.8.5m.4,1.2.4-.3v-.1m-.4.4-.1.1v.1h.1v.1m0,0h.1m0,0h.4m-1.5,2.9,1.7-1,.5-.2m-22.3-10.4,9.6-5.5,4.1-2.4m-13.7,7.9,2.2,1.2,1.6,1m3.1-1.8-1.7,1-1.4.8m3.1-1.8h0m.4.1h-.3l-.1-.1m1.5-.3-.6.2-.5.2m6.4-3.4-.8.4-4.5,2.6m1.1.6,5.7-3.3,2.1-1.2m-7.8,4.5-.3.4-.3.3m0,0h-.1v.1l.1.1m0,0h0m0,0,.1.1h.4m1.1-.4-.6.2-.5.2m6.3-3.4-.7.4-4.5,2.6m1.1.6L170,305l2.1-1.2m-8.5,5.1.4-.3.3-.3m-.6.9-.1-.1v-.2m.1.3h0m.4,0-.1.1h-.2l-.1-.1m1.5-.3-.6.2-.5.1m6.3-3.3-.7.4-4.5,2.6m1.1.6,5.7-3.3,2.1-1.2m-7.8,4.5-.4.3-.3.3m0,0v.2l.1.1m0,0h0m0,0h.4m0,0,.7-.2.5-.2m5.2-3-.8.5-4.4,2.5m1,.7,5.7-3.3,1-.6m-7.3,4.5.3-.4.3-.2m-.6.8h0l-.1-.1.1-.1m0,.3h0v-.1m.5.1h-.5m1.6-.4-.6.2-.5.2m6.3-3.4-.7.4-4.5,2.6m1.1.6,4.6-2.6m-4.6,2.6-.4.4-.3.3m0,0h0v.2h.1m0,0h0m-12.9-19,.6-.4m-8,14.8,14.6,8.4,10.9,6.3m-25.5-14.7-.3.2-.2.1m7.6-16-.1.1-.2.1m16.5,25.4,2.2,1.3m-3.7.6.9-1,.6-.9m-20.4-26.7v-4.7m3.9,6-2.1-.5-1.8-.8m3.9,1.3v-3.9m-3.9-2.1-1.1-.7-.9-.5m2,1.2,1.3.5m-4.2-2.4.9.7m7.8,5.3.5.2.3.1m-1.6-3.2v.9m0,0-.3.2-.2.1m17.6,27.1-.2-.2v-.1m5.1,2.2h0m-4.4-7-.6.4m0,0-.1.2v.3l.2.1m-17.1-21.7v3m0,0,7,4,5,2.9M159,288.77V291m11.3,9.3h0m9.1,17.7,1.1-.8m-1.1-6.1h.5l.6-.1m0,0-.6.3-.5.3m-9.1-18h0m10.2,17.5-.6.3-.5.2m0,0,1.1-.2m.2,5.7-1.3.4m-9.1-17.2h0m5.2,4.4,1.1.7.5.2m-1.6-.9-.3.2-.2.1m-2.2-2-1.6-1.2-.9-1.5m0-3.6v3.6m-.6.4.3-.2.3-.2m2.5,2.7.5.4.5.2m-1-5.3V303m-1.4-9.9-1.1.5m2.5,4.7.5.4.5.2m-2-1.3,1,.7m1,5.3v-4.7m3.4,5.9-1.2-.3-2.2-.9m0-4.7,1.2.6m-113.1-61v-4.3m-2.1,3,2.1,1.3m-8.7-5.1,1.5.9m5.6,22.3v-.8m-4.7-2.7,2.6,1.6,2.1,1.1m-4.7-8.7v6m-.8-12.3.8.4m0-5.9v5.9m5.1-3-2.9-1.6-.1-.1m3,1.7v-.1m0,0,.8.5.7.4m0,0v-3.7m1.3.8-.7-.4-.6-.4m1.3-1.7v2.5m8.9,2.6-4.5-2.6-4.4-2.5m9.9,8.2v-1m1.3,1.7-.7-.4-.6-.3m1.3.7v3.7m0,0,.9.5.7.4m0,0h0v.1m.6.4-.6-.4m5,2.9-.8-.5m-3.9,15.7,2.6,1.5,1.1.6m-3.7-2.1v.8m15.3,8.8v-.8m-4.7-2.7,2.6,1.5,2.1,1.2m-4.7-8.8v6.1m-.8-12.4.8.5m0-6v6m5-3.1-2-1.2m2,1.2h0v-.1m0,0,.9.5.7.4m0,0v-3.6m1.3.7-.7-.4-.6-.3m1.3-1.8v2.5m8.8,2.7-4.5-2.6-4.3-2.6M105,260v-1m1.3,1.8-.8-.5-.5-.3m1.3.8v3.6m0,0,.8.5.7.4m0,0v.1m.7.4-.7-.4m5.1,2.9-.9-.5m.9.8v-.3m-4.7,15.2,2.6,1.5,1,.6m-3.6-2.1v.8m15.2,8.8v-.8m-4.7-2.7,2.7,1.5,2,1.2m-4.7-8.7v6m-.8-12.4.8.5m0-6v6m5.1-3.1-2.1-1.1m2.1,1.1h0v-.1m0,0,.9.5.7.4m0,0v-3.6m1.2.7-.7-.4-.5-.3m1.2-1.7v2.4m8.9,2.7-4.5-2.6-4.4-2.5m9.9,8.1v-.9m1.3,1.7-.7-.4-.6-.4m1.3.8v3.6m0,0,.9.5.7.4m0,0v.1m.6.4-.6-.4m5,3-.8-.5m.8.7v-.2m-4.7,15.1,2.7,1.5,1,.6m-3.7-2.1v.8m15.3,8.8v-.8m-4.7-2.7,2.6,1.5,2.1,1.2m-4.7-8.7v6m-.8-12.4.8.5m0-6v6m5.1-3-2.1-1.2m2.1,1.2v-.1m0,0,.8.5.7.4m0,0V290m1.3.7-.7-.4-.6-.3m1.3-1.7v2.4m8.9,2.7-4.5-2.6-4.4-2.5m9.9,8.2v-1m1.3,1.7-.7-.4-.6-.3m1.3.7v3.7m0,0,.9.5.6.4m0,0h0v.1m1.3.7-1.3-.7m5.1,2.9-1.5-.9M176,305v-.2m-4.7,15.1,2.6,1.5,1.1.6m-3.7-2.1v.8m5.3-16,.5.2m-7.4-4.2,1.2.7m-1.2-5v4.3m-31.6-18.2.8.4m-.8-4.7v4.3m-13-7.6v-4.3m-1.4,3.5,1.4.8m-8.8-5.1.7.5m-.7-4.7v4.2m40.3,23.3v-4.2m-1.4,3.4,1.4.8m-8.8-5,.8.4m-.8-4.7v4.3m-54.3-31.4v-4.3m-1.4,3.5,1.4.8m-8.8-5.1.8.5m-.8-4.8v4.3m21.8,12.6.8.5m-.8-4.8v4.3M75,246l.8.5m-.8-4.8V246m95.6,47.8,1-.9m5.2,3.2-.8,1m-.3-.3.7-.9m4.1,32.9-1.5.8m.4-19.2,1.1-.5m0,8-1.1.7m0-1.1v1.1m0-1.1v-5.9m0-1.2v1.2m-4,15.9-.3-.2-.1-.1m.4.9v-.6m2.6,2.1-1.5-.9-1.1-.6m2.6-28.4h0m-10.9-6.3v1.5m10,5.7-5.6-3.2-4.4-2.5m10,11.3v-5.6M175,305l1.1.7,1,.5m-2.1,6.1V305m-.5,7,.2.1.3.2m-.5,3.8V312m.5,4.4-.3-.2-.2-.1m.5,7.3v-7m-26-8,14.5,8.4,11.5,6.6m-26-22v7m.5-6.7-.3-.2-.2-.1m.5-3.8v4.1m-.5-4.4.3.1.2.2M149,290v7.3m-2.1-8.5,1.2.7.9.5m-2.1-6.8v5.6m10,.2-5.6-3.2-4.4-2.6m10,5.8v-1.5m-21.4-12.4v1.6m10,5.7-5.6-3.2-4.4-2.5m10,11.3v-5.6m-2.1,4.4,1.2.7.9.5m-2.1,6v-7.2m-.5,6.9.3.2.2.1m-.5,3.9v-4.2m.5,4.4-.3-.1-.2-.1m.5,7.3v-7.1m-26-7.9,14.6,8.4,11.4,6.6m-26-22v7m.5-6.7-.2-.2-.3-.1m.5-3.9v4.2m-.5-4.5.3.2.2.1m-.5-7.5V279m-2-8.4,1.1.7.9.5m-2-6.8v5.6m9.9.2-5.6-3.2-4.3-2.6m9.9,5.8v-1.5m-21.4-12.4v1.5m10,5.8-5.6-3.2-4.4-2.6m10,11.4v-5.6m-2.1,4.4,1.2.7.9.5m-2.1,6v-7.2m-.5,6.9.3.2.2.1m-.5,3.8v-4.1m.5,4.4-.2-.1-.3-.2m.5,7.4v-7.1M85.85,272l14.5,8.4,11.4,6.6m-25.9-22.1V272m.5-6.8-.3-.1-.2-.2m.5-3.8v4.1m-.5-4.4.3.2.2.1m-.5-7.5v7.2m-2.1-8.4,1.2.7.9.5m-2.1-6.8v5.6m10,.2-5.6-3.3-4.4-2.5m10,5.8V251m-21.4-12.3v1.5m10,5.8-5.6-3.2-4.4-2.6m10,11.4V246m-2.1,4.4,1.1.6,1,.6m-2.1,6v-7.2m-.5,6.9.2.2.3.1m-.5,3.8v-4.1m.5,4.4-.3-.2-.2-.1m.5,7.4v-7.1m-26-7.9,14.5,8.4,11.5,6.6m-26-22.1v7.1m.5-6.8-.3-.2-.2-.1m.5-3.8V247m-.5-4.4.3.2.2.1m-.5-7.5v7.2m-2.1-8.4,1.2.6.9.6m-2.1-6.8v5.6m10,.1-5.6-3.2-4.4-2.5m10,4.2v1.5m-10.9-7.8h0m0,29.9v-29.9m2.6,31.4-1.5-.8-1.1-.7m2.6,1v.5m.4-.3-.2-.1-.2-.1M175,327.17l-67.6-39-53.1-30.6M178,299.67v29.9m1,0-.2.1h-.6l-.2-.1m1-29.9v29.9m-.5-30.2.5-.3.4-.2m-1.4.8h0m2.5-.8-1.5.8m-126.3-75.2-1.4.8m100.3,56.3-1,.7m0,0-4-2.3-3.1-1.8m0,0,1.2-.6m25,15.7,1.2-.6m6.9,4-.9.7m0,0-.7-.4-.5-.2m0,0-2.8-1.7-2.3-1.3m0,0-.5-.3-.4-.2m-49.6-29.9-1,.7m0,0-4-2.4-3.2-1.8m0,0,1.3-.5m-24.7-14.3-1,.7m0,0-4-2.3-3.1-1.8m0,0,1.2-.6m-26.5-14-.5-.3-.4-.2m0,0,1.2-.6m6.9,4-1,.7m0,0-.6-.4-.5-.3m0,0-2.9-1.6-2.2-1.3m123.9,72,1.5-.8m0,.5-2,1.2m-53.2-30.7-11.9-7-9.5-5.4m31.6,18.2-5.7-3.3-4.5-2.5m31.6,18.2-12-6.9-9.4-5.5m31.6,18.3-5.7-3.3-4.5-2.6m21.1,12.2-6.1-3.6-4.8-2.7m11.4,6.6-.3-.2-.2-.1m1-.6-.2.2-.2.2v.3l-.1.2m-127.2-74.7,71.5,41.3,56.2,32.5m-127.7-73.8-.3.2-.1.3-.1.2-.1.2m.6.3-.3-.2-.3-.1m11.5,6.6-6.1-3.5-4.8-2.8m21.1,12.2-5.7-3.3-4.5-2.6M93.75,251l-12-6.9-9.4-5.4m31.5,18.2-5.7-3.3-4.4-2.6m56.8,30-.9,1m-5.3-3.3.8-.8m4.3,3.7-2.8-1.6-2.3-1.3m5.8,2.1-.7.8m-62.1-37.1-.8,1m-5.3-3.3.8-.8m4.3,3.8-2.9-1.7-2.2-1.3m5.8,2.1-.7.9m32.6,17.5-.8,1.1m-5.3-3.3.8-.8m4.2,3.7-2.8-1.6-2.2-1.3m5.7,2-.7.9m-41.3,1.9-12.9-7.5m44.5,25.7L95.25,276m44.4,25.7-12.9-7.4m44.5,25.6-12.9-7.4m228.8-156.4-1.9-3.2m0,0-.1-.3-.2-.2-.3-.3-.2-.2-.2-.2-.3-.2-.3-.1-.3-.2m3.6.7-1.7,1m1.5,5.7.2-.2.2-.2.2-.3.1-.3v-.8l-.1-.3-.2-.4m0,0,1.7-1m-37.4,96.7-.2-.1-.2-.2M372.15,147l-.3-.1-.3-.1h-.9l-.2.1-.3.1-.2.1m13.4,4.1-11.2-4.2m11.2,4.2,1.7-.9m-11.2-4.3-1.7,1m-2.2.1-30.5,17.5m30.5-17.5,1.7-1m-34.6,85.6,14,19.8m0,0,2.4,1.4m-30.7-91.6.1-.6.2-.6.2-.5.3-.5.4-.5.3-.4.5-.4.4-.3m0,0,1.7-1M316.75,187l.4-.4.5-.3.3-.4.4-.5.3-.5.2-.5.2-.6.1-.6m0,0,3.6-21.9m1.7-1-1.7,1m-3.6,21.9,1.7-1m-52,42.2-1.8-3.2m0,0-.2-.3-.2-.3-.2-.2-.3-.2-.2-.2-.3-.2-.2-.2-.3-.1m3.6.7-1.7,1m1.4,5.7.3-.2.2-.2.1-.3.1-.4v-.7l-.1-.4-.2-.3m0,0,1.7-1m-16.7-8.2-.3-.1h-.3l-.3-.1h-.3l-.2.1h-.3l-.3.1-.2.1m13.5,4.2-11.3-4.3m11.3,4.3,1.7-1m-11.3-4.3-1.7,1M218,327.87h0l-.6-.5-.5-.7-.3-.9-.1-1.1m35.2-109.4-30.4,17.6m30.4-17.6,1.7-.9m-48.9,15.1.1-.6.2-.5.3-.6.3-.5.3-.4.4-.4.4-.4.5-.3m0,0,1.7-1m7.8,60v39.9m0,0,2.5,1.4m134.5-73.2-14.2-20.2m14.2,20.2.2.2.2.1.2.1.2.1h.2l.3-.1.2-.1.3-.1m0,0,49.3-28.5m12.8-15.5v-37.5M219,286.17v39.9m0,0v1.1l.3.9.5.7.6.5.7.3h.9l.9-.2,1-.5m19.7-11.3,37.5-21.7m-57.2,33,1.7-.9m55.5-32.1.2-.1.3-.3.2-.2.3-.3.2-.3.2-.3.2-.3.1-.3m14.2-36.7-14.2,36.7m18.5-42-.7.5-.6.5-.6.6-.6.6-.5.7-.5.8-.4.8-.4.8m38.1-24.7-33.8,19.4m38-19.1-.4-.4-.4-.3-.5-.2-.5-.1h-.6l-.6.1-.6.2-.6.4m82.3-60.8L219,286.17m197.3-118.4.2.5.2.5.2.5.2.4.1.5.1.5.1.5v.4m-200.9,113.2v-.5l-.1-.2v-.2l-.1-.2-.1-.2-.1-.2m2.9,2.9-2.5-1.4m2.5,1.4-.1-.5v-.4l-.1-.5-.1-.5-.2-.5-.2-.5-.2-.5-.3-.4m-16.1-24.1-.3-.6-.3-.6-.2-.6-.2-.7-.1-.6v-1.3l.1-.6m0,0,3.8-23.8m1.7-.9-1.7.9m-3.8,23.8,1.7-1m-.7,6,14.4,25m-12.7-25.9-1.7.9m14.4,25,1.7-.9m35.6-68-32.1,18.5m32.1-18.5.2-.2.3-.1h1.4l.3.1m11.3,4.3-11.3-4.3m11.3,4.3.3.1.2.2.3.2.2.2.3.2.2.2.2.3.2.3m1.8,3.2-1.8-3.2m1.8,3.2.2.3.1.4v.7l-.1.4-.1.3-.2.2-.3.2m-47.3,27.3,47.3-27.3m-47.3,27.3-.3.2H222l-.4-.1-.3-.2-.3-.2-.3-.3-.2-.3m-1.8-3.2,1.8,3.2m-1.8-3.2-.2-.3-.1-.3-.1-.3-.1-.3v-.3l-.1-.3v-.4l.1-.3m1.9-11.9-1.9,11.9m1.9-11.9.1-.3.1-.2.1-.3.1-.3.2-.2.2-.2.2-.2.2-.1m150.4-86.8-32.1,18.5m32.1-18.5.2-.1.3-.1.2-.1h.9l.3.1.3.1m11.2,4.3-11.2-4.3m11.2,4.3.3.1.3.1.3.2.2.2.2.2.3.3.2.2.1.3m1.9,3.2-1.9-3.2m1.9,3.2.2.4.1.3v.8l-.1.3-.2.3-.2.3-.2.2M341.15,185l47.3-27.3M341.15,185l-.3.1h-.7l-.3-.1-.3-.1-.3-.2-.3-.3-.2-.3m-1.9-3.2,1.9,3.2m-1.9-3.2-.1-.3-.2-.3-.1-.4v-.3l-.1-.3v-.9m2-11.9-2,11.9m2-11.9v-.3l.1-.3.1-.3.2-.2.1-.3.2-.2.2-.1.3-.2m76.7,3.2-14.5-25m0,0-.3-.6-.5-.5-.4-.5-.5-.5-.5-.4-.5-.4-.6-.3-.6-.2m0,0-22.4-8.5m0,0-.6-.2-.6-.2h-1.8l-.5.2-.5.2-.5.2m0,0-44.1,25.4m0,0-.4.3-.5.4-.3.4-.4.5-.3.5-.2.5-.2.6-.1.6m-3.6,21.9,3.6-21.9m-3.6,21.9-.1.6-.2.6-.2.5-.3.5-.4.5-.3.4-.5.4-.4.3m-36.1,20.8,36.1-20.8m-36.1,20.8-.5.2-.5.2-.5.1-.6.1h-.6l-.6-.1-.6-.1-.5-.2m-20.8-7.9L278,207m-20.8-7.9-.6-.2-.6-.1h-1.7l-.6.1-.5.2-.5.3m0,0-44,25.4m0,0-.5.3-.4.4-.4.4-.3.4-.3.5-.3.6-.2.6-.1.6m0,0-3.8,23.7m0,0-.1.6v1.3l.1.6.2.7.2.6.3.7.3.6m0,0,14.4,25m198.5-114.6-198.5,114.6m2.9-245.3.1-.1m-3.9,2.3,3.8-2.2m1.7,2.9-1.7-2.9m-6.3,3.6.5-.2.4-.3.4-.2.3-.2.3-.2.2-.1.2-.1.2-.1m0,0,1.7,2.9m-78,41.1.5-.3.6-.3.5-.3.6-.3.6-.4.5-.3.6-.3.6-.4m25.3-14.6,44-25.4m1.7,3-1.7-3m-48.5,28,.6-.3.5-.3.6-.4.6-.3.6-.3.5-.4.6-.3.5-.3m0,0,1.7,3m-6.2-.4-20.8,12m0,0,1.7,3m20.8-12-1.7-3m-25.3,14.6-36,20.8m37.7-17.8-1.7-3m-38.4,22.2.1-.1.2-.1.2-.1.3-.2.3-.2.4-.2.4-.2.5-.3m0,0,1.7,2.9m-99.2,99.2h0l-.6-.5-.4-.7-.3-1-.1-1m96.5-97.5-3.6,2.1m5.3.9-1.7-3m-6.1,3.5.5-.3.4-.2.4-.2.4-.2.2-.2.3-.1.2-.2h.1m0,0,1.7,2.9m106.2-60.6v17.3M8.05,204.37l.1,1,.3.9.4.8.6.5.8.2.8.1.9-.2.1-.1M5.65,203v-39.9m0,39.9,2.4,1.4m0,0v-39.9m0,0,198.4-114.6m0,0v-.2l.1-.1v-.3l.1-.1.1-.1.1-.1.1-.1M8.45,163.47l-.1.1-.1.1v.1l-.1.1v.1l-.1.1v.4m-1.3-3.9-.2.1-.3.3-.2.2-.1.3-.1.4-.1.3-.1.4v.5m0,0,2.4,1.4m-1.3-3.9,14.5-8.4m-12.8,11.3-1.7-2.9m14.5-8.4.3-.2.4-.2.5-.3.5-.3.5-.3.5-.3.6-.3.5-.3m-2.1,5.2-1.7-3m30.8-17.8,44-25.4m1.7,2.9-1.7-2.9m-48.5,28,.6-.3.6-.4.6-.3.6-.4.5-.3.6-.3.5-.3.5-.3m0,0,1.7,3M25.05,150l22.5-13m-22.5,13,1.7,2.9m22.5-13-1.7-2.9m154.3-85.1-47.3,27.3m0,0-.3.1-.2.2h-.2v.1h0l.1-.1.1-.1m0,0,1.9-1m0,0,.2-.1.2-.2.2-.1.2-.1.3-.2.2-.1.3-.2.3-.1m0,0,11.3-6.5m0,0,.3-.2.3-.2.2-.1.3-.2.3-.2.3-.1.2-.2.3-.1m0,0L203.45,51m0,0,.2-.2.2-.1.2-.1.2-.1.1-.1h.1l.1-.1h.1m0,0,1.9-1.1m0,0v0h-.1l-.1.1h-.1l-.2.1m0,0-1.8,1.1m0,0-.3.1-.2.2-.3.2-.4.1-.3.2-.3.2-.3.2-.3.2m-118.3,68.3-47.3,27.3m0,0-.3.1-.2.1-.1.1-.1.1.1-.1.2-.1m0,0,1.8-1.1m0,0,.2-.1.2-.1.2-.1.3-.1.2-.2.3-.1.3-.2.2-.2m0,0,11.3-6.5m0,0,.3-.1.3-.2.3-.2.3-.1.2-.2.3-.2.3-.1.2-.1m0,0,32.1-18.6m0,0,.2-.1.2-.1.2-.1.2-.1.1-.1.2-.1.1-.1m0,0,1.9-1.1m0,0h0l-.1.1h-.1l-.1.1-.2.1m0,0-1.8,1.1m0,0-.2.1-.3.2-.3.1-.3.2-.4.2-.3.2-.3.2-.3.2m-34.3,19.7-22.5,13m0,0-.5.4-.6.3-.5.3-.5.3-.5.3-.5.2-.4.3-.3.2m-14.5,8.3,14.5-8.3M207,48.87,8.45,163.47m212.9-122.9L207,48.87m14.4-8.3.3-.2.3-.1.2-.1.1-.1.1-.1h0m0,0-3.8,2.2m0,0-.2.1-.2.1-.2.2-.3.1-.3.2-.4.3-.4.2-.5.3m-44,25.4,44-25.4m-44,25.4-.5.3-.6.3-.5.3-.6.3-.6.4-.6.3-.5.3-.6.4m0,0-20.8,12m0,0-.6.3-.6.3-.5.4-.6.3-.6.3-.5.4-.6.3-.5.3m0,0-36,20.7m0,0-.5.3-.4.3-.4.2-.3.2-.3.1-.2.2-.2.1-.1.1m0,0-3.6,2m0,0-.1.1-.2.1-.3.1-.2.2-.4.2-.4.2-.4.3-.5.2m-44,25.5,44-25.5m-44,25.5-.5.2-.5.3-.6.4-.5.3-.6.3-.6.4-.6.3-.6.3M3.65,257.57v.5l.1.4v.5l.2.5.1.5.2.5.3.5.2.4m1.3-2.4v.5l.1.2.1.2v.2l.1.2.1.2M22.35,288l.1.1.1.2.1.2.2.1.1.1.1.2.2.1.1.1m-2.7-.2.3.5.3.4.3.4.3.4.4.4.4.3.4.3.3.2m-1-3.8-1.7.9m-15.9-27.5,1.7-.9m14.2,28.4-15.9-27.5M22.35,288l-15.9-27.5m3-53-.9.5m-4.9,49.6v-41.1M6.05,259l-2.4-1.4m0-41.1.1-1.1.3-1.2.4-1.3.6-1.2.8-1.1.8-1.1.9-.8,1-.7m-2.5,9.9-2.4-1.4m4.9-8.5,2.4,1.4m0,0,1.1-.6m-1.1.6-1,.7-.9.8-.8,1.1-.8,1.1-.6,1.2-.4,1.2-.3,1.3-.1,1.1m0,41.1v-41.1m6,1.8-.1-.3-.2-1.3.2-1.5.1-.4m342.7,40,52.3-30.1m-69.8,58.2.2-.3.1-.4.2-.3.1-.4.1-.3m14.8-25.7h.2l.6-.1.6-.3.6-.3m0,0,2.4,1.4M322.25,283l15,1.3m0,0,2.4,1.4m-17.6-1.9.2-.8m1.7,8.5-.1-.1-1-.9-.8-1.5-.1-.5m.3-5.5,2.4,1.4m6.5-11.8,1.4-.3,1.4.2.8.3m-10.5,7.8,1.5.9m-2,13.2,1.5.1,1.8-.3,1.8-.7,1.1-.7m1-.5,2.2,1.3m-14.4-11.2,1.6.1m0,0,2.4,1.4m16.4-7-.1-2.1-.4-2-.8-1.5-.5-.6m2,9,1.9,1.1m-26.2,4.8.5-.7m3-2.1,1.6.9m-1.3-5.2v-2.4m.2,3.5,2.2,1.2m-18.9,15.8,1.2-1.5m21.9-36.9,1.6.9m7.5-23.9.3-.2h.3l.2-.1h.2l.3.1h.2M314,288.67l1.6.9m.3,1,.1-.8-.3-2.1-.6-1.8m-12.9,22.4.2-.1,1.8-.4,2-.9.5-.3m8.4-20.7,2.4,1.4m-17.7,9.5,2.6.1m0,0,2.4,1.4m22.8-37.7-.1-1.7-.3-1.9-.1-.4m-8,19.5,1.6-1.4m-1.7,1.7,2.3,1.2m-13.4,8.4,1.5-.2,1.5.2.6.3m-10.7,8.1,1.6.9m16.7-21.5,2.2,1.3m-6.9,9.4,2,1.2m-293,6.1v-2.7m177.8,105.4L23.35,291.77m177.8,99.9L23.35,289.07m177.8,102.6.1.1h.2l.1.1h.4l.1-.1h.1m-1-.1v2.8m0,0,.4.2.4.1.3.1.4.1h.3l.4-.1h.3l.2-.2m108.5-119.8h-.2l-1-1-.7-1.4-.1-.5m5.6-12.8,1.7.9m-5.6,18.1.9.1,1.8-.2,1.9-.6m0,0,2.4,1.4M280.65,299l.6-.4.7-.5.6-.6.5-.6.6-.8.5-.7.4-.8.3-.9m16-38.7,33.7-19.5m2.5,1.4-2.5-1.4m-35.5,21.6.2-.3.2-.3.2-.3.2-.3.2-.3.3-.3.2-.2.3-.1m0,0,2.4,1.4m-99.4,138.3,198.5-114.5m0,0,15.9-9.2m-200.2,111.6-15.9,9.2m1.7,2.9-1.7-2.9m17.6-6.2-15.9,9.1m14.2-12.1.1-.1h.1l.1-.1v-.2l.1-.1v-.4m-.4.9,1.7,3m0,0,.3-.2.2-.2.2-.3.2-.3.1-.3.1-.4v-.4l.1-.5m-1.2,2.6L418.25,271m1.1-2.5v.4l-.1.4-.1.4-.1.3-.2.3-.2.3-.2.2-.2.2m-133.4,22.7,14.2-36.6m2.5,1.4-2.5-1.4m-14.2,36.6,2.4,1.4m-43.6,25.3,37-21.4m-57.2,33.1,4.6-2.7m55-29-2.4-1.4m-62.2,41.6v41.1M221,383l-2.5-1.3m0-41.1.1-1.2.3-1.2.5-1.3.6-1.2.7-1.1.9-1,.9-.9,1-.6M221,342l-2.5-1.4m5-8.5,2.4,1.4M338.75,237l14.2,20.2M338.75,237l-.2-.1-.1-.2-.2-.1h-.7l-.3.1-.2.2m-33.8,19.5,33.8-19.5m-33.8,19.5-.3.1-.2.2-.3.3-.2.2-.2.3-.2.4-.2.3-.1.3m-14.3,36.6,14.3-36.6m-14.3,36.6-.3.9-.4.8-.5.7-.6.7-.5.7-.6.6-.7.5-.6.4M243,323.57l40.1-23.2m-57.2,33.1,4.6-2.7m-4.6,2.7-1,.6-.9.9-.9,1-.7,1.1-.6,1.2-.5,1.3-.3,1.2V342m0,0v41m0,0,198.4-114.5m0-37.8v-3.3m0,41.1v-23.4m0-17.7-.1-1-.3-.9-.1-.2m-61.7,32.3,52.3-30.1m-52.3,30.1-.6.3-.6.3-.6.1h-.6l-.5-.1-.5-.2-.5-.4-.3-.4m-33.9,19.1-1.7.5h-1.5l-1.2-.5-1.1-1-.7-1.4-.3-1.7v-1.9l.4-2.2.8-2.1,1-2.2,1.3-1.9,1.6-1.8m1.4-3.7v19.9m2.2-21.2-.3.1-.3.2-.3.1-.2.2-.3.1-.3.2-.3.2-.2.2m2.2,18.7v-20m5.8,4.3.6,1.7.1,1.9-.3,2.2-.7,2.2-1,2.3-1.3,2-1.5,1.9-1.7,1.5m1.4-9.8,4.4-5.9m-4.4,2.9v3m5.2-9.8-5.2,6.8m-1.4,15.3,1.8-1.5,1.8-1.9,1.5-2.1,1.4-2.3,1-2.5.8-2.4.3-2.4.1-2.2-.4-1.9-.7-1.6-1-1.3m-6.6,25.6v-3.5m2.6,3.8-2.6-.3m20,0,.3-2.4-.1-2.2-.4-2-.8-1.5-1.1-1.2-1.5-.7-1.6-.2-1.8.3-2,.7-1.9,1.2-1.9,1.7-1.7,1.9-1.6,2.3-1.3,2.4m15.4-.5,2,.2m-15.5.4,1.2-2,1.4-1.9L330,276l1.7-1.2,1.7-.8,1.6-.3,1.4.2,1.2.6,1,1.1.6,1.5.2,1.8-.1,2m1.5,2-15-1.4m13.9,4.2.2-.3.1-.4.2-.3.1-.4.1-.3.2-.4.1-.4.1-.3m-16.1,1.5,15,1.3m-8.7,7.1-1.7.5h-1.6l-1.4-.5-1-.9-.8-1.5-.3-1.7.1-2.1.4-2.2m6.1,2.4.2,6m2-5.8-2.2-.2m2.4,7.1L333,287m-10.2-2.8-.6,2.4L322,289l.1,2.1.5,1.8.9,1.5,1.1,1,1.4.7,1.7.1,1.8-.3,1.8-.8,1.9-1.2m-13-9.9,2.6.2m-5.3,3.1,2.7-3.3m-18.6,25,1.5.6h1.7l1.8-.4,2-.9,1.9-1.3,1.8-1.8,1.8-2,1.4-2.3,1.3-2.5.9-2.5.5-2.4.2-2.4-.3-2.1-.6-1.7m-13.9,19.2-2,2.5m14-19.4.5,1.7v1.9l-.3,2.1-.6,2.1-1,2.2-1.2,2-1.5,1.8-1.6,1.5-1.7,1.1-1.7.6-1.5.2-1.4-.3m-3,1.8,15-18.7m-16.1,17.1.2.2.1.3.1.2.1.2.2.2.1.1.2.2.1.2m13.9-20.2-15,18.6m2.9-11.4,1.2-2.1,1.4-2,1.7-1.7,1.7-1.2,1.7-.8,1.7-.3,1.5.2,1.2.7m-7.4,7.4-4.7-.2m2.4,3,2.3-2.8m-7.7,2.6,5.4.2m11.6-12.6-1.2-.9-1.5-.5-1.8.1-1.8.5-1.9.9-1.9,1.4-1.8,1.7-1.6,2.1-1.5,2.2-1.1,2.4-.9,2.5m19.7-15.7-2.7,3.3m2.7-6.8v3.5m-1.4-24.9-1.9,1.8-1.6,2.2-1.4,2.3-1.1,2.5-.8,2.5-.5,2.4v2.3l.3,2,.7,1.7,1.1,1.3,1.3.8,1.6.4,1.8-.2,1.9-.6m-1.4-18.8v-2.6m26.4-110.9L204,65.67m171.9,99.2-18.5-10.6m-340.7,97.9,200.4,115.7m-15.2-109.2-168.4-97.2m297.7-7.4-142.5-82.3m174.2,100.6-18.4-10.6m-127.4,206.1,1.4.8M204,65.67l-4-2.3M12.65,249.87l4,2.3m209,96.2,6,3.5m10-17.2-5.8-3.3m7.8,8.8v-1m-7,12.2.8-.5m-13-23.5,7.2,4.1m10-17.2-7.3-4.1m9.3,9.6v-.9m-7,12.1.8-.4M.35,193.67v.9m2,4.5,3.3,1.9M.35,214v1m2,4.5,1.3.7m401,24.9,6,3.5m9.9-17.2-5.7-3.3m7.8,8.7v-.9m-7,12.2.8-.5m-13-23.6,7.2,4.2m9.9-17.2-7.2-4.2m9.3,9.7v-.9m-7,12.1.8-.5m-349.7,26v3.1m2.1-1.9v4.1m2-2.9v3.1m2-2v4.1m2.1-2.9V261m2-1.9v4.1m2-2.9v2.5m-28-36.4v29.7M53,229v5m45.4,37.4v3.2M79.55,257v4.1m20.8,11.5v4.1m2.1-2.9v3.1m2-1.9v4.1m2-3v3.2m2.1-2v4.1m2-2.9V281m19.4,8.6v3.2m-18.9-17.6v4.1m20.9,11.5v4.1m2-2.9v3.1m2.1-1.9v4.1m2-2.9v3.1m2-2v4.1m2.1-2.9v2.6m19.3,8.6V311m-18.8-17.6v4.2m20.9,11.5v4.1m2-3v3.1m2-1.9v4.1m2.1-2.9v3.1m2-1.9v4.1m2-3v2.6m-119.2-59.6,120.6,69.7m-.9-15.9v4.1m177.3-64,2.4,1.4M218,327.87l2.4,1.4M222.45,40l-1.7-3M7.05,206.17l2.4,1.4M324,291.47l2.4,1.4m10.8-18.7-2.4-1.4m3.7-36.1-2.4-1.4m-22.2,52.4-2.4-1.4m.9-11.4,2.4,1.4"/></g></g></svg>